%TF.GenerationSoftware,KiCad,Pcbnew,8.0.1*%
%TF.CreationDate,2024-04-17T00:31:54+12:00*%
%TF.ProjectId,50x50 2 Layer,35307835-3020-4322-904c-617965722e6b,B*%
%TF.SameCoordinates,Original*%
%TF.FileFunction,Legend,Bot*%
%TF.FilePolarity,Positive*%
%FSLAX46Y46*%
G04 Gerber Fmt 4.6, Leading zero omitted, Abs format (unit mm)*
G04 Created by KiCad (PCBNEW 8.0.1) date 2024-04-17 00:31:54*
%MOMM*%
%LPD*%
G01*
G04 APERTURE LIST*
G04 Aperture macros list*
%AMRoundRect*
0 Rectangle with rounded corners*
0 $1 Rounding radius*
0 $2 $3 $4 $5 $6 $7 $8 $9 X,Y pos of 4 corners*
0 Add a 4 corners polygon primitive as box body*
4,1,4,$2,$3,$4,$5,$6,$7,$8,$9,$2,$3,0*
0 Add four circle primitives for the rounded corners*
1,1,$1+$1,$2,$3*
1,1,$1+$1,$4,$5*
1,1,$1+$1,$6,$7*
1,1,$1+$1,$8,$9*
0 Add four rect primitives between the rounded corners*
20,1,$1+$1,$2,$3,$4,$5,0*
20,1,$1+$1,$4,$5,$6,$7,0*
20,1,$1+$1,$6,$7,$8,$9,0*
20,1,$1+$1,$8,$9,$2,$3,0*%
G04 Aperture macros list end*
%ADD10C,0.150000*%
%ADD11C,0.155000*%
%ADD12C,0.120000*%
%ADD13C,3.200000*%
%ADD14R,1.700000X1.700000*%
%ADD15O,1.700000X1.700000*%
%ADD16C,0.650000*%
%ADD17O,2.100000X1.000000*%
%ADD18O,1.800000X1.000000*%
%ADD19RoundRect,0.250000X0.600000X0.750000X-0.600000X0.750000X-0.600000X-0.750000X0.600000X-0.750000X0*%
%ADD20O,1.700000X2.000000*%
%ADD21R,1.000000X1.000000*%
G04 APERTURE END LIST*
D10*
X106045000Y-69469000D02*
X124968000Y-69469000D01*
X125831600Y-80264000D02*
X125831973Y-69469000D01*
X97717671Y-49377600D02*
X78485989Y-49377513D01*
X78485989Y-49377513D02*
X78486000Y-64262000D01*
X106045000Y-80137000D02*
X106045000Y-69469000D01*
X125831600Y-45364400D02*
X116179600Y-45364400D01*
X91313000Y-54610000D02*
X91313000Y-64262000D01*
X101889600Y-40894000D02*
X85445600Y-40894000D01*
X125831600Y-45364400D02*
X125831973Y-69469000D01*
X107442000Y-80137000D02*
X107442000Y-86918800D01*
X78448000Y-37592000D02*
X116155000Y-37592000D01*
X116155000Y-49357000D01*
X78448000Y-49357000D01*
X78448000Y-37592000D01*
X97717671Y-54610000D02*
X97717671Y-49377600D01*
X91313000Y-73660000D02*
X93726000Y-73660000D01*
X93699000Y-80174000D01*
X102099000Y-80174000D01*
X102099000Y-86924000D01*
X85190000Y-86924000D01*
X85217000Y-80391000D01*
X78486000Y-80391000D01*
X78486000Y-64262000D01*
X91313000Y-64262000D01*
X91313000Y-73660000D01*
X93065600Y-43220000D02*
X93065600Y-45820000D01*
X107442000Y-86918800D02*
X102099000Y-86924000D01*
X112318800Y-80264000D02*
X125831600Y-80264000D01*
X97717671Y-54610000D02*
X91313000Y-54610000D01*
X106045000Y-80137000D02*
X107442000Y-80137000D01*
X112318800Y-84277200D02*
X112318800Y-80264000D01*
X101955600Y-43180000D02*
X85445600Y-43180000D01*
X85445600Y-38354000D02*
X101889600Y-38354000D01*
X101889600Y-45878000D01*
X85445600Y-45878000D01*
X85445600Y-38354000D01*
X107442000Y-84277200D02*
X112318800Y-84277200D01*
X124968000Y-69469000D02*
X125831973Y-69469000D01*
D11*
X106973566Y-62705178D02*
X107306899Y-62228987D01*
X107544994Y-62705178D02*
X107544994Y-61705178D01*
X107544994Y-61705178D02*
X107164042Y-61705178D01*
X107164042Y-61705178D02*
X107068804Y-61752797D01*
X107068804Y-61752797D02*
X107021185Y-61800416D01*
X107021185Y-61800416D02*
X106973566Y-61895654D01*
X106973566Y-61895654D02*
X106973566Y-62038511D01*
X106973566Y-62038511D02*
X107021185Y-62133749D01*
X107021185Y-62133749D02*
X107068804Y-62181368D01*
X107068804Y-62181368D02*
X107164042Y-62228987D01*
X107164042Y-62228987D02*
X107544994Y-62228987D01*
X106544994Y-62705178D02*
X106544994Y-61705178D01*
X106544994Y-61705178D02*
X106164042Y-61705178D01*
X106164042Y-61705178D02*
X106068804Y-61752797D01*
X106068804Y-61752797D02*
X106021185Y-61800416D01*
X106021185Y-61800416D02*
X105973566Y-61895654D01*
X105973566Y-61895654D02*
X105973566Y-62038511D01*
X105973566Y-62038511D02*
X106021185Y-62133749D01*
X106021185Y-62133749D02*
X106068804Y-62181368D01*
X106068804Y-62181368D02*
X106164042Y-62228987D01*
X106164042Y-62228987D02*
X106544994Y-62228987D01*
X105592613Y-61800416D02*
X105544994Y-61752797D01*
X105544994Y-61752797D02*
X105449756Y-61705178D01*
X105449756Y-61705178D02*
X105211661Y-61705178D01*
X105211661Y-61705178D02*
X105116423Y-61752797D01*
X105116423Y-61752797D02*
X105068804Y-61800416D01*
X105068804Y-61800416D02*
X105021185Y-61895654D01*
X105021185Y-61895654D02*
X105021185Y-61990892D01*
X105021185Y-61990892D02*
X105068804Y-62133749D01*
X105068804Y-62133749D02*
X105640232Y-62705178D01*
X105640232Y-62705178D02*
X105021185Y-62705178D01*
X104402137Y-61705178D02*
X104306899Y-61705178D01*
X104306899Y-61705178D02*
X104211661Y-61752797D01*
X104211661Y-61752797D02*
X104164042Y-61800416D01*
X104164042Y-61800416D02*
X104116423Y-61895654D01*
X104116423Y-61895654D02*
X104068804Y-62086130D01*
X104068804Y-62086130D02*
X104068804Y-62324225D01*
X104068804Y-62324225D02*
X104116423Y-62514701D01*
X104116423Y-62514701D02*
X104164042Y-62609939D01*
X104164042Y-62609939D02*
X104211661Y-62657559D01*
X104211661Y-62657559D02*
X104306899Y-62705178D01*
X104306899Y-62705178D02*
X104402137Y-62705178D01*
X104402137Y-62705178D02*
X104497375Y-62657559D01*
X104497375Y-62657559D02*
X104544994Y-62609939D01*
X104544994Y-62609939D02*
X104592613Y-62514701D01*
X104592613Y-62514701D02*
X104640232Y-62324225D01*
X104640232Y-62324225D02*
X104640232Y-62086130D01*
X104640232Y-62086130D02*
X104592613Y-61895654D01*
X104592613Y-61895654D02*
X104544994Y-61800416D01*
X104544994Y-61800416D02*
X104497375Y-61752797D01*
X104497375Y-61752797D02*
X104402137Y-61705178D01*
X103211661Y-62038511D02*
X103211661Y-62705178D01*
X103449756Y-61657559D02*
X103687851Y-62371844D01*
X103687851Y-62371844D02*
X103068804Y-62371844D01*
X102497375Y-61705178D02*
X102402137Y-61705178D01*
X102402137Y-61705178D02*
X102306899Y-61752797D01*
X102306899Y-61752797D02*
X102259280Y-61800416D01*
X102259280Y-61800416D02*
X102211661Y-61895654D01*
X102211661Y-61895654D02*
X102164042Y-62086130D01*
X102164042Y-62086130D02*
X102164042Y-62324225D01*
X102164042Y-62324225D02*
X102211661Y-62514701D01*
X102211661Y-62514701D02*
X102259280Y-62609939D01*
X102259280Y-62609939D02*
X102306899Y-62657559D01*
X102306899Y-62657559D02*
X102402137Y-62705178D01*
X102402137Y-62705178D02*
X102497375Y-62705178D01*
X102497375Y-62705178D02*
X102592613Y-62657559D01*
X102592613Y-62657559D02*
X102640232Y-62609939D01*
X102640232Y-62609939D02*
X102687851Y-62514701D01*
X102687851Y-62514701D02*
X102735470Y-62324225D01*
X102735470Y-62324225D02*
X102735470Y-62086130D01*
X102735470Y-62086130D02*
X102687851Y-61895654D01*
X102687851Y-61895654D02*
X102640232Y-61800416D01*
X102640232Y-61800416D02*
X102592613Y-61752797D01*
X102592613Y-61752797D02*
X102497375Y-61705178D01*
X100973565Y-62705178D02*
X100973565Y-61705178D01*
X100973565Y-61705178D02*
X100640232Y-62419463D01*
X100640232Y-62419463D02*
X100306899Y-61705178D01*
X100306899Y-61705178D02*
X100306899Y-62705178D01*
X99259280Y-62609939D02*
X99306899Y-62657559D01*
X99306899Y-62657559D02*
X99449756Y-62705178D01*
X99449756Y-62705178D02*
X99544994Y-62705178D01*
X99544994Y-62705178D02*
X99687851Y-62657559D01*
X99687851Y-62657559D02*
X99783089Y-62562320D01*
X99783089Y-62562320D02*
X99830708Y-62467082D01*
X99830708Y-62467082D02*
X99878327Y-62276606D01*
X99878327Y-62276606D02*
X99878327Y-62133749D01*
X99878327Y-62133749D02*
X99830708Y-61943273D01*
X99830708Y-61943273D02*
X99783089Y-61848035D01*
X99783089Y-61848035D02*
X99687851Y-61752797D01*
X99687851Y-61752797D02*
X99544994Y-61705178D01*
X99544994Y-61705178D02*
X99449756Y-61705178D01*
X99449756Y-61705178D02*
X99306899Y-61752797D01*
X99306899Y-61752797D02*
X99259280Y-61800416D01*
X98830708Y-61705178D02*
X98830708Y-62514701D01*
X98830708Y-62514701D02*
X98783089Y-62609939D01*
X98783089Y-62609939D02*
X98735470Y-62657559D01*
X98735470Y-62657559D02*
X98640232Y-62705178D01*
X98640232Y-62705178D02*
X98449756Y-62705178D01*
X98449756Y-62705178D02*
X98354518Y-62657559D01*
X98354518Y-62657559D02*
X98306899Y-62609939D01*
X98306899Y-62609939D02*
X98259280Y-62514701D01*
X98259280Y-62514701D02*
X98259280Y-61705178D01*
X95429523Y-51449699D02*
X95429523Y-52259222D01*
X95429523Y-52259222D02*
X95381904Y-52354460D01*
X95381904Y-52354460D02*
X95334285Y-52402080D01*
X95334285Y-52402080D02*
X95239047Y-52449699D01*
X95239047Y-52449699D02*
X95048571Y-52449699D01*
X95048571Y-52449699D02*
X94953333Y-52402080D01*
X94953333Y-52402080D02*
X94905714Y-52354460D01*
X94905714Y-52354460D02*
X94858095Y-52259222D01*
X94858095Y-52259222D02*
X94858095Y-51449699D01*
X94429523Y-52402080D02*
X94286666Y-52449699D01*
X94286666Y-52449699D02*
X94048571Y-52449699D01*
X94048571Y-52449699D02*
X93953333Y-52402080D01*
X93953333Y-52402080D02*
X93905714Y-52354460D01*
X93905714Y-52354460D02*
X93858095Y-52259222D01*
X93858095Y-52259222D02*
X93858095Y-52163984D01*
X93858095Y-52163984D02*
X93905714Y-52068746D01*
X93905714Y-52068746D02*
X93953333Y-52021127D01*
X93953333Y-52021127D02*
X94048571Y-51973508D01*
X94048571Y-51973508D02*
X94239047Y-51925889D01*
X94239047Y-51925889D02*
X94334285Y-51878270D01*
X94334285Y-51878270D02*
X94381904Y-51830651D01*
X94381904Y-51830651D02*
X94429523Y-51735413D01*
X94429523Y-51735413D02*
X94429523Y-51640175D01*
X94429523Y-51640175D02*
X94381904Y-51544937D01*
X94381904Y-51544937D02*
X94334285Y-51497318D01*
X94334285Y-51497318D02*
X94239047Y-51449699D01*
X94239047Y-51449699D02*
X94000952Y-51449699D01*
X94000952Y-51449699D02*
X93858095Y-51497318D01*
X93096190Y-51925889D02*
X92953333Y-51973508D01*
X92953333Y-51973508D02*
X92905714Y-52021127D01*
X92905714Y-52021127D02*
X92858095Y-52116365D01*
X92858095Y-52116365D02*
X92858095Y-52259222D01*
X92858095Y-52259222D02*
X92905714Y-52354460D01*
X92905714Y-52354460D02*
X92953333Y-52402080D01*
X92953333Y-52402080D02*
X93048571Y-52449699D01*
X93048571Y-52449699D02*
X93429523Y-52449699D01*
X93429523Y-52449699D02*
X93429523Y-51449699D01*
X93429523Y-51449699D02*
X93096190Y-51449699D01*
X93096190Y-51449699D02*
X93000952Y-51497318D01*
X93000952Y-51497318D02*
X92953333Y-51544937D01*
X92953333Y-51544937D02*
X92905714Y-51640175D01*
X92905714Y-51640175D02*
X92905714Y-51735413D01*
X92905714Y-51735413D02*
X92953333Y-51830651D01*
X92953333Y-51830651D02*
X93000952Y-51878270D01*
X93000952Y-51878270D02*
X93096190Y-51925889D01*
X93096190Y-51925889D02*
X93429523Y-51925889D01*
X91096190Y-52354460D02*
X91143809Y-52402080D01*
X91143809Y-52402080D02*
X91286666Y-52449699D01*
X91286666Y-52449699D02*
X91381904Y-52449699D01*
X91381904Y-52449699D02*
X91524761Y-52402080D01*
X91524761Y-52402080D02*
X91619999Y-52306841D01*
X91619999Y-52306841D02*
X91667618Y-52211603D01*
X91667618Y-52211603D02*
X91715237Y-52021127D01*
X91715237Y-52021127D02*
X91715237Y-51878270D01*
X91715237Y-51878270D02*
X91667618Y-51687794D01*
X91667618Y-51687794D02*
X91619999Y-51592556D01*
X91619999Y-51592556D02*
X91524761Y-51497318D01*
X91524761Y-51497318D02*
X91381904Y-51449699D01*
X91381904Y-51449699D02*
X91286666Y-51449699D01*
X91286666Y-51449699D02*
X91143809Y-51497318D01*
X91143809Y-51497318D02*
X91096190Y-51544937D01*
X101107531Y-41493559D02*
X101107531Y-42303082D01*
X101107531Y-42303082D02*
X101059912Y-42398320D01*
X101059912Y-42398320D02*
X101012293Y-42445940D01*
X101012293Y-42445940D02*
X100917055Y-42493559D01*
X100917055Y-42493559D02*
X100726579Y-42493559D01*
X100726579Y-42493559D02*
X100631341Y-42445940D01*
X100631341Y-42445940D02*
X100583722Y-42398320D01*
X100583722Y-42398320D02*
X100536103Y-42303082D01*
X100536103Y-42303082D02*
X100536103Y-41493559D01*
X99488484Y-42398320D02*
X99536103Y-42445940D01*
X99536103Y-42445940D02*
X99678960Y-42493559D01*
X99678960Y-42493559D02*
X99774198Y-42493559D01*
X99774198Y-42493559D02*
X99917055Y-42445940D01*
X99917055Y-42445940D02*
X100012293Y-42350701D01*
X100012293Y-42350701D02*
X100059912Y-42255463D01*
X100059912Y-42255463D02*
X100107531Y-42064987D01*
X100107531Y-42064987D02*
X100107531Y-41922130D01*
X100107531Y-41922130D02*
X100059912Y-41731654D01*
X100059912Y-41731654D02*
X100012293Y-41636416D01*
X100012293Y-41636416D02*
X99917055Y-41541178D01*
X99917055Y-41541178D02*
X99774198Y-41493559D01*
X99774198Y-41493559D02*
X99678960Y-41493559D01*
X99678960Y-41493559D02*
X99536103Y-41541178D01*
X99536103Y-41541178D02*
X99488484Y-41588797D01*
X98345626Y-42207844D02*
X97869436Y-42207844D01*
X98440864Y-42493559D02*
X98107531Y-41493559D01*
X98107531Y-41493559D02*
X97774198Y-42493559D01*
X97059912Y-42445940D02*
X97155150Y-42493559D01*
X97155150Y-42493559D02*
X97345626Y-42493559D01*
X97345626Y-42493559D02*
X97440864Y-42445940D01*
X97440864Y-42445940D02*
X97488483Y-42350701D01*
X97488483Y-42350701D02*
X97488483Y-41969749D01*
X97488483Y-41969749D02*
X97440864Y-41874511D01*
X97440864Y-41874511D02*
X97345626Y-41826892D01*
X97345626Y-41826892D02*
X97155150Y-41826892D01*
X97155150Y-41826892D02*
X97059912Y-41874511D01*
X97059912Y-41874511D02*
X97012293Y-41969749D01*
X97012293Y-41969749D02*
X97012293Y-42064987D01*
X97012293Y-42064987D02*
X97488483Y-42160225D01*
X96583721Y-42493559D02*
X96583721Y-41826892D01*
X96583721Y-42017368D02*
X96536102Y-41922130D01*
X96536102Y-41922130D02*
X96488483Y-41874511D01*
X96488483Y-41874511D02*
X96393245Y-41826892D01*
X96393245Y-41826892D02*
X96298007Y-41826892D01*
X95821816Y-42493559D02*
X95917054Y-42445940D01*
X95917054Y-42445940D02*
X95964673Y-42398320D01*
X95964673Y-42398320D02*
X96012292Y-42303082D01*
X96012292Y-42303082D02*
X96012292Y-42017368D01*
X96012292Y-42017368D02*
X95964673Y-41922130D01*
X95964673Y-41922130D02*
X95917054Y-41874511D01*
X95917054Y-41874511D02*
X95821816Y-41826892D01*
X95821816Y-41826892D02*
X95678959Y-41826892D01*
X95678959Y-41826892D02*
X95583721Y-41874511D01*
X95583721Y-41874511D02*
X95536102Y-41922130D01*
X95536102Y-41922130D02*
X95488483Y-42017368D01*
X95488483Y-42017368D02*
X95488483Y-42303082D01*
X95488483Y-42303082D02*
X95536102Y-42398320D01*
X95536102Y-42398320D02*
X95583721Y-42445940D01*
X95583721Y-42445940D02*
X95678959Y-42493559D01*
X95678959Y-42493559D02*
X95821816Y-42493559D01*
X95107530Y-42445940D02*
X95012292Y-42493559D01*
X95012292Y-42493559D02*
X94821816Y-42493559D01*
X94821816Y-42493559D02*
X94726578Y-42445940D01*
X94726578Y-42445940D02*
X94678959Y-42350701D01*
X94678959Y-42350701D02*
X94678959Y-42303082D01*
X94678959Y-42303082D02*
X94726578Y-42207844D01*
X94726578Y-42207844D02*
X94821816Y-42160225D01*
X94821816Y-42160225D02*
X94964673Y-42160225D01*
X94964673Y-42160225D02*
X95059911Y-42112606D01*
X95059911Y-42112606D02*
X95107530Y-42017368D01*
X95107530Y-42017368D02*
X95107530Y-41969749D01*
X95107530Y-41969749D02*
X95059911Y-41874511D01*
X95059911Y-41874511D02*
X94964673Y-41826892D01*
X94964673Y-41826892D02*
X94821816Y-41826892D01*
X94821816Y-41826892D02*
X94726578Y-41874511D01*
X94250387Y-41826892D02*
X94250387Y-42826892D01*
X94250387Y-41874511D02*
X94155149Y-41826892D01*
X94155149Y-41826892D02*
X93964673Y-41826892D01*
X93964673Y-41826892D02*
X93869435Y-41874511D01*
X93869435Y-41874511D02*
X93821816Y-41922130D01*
X93821816Y-41922130D02*
X93774197Y-42017368D01*
X93774197Y-42017368D02*
X93774197Y-42303082D01*
X93774197Y-42303082D02*
X93821816Y-42398320D01*
X93821816Y-42398320D02*
X93869435Y-42445940D01*
X93869435Y-42445940D02*
X93964673Y-42493559D01*
X93964673Y-42493559D02*
X94155149Y-42493559D01*
X94155149Y-42493559D02*
X94250387Y-42445940D01*
X92917054Y-42493559D02*
X92917054Y-41969749D01*
X92917054Y-41969749D02*
X92964673Y-41874511D01*
X92964673Y-41874511D02*
X93059911Y-41826892D01*
X93059911Y-41826892D02*
X93250387Y-41826892D01*
X93250387Y-41826892D02*
X93345625Y-41874511D01*
X92917054Y-42445940D02*
X93012292Y-42493559D01*
X93012292Y-42493559D02*
X93250387Y-42493559D01*
X93250387Y-42493559D02*
X93345625Y-42445940D01*
X93345625Y-42445940D02*
X93393244Y-42350701D01*
X93393244Y-42350701D02*
X93393244Y-42255463D01*
X93393244Y-42255463D02*
X93345625Y-42160225D01*
X93345625Y-42160225D02*
X93250387Y-42112606D01*
X93250387Y-42112606D02*
X93012292Y-42112606D01*
X93012292Y-42112606D02*
X92917054Y-42064987D01*
X92012292Y-42445940D02*
X92107530Y-42493559D01*
X92107530Y-42493559D02*
X92298006Y-42493559D01*
X92298006Y-42493559D02*
X92393244Y-42445940D01*
X92393244Y-42445940D02*
X92440863Y-42398320D01*
X92440863Y-42398320D02*
X92488482Y-42303082D01*
X92488482Y-42303082D02*
X92488482Y-42017368D01*
X92488482Y-42017368D02*
X92440863Y-41922130D01*
X92440863Y-41922130D02*
X92393244Y-41874511D01*
X92393244Y-41874511D02*
X92298006Y-41826892D01*
X92298006Y-41826892D02*
X92107530Y-41826892D01*
X92107530Y-41826892D02*
X92012292Y-41874511D01*
X91202768Y-42445940D02*
X91298006Y-42493559D01*
X91298006Y-42493559D02*
X91488482Y-42493559D01*
X91488482Y-42493559D02*
X91583720Y-42445940D01*
X91583720Y-42445940D02*
X91631339Y-42350701D01*
X91631339Y-42350701D02*
X91631339Y-41969749D01*
X91631339Y-41969749D02*
X91583720Y-41874511D01*
X91583720Y-41874511D02*
X91488482Y-41826892D01*
X91488482Y-41826892D02*
X91298006Y-41826892D01*
X91298006Y-41826892D02*
X91202768Y-41874511D01*
X91202768Y-41874511D02*
X91155149Y-41969749D01*
X91155149Y-41969749D02*
X91155149Y-42064987D01*
X91155149Y-42064987D02*
X91631339Y-42160225D01*
X102069550Y-48081940D02*
X101926693Y-48129559D01*
X101926693Y-48129559D02*
X101688598Y-48129559D01*
X101688598Y-48129559D02*
X101593360Y-48081940D01*
X101593360Y-48081940D02*
X101545741Y-48034320D01*
X101545741Y-48034320D02*
X101498122Y-47939082D01*
X101498122Y-47939082D02*
X101498122Y-47843844D01*
X101498122Y-47843844D02*
X101545741Y-47748606D01*
X101545741Y-47748606D02*
X101593360Y-47700987D01*
X101593360Y-47700987D02*
X101688598Y-47653368D01*
X101688598Y-47653368D02*
X101879074Y-47605749D01*
X101879074Y-47605749D02*
X101974312Y-47558130D01*
X101974312Y-47558130D02*
X102021931Y-47510511D01*
X102021931Y-47510511D02*
X102069550Y-47415273D01*
X102069550Y-47415273D02*
X102069550Y-47320035D01*
X102069550Y-47320035D02*
X102021931Y-47224797D01*
X102021931Y-47224797D02*
X101974312Y-47177178D01*
X101974312Y-47177178D02*
X101879074Y-47129559D01*
X101879074Y-47129559D02*
X101640979Y-47129559D01*
X101640979Y-47129559D02*
X101498122Y-47177178D01*
X100640979Y-48081940D02*
X100736217Y-48129559D01*
X100736217Y-48129559D02*
X100926693Y-48129559D01*
X100926693Y-48129559D02*
X101021931Y-48081940D01*
X101021931Y-48081940D02*
X101069550Y-48034320D01*
X101069550Y-48034320D02*
X101117169Y-47939082D01*
X101117169Y-47939082D02*
X101117169Y-47653368D01*
X101117169Y-47653368D02*
X101069550Y-47558130D01*
X101069550Y-47558130D02*
X101021931Y-47510511D01*
X101021931Y-47510511D02*
X100926693Y-47462892D01*
X100926693Y-47462892D02*
X100736217Y-47462892D01*
X100736217Y-47462892D02*
X100640979Y-47510511D01*
X100212407Y-48129559D02*
X100212407Y-47462892D01*
X100212407Y-47653368D02*
X100164788Y-47558130D01*
X100164788Y-47558130D02*
X100117169Y-47510511D01*
X100117169Y-47510511D02*
X100021931Y-47462892D01*
X100021931Y-47462892D02*
X99926693Y-47462892D01*
X99212407Y-48081940D02*
X99307645Y-48129559D01*
X99307645Y-48129559D02*
X99498121Y-48129559D01*
X99498121Y-48129559D02*
X99593359Y-48081940D01*
X99593359Y-48081940D02*
X99640978Y-47986701D01*
X99640978Y-47986701D02*
X99640978Y-47605749D01*
X99640978Y-47605749D02*
X99593359Y-47510511D01*
X99593359Y-47510511D02*
X99498121Y-47462892D01*
X99498121Y-47462892D02*
X99307645Y-47462892D01*
X99307645Y-47462892D02*
X99212407Y-47510511D01*
X99212407Y-47510511D02*
X99164788Y-47605749D01*
X99164788Y-47605749D02*
X99164788Y-47700987D01*
X99164788Y-47700987D02*
X99640978Y-47796225D01*
X98355264Y-48081940D02*
X98450502Y-48129559D01*
X98450502Y-48129559D02*
X98640978Y-48129559D01*
X98640978Y-48129559D02*
X98736216Y-48081940D01*
X98736216Y-48081940D02*
X98783835Y-47986701D01*
X98783835Y-47986701D02*
X98783835Y-47605749D01*
X98783835Y-47605749D02*
X98736216Y-47510511D01*
X98736216Y-47510511D02*
X98640978Y-47462892D01*
X98640978Y-47462892D02*
X98450502Y-47462892D01*
X98450502Y-47462892D02*
X98355264Y-47510511D01*
X98355264Y-47510511D02*
X98307645Y-47605749D01*
X98307645Y-47605749D02*
X98307645Y-47700987D01*
X98307645Y-47700987D02*
X98783835Y-47796225D01*
X97879073Y-47462892D02*
X97879073Y-48129559D01*
X97879073Y-47558130D02*
X97831454Y-47510511D01*
X97831454Y-47510511D02*
X97736216Y-47462892D01*
X97736216Y-47462892D02*
X97593359Y-47462892D01*
X97593359Y-47462892D02*
X97498121Y-47510511D01*
X97498121Y-47510511D02*
X97450502Y-47605749D01*
X97450502Y-47605749D02*
X97450502Y-48129559D01*
X123443550Y-70784940D02*
X123300693Y-70832559D01*
X123300693Y-70832559D02*
X123062598Y-70832559D01*
X123062598Y-70832559D02*
X122967360Y-70784940D01*
X122967360Y-70784940D02*
X122919741Y-70737320D01*
X122919741Y-70737320D02*
X122872122Y-70642082D01*
X122872122Y-70642082D02*
X122872122Y-70546844D01*
X122872122Y-70546844D02*
X122919741Y-70451606D01*
X122919741Y-70451606D02*
X122967360Y-70403987D01*
X122967360Y-70403987D02*
X123062598Y-70356368D01*
X123062598Y-70356368D02*
X123253074Y-70308749D01*
X123253074Y-70308749D02*
X123348312Y-70261130D01*
X123348312Y-70261130D02*
X123395931Y-70213511D01*
X123395931Y-70213511D02*
X123443550Y-70118273D01*
X123443550Y-70118273D02*
X123443550Y-70023035D01*
X123443550Y-70023035D02*
X123395931Y-69927797D01*
X123395931Y-69927797D02*
X123348312Y-69880178D01*
X123348312Y-69880178D02*
X123253074Y-69832559D01*
X123253074Y-69832559D02*
X123014979Y-69832559D01*
X123014979Y-69832559D02*
X122872122Y-69880178D01*
X122062598Y-70784940D02*
X122157836Y-70832559D01*
X122157836Y-70832559D02*
X122348312Y-70832559D01*
X122348312Y-70832559D02*
X122443550Y-70784940D01*
X122443550Y-70784940D02*
X122491169Y-70689701D01*
X122491169Y-70689701D02*
X122491169Y-70308749D01*
X122491169Y-70308749D02*
X122443550Y-70213511D01*
X122443550Y-70213511D02*
X122348312Y-70165892D01*
X122348312Y-70165892D02*
X122157836Y-70165892D01*
X122157836Y-70165892D02*
X122062598Y-70213511D01*
X122062598Y-70213511D02*
X122014979Y-70308749D01*
X122014979Y-70308749D02*
X122014979Y-70403987D01*
X122014979Y-70403987D02*
X122491169Y-70499225D01*
X121586407Y-70165892D02*
X121586407Y-70832559D01*
X121586407Y-70261130D02*
X121538788Y-70213511D01*
X121538788Y-70213511D02*
X121443550Y-70165892D01*
X121443550Y-70165892D02*
X121300693Y-70165892D01*
X121300693Y-70165892D02*
X121205455Y-70213511D01*
X121205455Y-70213511D02*
X121157836Y-70308749D01*
X121157836Y-70308749D02*
X121157836Y-70832559D01*
X120729264Y-70784940D02*
X120634026Y-70832559D01*
X120634026Y-70832559D02*
X120443550Y-70832559D01*
X120443550Y-70832559D02*
X120348312Y-70784940D01*
X120348312Y-70784940D02*
X120300693Y-70689701D01*
X120300693Y-70689701D02*
X120300693Y-70642082D01*
X120300693Y-70642082D02*
X120348312Y-70546844D01*
X120348312Y-70546844D02*
X120443550Y-70499225D01*
X120443550Y-70499225D02*
X120586407Y-70499225D01*
X120586407Y-70499225D02*
X120681645Y-70451606D01*
X120681645Y-70451606D02*
X120729264Y-70356368D01*
X120729264Y-70356368D02*
X120729264Y-70308749D01*
X120729264Y-70308749D02*
X120681645Y-70213511D01*
X120681645Y-70213511D02*
X120586407Y-70165892D01*
X120586407Y-70165892D02*
X120443550Y-70165892D01*
X120443550Y-70165892D02*
X120348312Y-70213511D01*
X119729264Y-70832559D02*
X119824502Y-70784940D01*
X119824502Y-70784940D02*
X119872121Y-70737320D01*
X119872121Y-70737320D02*
X119919740Y-70642082D01*
X119919740Y-70642082D02*
X119919740Y-70356368D01*
X119919740Y-70356368D02*
X119872121Y-70261130D01*
X119872121Y-70261130D02*
X119824502Y-70213511D01*
X119824502Y-70213511D02*
X119729264Y-70165892D01*
X119729264Y-70165892D02*
X119586407Y-70165892D01*
X119586407Y-70165892D02*
X119491169Y-70213511D01*
X119491169Y-70213511D02*
X119443550Y-70261130D01*
X119443550Y-70261130D02*
X119395931Y-70356368D01*
X119395931Y-70356368D02*
X119395931Y-70642082D01*
X119395931Y-70642082D02*
X119443550Y-70737320D01*
X119443550Y-70737320D02*
X119491169Y-70784940D01*
X119491169Y-70784940D02*
X119586407Y-70832559D01*
X119586407Y-70832559D02*
X119729264Y-70832559D01*
X118967359Y-70832559D02*
X118967359Y-70165892D01*
X118967359Y-70356368D02*
X118919740Y-70261130D01*
X118919740Y-70261130D02*
X118872121Y-70213511D01*
X118872121Y-70213511D02*
X118776883Y-70165892D01*
X118776883Y-70165892D02*
X118681645Y-70165892D01*
X118395930Y-70784940D02*
X118300692Y-70832559D01*
X118300692Y-70832559D02*
X118110216Y-70832559D01*
X118110216Y-70832559D02*
X118014978Y-70784940D01*
X118014978Y-70784940D02*
X117967359Y-70689701D01*
X117967359Y-70689701D02*
X117967359Y-70642082D01*
X117967359Y-70642082D02*
X118014978Y-70546844D01*
X118014978Y-70546844D02*
X118110216Y-70499225D01*
X118110216Y-70499225D02*
X118253073Y-70499225D01*
X118253073Y-70499225D02*
X118348311Y-70451606D01*
X118348311Y-70451606D02*
X118395930Y-70356368D01*
X118395930Y-70356368D02*
X118395930Y-70308749D01*
X118395930Y-70308749D02*
X118348311Y-70213511D01*
X118348311Y-70213511D02*
X118253073Y-70165892D01*
X118253073Y-70165892D02*
X118110216Y-70165892D01*
X118110216Y-70165892D02*
X118014978Y-70213511D01*
X100774198Y-39477749D02*
X100631341Y-39525368D01*
X100631341Y-39525368D02*
X100583722Y-39572987D01*
X100583722Y-39572987D02*
X100536103Y-39668225D01*
X100536103Y-39668225D02*
X100536103Y-39811082D01*
X100536103Y-39811082D02*
X100583722Y-39906320D01*
X100583722Y-39906320D02*
X100631341Y-39953940D01*
X100631341Y-39953940D02*
X100726579Y-40001559D01*
X100726579Y-40001559D02*
X101107531Y-40001559D01*
X101107531Y-40001559D02*
X101107531Y-39001559D01*
X101107531Y-39001559D02*
X100774198Y-39001559D01*
X100774198Y-39001559D02*
X100678960Y-39049178D01*
X100678960Y-39049178D02*
X100631341Y-39096797D01*
X100631341Y-39096797D02*
X100583722Y-39192035D01*
X100583722Y-39192035D02*
X100583722Y-39287273D01*
X100583722Y-39287273D02*
X100631341Y-39382511D01*
X100631341Y-39382511D02*
X100678960Y-39430130D01*
X100678960Y-39430130D02*
X100774198Y-39477749D01*
X100774198Y-39477749D02*
X101107531Y-39477749D01*
X100202769Y-39334892D02*
X99964674Y-40001559D01*
X99726579Y-39334892D02*
X99964674Y-40001559D01*
X99964674Y-40001559D02*
X100059912Y-40239654D01*
X100059912Y-40239654D02*
X100107531Y-40287273D01*
X100107531Y-40287273D02*
X100202769Y-40334892D01*
X98059912Y-39049178D02*
X98155150Y-39001559D01*
X98155150Y-39001559D02*
X98298007Y-39001559D01*
X98298007Y-39001559D02*
X98440864Y-39049178D01*
X98440864Y-39049178D02*
X98536102Y-39144416D01*
X98536102Y-39144416D02*
X98583721Y-39239654D01*
X98583721Y-39239654D02*
X98631340Y-39430130D01*
X98631340Y-39430130D02*
X98631340Y-39572987D01*
X98631340Y-39572987D02*
X98583721Y-39763463D01*
X98583721Y-39763463D02*
X98536102Y-39858701D01*
X98536102Y-39858701D02*
X98440864Y-39953940D01*
X98440864Y-39953940D02*
X98298007Y-40001559D01*
X98298007Y-40001559D02*
X98202769Y-40001559D01*
X98202769Y-40001559D02*
X98059912Y-39953940D01*
X98059912Y-39953940D02*
X98012293Y-39906320D01*
X98012293Y-39906320D02*
X98012293Y-39572987D01*
X98012293Y-39572987D02*
X98202769Y-39572987D01*
X97583721Y-40001559D02*
X97583721Y-39334892D01*
X97583721Y-39525368D02*
X97536102Y-39430130D01*
X97536102Y-39430130D02*
X97488483Y-39382511D01*
X97488483Y-39382511D02*
X97393245Y-39334892D01*
X97393245Y-39334892D02*
X97298007Y-39334892D01*
X96536102Y-40001559D02*
X96536102Y-39477749D01*
X96536102Y-39477749D02*
X96583721Y-39382511D01*
X96583721Y-39382511D02*
X96678959Y-39334892D01*
X96678959Y-39334892D02*
X96869435Y-39334892D01*
X96869435Y-39334892D02*
X96964673Y-39382511D01*
X96536102Y-39953940D02*
X96631340Y-40001559D01*
X96631340Y-40001559D02*
X96869435Y-40001559D01*
X96869435Y-40001559D02*
X96964673Y-39953940D01*
X96964673Y-39953940D02*
X97012292Y-39858701D01*
X97012292Y-39858701D02*
X97012292Y-39763463D01*
X97012292Y-39763463D02*
X96964673Y-39668225D01*
X96964673Y-39668225D02*
X96869435Y-39620606D01*
X96869435Y-39620606D02*
X96631340Y-39620606D01*
X96631340Y-39620606D02*
X96536102Y-39572987D01*
X96155149Y-39334892D02*
X95917054Y-40001559D01*
X95678959Y-39334892D02*
X95917054Y-40001559D01*
X95917054Y-40001559D02*
X96012292Y-40239654D01*
X96012292Y-40239654D02*
X96059911Y-40287273D01*
X96059911Y-40287273D02*
X96155149Y-40334892D01*
X95345625Y-39953940D02*
X95250387Y-40001559D01*
X95250387Y-40001559D02*
X95059911Y-40001559D01*
X95059911Y-40001559D02*
X94964673Y-39953940D01*
X94964673Y-39953940D02*
X94917054Y-39858701D01*
X94917054Y-39858701D02*
X94917054Y-39811082D01*
X94917054Y-39811082D02*
X94964673Y-39715844D01*
X94964673Y-39715844D02*
X95059911Y-39668225D01*
X95059911Y-39668225D02*
X95202768Y-39668225D01*
X95202768Y-39668225D02*
X95298006Y-39620606D01*
X95298006Y-39620606D02*
X95345625Y-39525368D01*
X95345625Y-39525368D02*
X95345625Y-39477749D01*
X95345625Y-39477749D02*
X95298006Y-39382511D01*
X95298006Y-39382511D02*
X95202768Y-39334892D01*
X95202768Y-39334892D02*
X95059911Y-39334892D01*
X95059911Y-39334892D02*
X94964673Y-39382511D01*
X94345625Y-40001559D02*
X94440863Y-39953940D01*
X94440863Y-39953940D02*
X94488482Y-39906320D01*
X94488482Y-39906320D02*
X94536101Y-39811082D01*
X94536101Y-39811082D02*
X94536101Y-39525368D01*
X94536101Y-39525368D02*
X94488482Y-39430130D01*
X94488482Y-39430130D02*
X94440863Y-39382511D01*
X94440863Y-39382511D02*
X94345625Y-39334892D01*
X94345625Y-39334892D02*
X94202768Y-39334892D01*
X94202768Y-39334892D02*
X94107530Y-39382511D01*
X94107530Y-39382511D02*
X94059911Y-39430130D01*
X94059911Y-39430130D02*
X94012292Y-39525368D01*
X94012292Y-39525368D02*
X94012292Y-39811082D01*
X94012292Y-39811082D02*
X94059911Y-39906320D01*
X94059911Y-39906320D02*
X94107530Y-39953940D01*
X94107530Y-39953940D02*
X94202768Y-40001559D01*
X94202768Y-40001559D02*
X94345625Y-40001559D01*
X93583720Y-39334892D02*
X93583720Y-40001559D01*
X93583720Y-39430130D02*
X93536101Y-39382511D01*
X93536101Y-39382511D02*
X93440863Y-39334892D01*
X93440863Y-39334892D02*
X93298006Y-39334892D01*
X93298006Y-39334892D02*
X93202768Y-39382511D01*
X93202768Y-39382511D02*
X93155149Y-39477749D01*
X93155149Y-39477749D02*
X93155149Y-40001559D01*
X91583720Y-39477749D02*
X91917053Y-39477749D01*
X91917053Y-40001559D02*
X91917053Y-39001559D01*
X91917053Y-39001559D02*
X91440863Y-39001559D01*
X90678958Y-39953940D02*
X90774196Y-40001559D01*
X90774196Y-40001559D02*
X90964672Y-40001559D01*
X90964672Y-40001559D02*
X91059910Y-39953940D01*
X91059910Y-39953940D02*
X91107529Y-39858701D01*
X91107529Y-39858701D02*
X91107529Y-39477749D01*
X91107529Y-39477749D02*
X91059910Y-39382511D01*
X91059910Y-39382511D02*
X90964672Y-39334892D01*
X90964672Y-39334892D02*
X90774196Y-39334892D01*
X90774196Y-39334892D02*
X90678958Y-39382511D01*
X90678958Y-39382511D02*
X90631339Y-39477749D01*
X90631339Y-39477749D02*
X90631339Y-39572987D01*
X90631339Y-39572987D02*
X91107529Y-39668225D01*
X90202767Y-39334892D02*
X90202767Y-40001559D01*
X90202767Y-39430130D02*
X90155148Y-39382511D01*
X90155148Y-39382511D02*
X90059910Y-39334892D01*
X90059910Y-39334892D02*
X89917053Y-39334892D01*
X89917053Y-39334892D02*
X89821815Y-39382511D01*
X89821815Y-39382511D02*
X89774196Y-39477749D01*
X89774196Y-39477749D02*
X89774196Y-40001559D01*
X88917053Y-39953940D02*
X89012291Y-40001559D01*
X89012291Y-40001559D02*
X89202767Y-40001559D01*
X89202767Y-40001559D02*
X89298005Y-39953940D01*
X89298005Y-39953940D02*
X89345624Y-39858701D01*
X89345624Y-39858701D02*
X89345624Y-39477749D01*
X89345624Y-39477749D02*
X89298005Y-39382511D01*
X89298005Y-39382511D02*
X89202767Y-39334892D01*
X89202767Y-39334892D02*
X89012291Y-39334892D01*
X89012291Y-39334892D02*
X88917053Y-39382511D01*
X88917053Y-39382511D02*
X88869434Y-39477749D01*
X88869434Y-39477749D02*
X88869434Y-39572987D01*
X88869434Y-39572987D02*
X89345624Y-39668225D01*
X88440862Y-40001559D02*
X88440862Y-39334892D01*
X88440862Y-39430130D02*
X88393243Y-39382511D01*
X88393243Y-39382511D02*
X88298005Y-39334892D01*
X88298005Y-39334892D02*
X88155148Y-39334892D01*
X88155148Y-39334892D02*
X88059910Y-39382511D01*
X88059910Y-39382511D02*
X88012291Y-39477749D01*
X88012291Y-39477749D02*
X88012291Y-40001559D01*
X88012291Y-39477749D02*
X87964672Y-39382511D01*
X87964672Y-39382511D02*
X87869434Y-39334892D01*
X87869434Y-39334892D02*
X87726577Y-39334892D01*
X87726577Y-39334892D02*
X87631338Y-39382511D01*
X87631338Y-39382511D02*
X87583719Y-39477749D01*
X87583719Y-39477749D02*
X87583719Y-40001559D01*
X86964672Y-40001559D02*
X87059910Y-39953940D01*
X87059910Y-39953940D02*
X87107529Y-39906320D01*
X87107529Y-39906320D02*
X87155148Y-39811082D01*
X87155148Y-39811082D02*
X87155148Y-39525368D01*
X87155148Y-39525368D02*
X87107529Y-39430130D01*
X87107529Y-39430130D02*
X87059910Y-39382511D01*
X87059910Y-39382511D02*
X86964672Y-39334892D01*
X86964672Y-39334892D02*
X86821815Y-39334892D01*
X86821815Y-39334892D02*
X86726577Y-39382511D01*
X86726577Y-39382511D02*
X86678958Y-39430130D01*
X86678958Y-39430130D02*
X86631339Y-39525368D01*
X86631339Y-39525368D02*
X86631339Y-39811082D01*
X86631339Y-39811082D02*
X86678958Y-39906320D01*
X86678958Y-39906320D02*
X86726577Y-39953940D01*
X86726577Y-39953940D02*
X86821815Y-40001559D01*
X86821815Y-40001559D02*
X86964672Y-40001559D01*
X86202767Y-40001559D02*
X86202767Y-39334892D01*
X86202767Y-39525368D02*
X86155148Y-39430130D01*
X86155148Y-39430130D02*
X86107529Y-39382511D01*
X86107529Y-39382511D02*
X86012291Y-39334892D01*
X86012291Y-39334892D02*
X85917053Y-39334892D01*
X100583722Y-45081559D02*
X101155150Y-45081559D01*
X100869436Y-45081559D02*
X100869436Y-44081559D01*
X100869436Y-44081559D02*
X100964674Y-44224416D01*
X100964674Y-44224416D02*
X101059912Y-44319654D01*
X101059912Y-44319654D02*
X101155150Y-44367273D01*
X100202769Y-44176797D02*
X100155150Y-44129178D01*
X100155150Y-44129178D02*
X100059912Y-44081559D01*
X100059912Y-44081559D02*
X99821817Y-44081559D01*
X99821817Y-44081559D02*
X99726579Y-44129178D01*
X99726579Y-44129178D02*
X99678960Y-44176797D01*
X99678960Y-44176797D02*
X99631341Y-44272035D01*
X99631341Y-44272035D02*
X99631341Y-44367273D01*
X99631341Y-44367273D02*
X99678960Y-44510130D01*
X99678960Y-44510130D02*
X100250388Y-45081559D01*
X100250388Y-45081559D02*
X99631341Y-45081559D01*
X98488484Y-44033940D02*
X99345626Y-45319654D01*
X97964674Y-44081559D02*
X97869436Y-44081559D01*
X97869436Y-44081559D02*
X97774198Y-44129178D01*
X97774198Y-44129178D02*
X97726579Y-44176797D01*
X97726579Y-44176797D02*
X97678960Y-44272035D01*
X97678960Y-44272035D02*
X97631341Y-44462511D01*
X97631341Y-44462511D02*
X97631341Y-44700606D01*
X97631341Y-44700606D02*
X97678960Y-44891082D01*
X97678960Y-44891082D02*
X97726579Y-44986320D01*
X97726579Y-44986320D02*
X97774198Y-45033940D01*
X97774198Y-45033940D02*
X97869436Y-45081559D01*
X97869436Y-45081559D02*
X97964674Y-45081559D01*
X97964674Y-45081559D02*
X98059912Y-45033940D01*
X98059912Y-45033940D02*
X98107531Y-44986320D01*
X98107531Y-44986320D02*
X98155150Y-44891082D01*
X98155150Y-44891082D02*
X98202769Y-44700606D01*
X98202769Y-44700606D02*
X98202769Y-44462511D01*
X98202769Y-44462511D02*
X98155150Y-44272035D01*
X98155150Y-44272035D02*
X98107531Y-44176797D01*
X98107531Y-44176797D02*
X98059912Y-44129178D01*
X98059912Y-44129178D02*
X97964674Y-44081559D01*
X96774198Y-44414892D02*
X96774198Y-45081559D01*
X97012293Y-44033940D02*
X97250388Y-44748225D01*
X97250388Y-44748225D02*
X96631341Y-44748225D01*
X95536103Y-44033940D02*
X96393245Y-45319654D01*
X95250388Y-44176797D02*
X95202769Y-44129178D01*
X95202769Y-44129178D02*
X95107531Y-44081559D01*
X95107531Y-44081559D02*
X94869436Y-44081559D01*
X94869436Y-44081559D02*
X94774198Y-44129178D01*
X94774198Y-44129178D02*
X94726579Y-44176797D01*
X94726579Y-44176797D02*
X94678960Y-44272035D01*
X94678960Y-44272035D02*
X94678960Y-44367273D01*
X94678960Y-44367273D02*
X94726579Y-44510130D01*
X94726579Y-44510130D02*
X95298007Y-45081559D01*
X95298007Y-45081559D02*
X94678960Y-45081559D01*
X93821817Y-44414892D02*
X93821817Y-45081559D01*
X94059912Y-44033940D02*
X94298007Y-44748225D01*
X94298007Y-44748225D02*
X93678960Y-44748225D01*
X90337931Y-76618615D02*
X90337931Y-75618615D01*
X90337931Y-75618615D02*
X89956979Y-75618615D01*
X89956979Y-75618615D02*
X89861741Y-75666234D01*
X89861741Y-75666234D02*
X89814122Y-75713853D01*
X89814122Y-75713853D02*
X89766503Y-75809091D01*
X89766503Y-75809091D02*
X89766503Y-75951948D01*
X89766503Y-75951948D02*
X89814122Y-76047186D01*
X89814122Y-76047186D02*
X89861741Y-76094805D01*
X89861741Y-76094805D02*
X89956979Y-76142424D01*
X89956979Y-76142424D02*
X90337931Y-76142424D01*
X89195074Y-76618615D02*
X89290312Y-76570996D01*
X89290312Y-76570996D02*
X89337931Y-76523376D01*
X89337931Y-76523376D02*
X89385550Y-76428138D01*
X89385550Y-76428138D02*
X89385550Y-76142424D01*
X89385550Y-76142424D02*
X89337931Y-76047186D01*
X89337931Y-76047186D02*
X89290312Y-75999567D01*
X89290312Y-75999567D02*
X89195074Y-75951948D01*
X89195074Y-75951948D02*
X89052217Y-75951948D01*
X89052217Y-75951948D02*
X88956979Y-75999567D01*
X88956979Y-75999567D02*
X88909360Y-76047186D01*
X88909360Y-76047186D02*
X88861741Y-76142424D01*
X88861741Y-76142424D02*
X88861741Y-76428138D01*
X88861741Y-76428138D02*
X88909360Y-76523376D01*
X88909360Y-76523376D02*
X88956979Y-76570996D01*
X88956979Y-76570996D02*
X89052217Y-76618615D01*
X89052217Y-76618615D02*
X89195074Y-76618615D01*
X88528407Y-75951948D02*
X88337931Y-76618615D01*
X88337931Y-76618615D02*
X88147455Y-76142424D01*
X88147455Y-76142424D02*
X87956979Y-76618615D01*
X87956979Y-76618615D02*
X87766503Y-75951948D01*
X87004598Y-76570996D02*
X87099836Y-76618615D01*
X87099836Y-76618615D02*
X87290312Y-76618615D01*
X87290312Y-76618615D02*
X87385550Y-76570996D01*
X87385550Y-76570996D02*
X87433169Y-76475757D01*
X87433169Y-76475757D02*
X87433169Y-76094805D01*
X87433169Y-76094805D02*
X87385550Y-75999567D01*
X87385550Y-75999567D02*
X87290312Y-75951948D01*
X87290312Y-75951948D02*
X87099836Y-75951948D01*
X87099836Y-75951948D02*
X87004598Y-75999567D01*
X87004598Y-75999567D02*
X86956979Y-76094805D01*
X86956979Y-76094805D02*
X86956979Y-76190043D01*
X86956979Y-76190043D02*
X87433169Y-76285281D01*
X86528407Y-76618615D02*
X86528407Y-75951948D01*
X86528407Y-76142424D02*
X86480788Y-76047186D01*
X86480788Y-76047186D02*
X86433169Y-75999567D01*
X86433169Y-75999567D02*
X86337931Y-75951948D01*
X86337931Y-75951948D02*
X86242693Y-75951948D01*
X90337931Y-78228559D02*
X90337931Y-77228559D01*
X90337931Y-77228559D02*
X90004598Y-77942844D01*
X90004598Y-77942844D02*
X89671265Y-77228559D01*
X89671265Y-77228559D02*
X89671265Y-78228559D01*
X88766503Y-78228559D02*
X88766503Y-77704749D01*
X88766503Y-77704749D02*
X88814122Y-77609511D01*
X88814122Y-77609511D02*
X88909360Y-77561892D01*
X88909360Y-77561892D02*
X89099836Y-77561892D01*
X89099836Y-77561892D02*
X89195074Y-77609511D01*
X88766503Y-78180940D02*
X88861741Y-78228559D01*
X88861741Y-78228559D02*
X89099836Y-78228559D01*
X89099836Y-78228559D02*
X89195074Y-78180940D01*
X89195074Y-78180940D02*
X89242693Y-78085701D01*
X89242693Y-78085701D02*
X89242693Y-77990463D01*
X89242693Y-77990463D02*
X89195074Y-77895225D01*
X89195074Y-77895225D02*
X89099836Y-77847606D01*
X89099836Y-77847606D02*
X88861741Y-77847606D01*
X88861741Y-77847606D02*
X88766503Y-77799987D01*
X88290312Y-77561892D02*
X88290312Y-78228559D01*
X88290312Y-77657130D02*
X88242693Y-77609511D01*
X88242693Y-77609511D02*
X88147455Y-77561892D01*
X88147455Y-77561892D02*
X88004598Y-77561892D01*
X88004598Y-77561892D02*
X87909360Y-77609511D01*
X87909360Y-77609511D02*
X87861741Y-77704749D01*
X87861741Y-77704749D02*
X87861741Y-78228559D01*
X86956979Y-78228559D02*
X86956979Y-77704749D01*
X86956979Y-77704749D02*
X87004598Y-77609511D01*
X87004598Y-77609511D02*
X87099836Y-77561892D01*
X87099836Y-77561892D02*
X87290312Y-77561892D01*
X87290312Y-77561892D02*
X87385550Y-77609511D01*
X86956979Y-78180940D02*
X87052217Y-78228559D01*
X87052217Y-78228559D02*
X87290312Y-78228559D01*
X87290312Y-78228559D02*
X87385550Y-78180940D01*
X87385550Y-78180940D02*
X87433169Y-78085701D01*
X87433169Y-78085701D02*
X87433169Y-77990463D01*
X87433169Y-77990463D02*
X87385550Y-77895225D01*
X87385550Y-77895225D02*
X87290312Y-77847606D01*
X87290312Y-77847606D02*
X87052217Y-77847606D01*
X87052217Y-77847606D02*
X86956979Y-77799987D01*
X86052217Y-77561892D02*
X86052217Y-78371416D01*
X86052217Y-78371416D02*
X86099836Y-78466654D01*
X86099836Y-78466654D02*
X86147455Y-78514273D01*
X86147455Y-78514273D02*
X86242693Y-78561892D01*
X86242693Y-78561892D02*
X86385550Y-78561892D01*
X86385550Y-78561892D02*
X86480788Y-78514273D01*
X86052217Y-78180940D02*
X86147455Y-78228559D01*
X86147455Y-78228559D02*
X86337931Y-78228559D01*
X86337931Y-78228559D02*
X86433169Y-78180940D01*
X86433169Y-78180940D02*
X86480788Y-78133320D01*
X86480788Y-78133320D02*
X86528407Y-78038082D01*
X86528407Y-78038082D02*
X86528407Y-77752368D01*
X86528407Y-77752368D02*
X86480788Y-77657130D01*
X86480788Y-77657130D02*
X86433169Y-77609511D01*
X86433169Y-77609511D02*
X86337931Y-77561892D01*
X86337931Y-77561892D02*
X86147455Y-77561892D01*
X86147455Y-77561892D02*
X86052217Y-77609511D01*
X85195074Y-78180940D02*
X85290312Y-78228559D01*
X85290312Y-78228559D02*
X85480788Y-78228559D01*
X85480788Y-78228559D02*
X85576026Y-78180940D01*
X85576026Y-78180940D02*
X85623645Y-78085701D01*
X85623645Y-78085701D02*
X85623645Y-77704749D01*
X85623645Y-77704749D02*
X85576026Y-77609511D01*
X85576026Y-77609511D02*
X85480788Y-77561892D01*
X85480788Y-77561892D02*
X85290312Y-77561892D01*
X85290312Y-77561892D02*
X85195074Y-77609511D01*
X85195074Y-77609511D02*
X85147455Y-77704749D01*
X85147455Y-77704749D02*
X85147455Y-77799987D01*
X85147455Y-77799987D02*
X85623645Y-77895225D01*
X84718883Y-78228559D02*
X84718883Y-77561892D01*
X84718883Y-77657130D02*
X84671264Y-77609511D01*
X84671264Y-77609511D02*
X84576026Y-77561892D01*
X84576026Y-77561892D02*
X84433169Y-77561892D01*
X84433169Y-77561892D02*
X84337931Y-77609511D01*
X84337931Y-77609511D02*
X84290312Y-77704749D01*
X84290312Y-77704749D02*
X84290312Y-78228559D01*
X84290312Y-77704749D02*
X84242693Y-77609511D01*
X84242693Y-77609511D02*
X84147455Y-77561892D01*
X84147455Y-77561892D02*
X84004598Y-77561892D01*
X84004598Y-77561892D02*
X83909359Y-77609511D01*
X83909359Y-77609511D02*
X83861740Y-77704749D01*
X83861740Y-77704749D02*
X83861740Y-78228559D01*
X83004598Y-78180940D02*
X83099836Y-78228559D01*
X83099836Y-78228559D02*
X83290312Y-78228559D01*
X83290312Y-78228559D02*
X83385550Y-78180940D01*
X83385550Y-78180940D02*
X83433169Y-78085701D01*
X83433169Y-78085701D02*
X83433169Y-77704749D01*
X83433169Y-77704749D02*
X83385550Y-77609511D01*
X83385550Y-77609511D02*
X83290312Y-77561892D01*
X83290312Y-77561892D02*
X83099836Y-77561892D01*
X83099836Y-77561892D02*
X83004598Y-77609511D01*
X83004598Y-77609511D02*
X82956979Y-77704749D01*
X82956979Y-77704749D02*
X82956979Y-77799987D01*
X82956979Y-77799987D02*
X83433169Y-77895225D01*
X82528407Y-77561892D02*
X82528407Y-78228559D01*
X82528407Y-77657130D02*
X82480788Y-77609511D01*
X82480788Y-77609511D02*
X82385550Y-77561892D01*
X82385550Y-77561892D02*
X82242693Y-77561892D01*
X82242693Y-77561892D02*
X82147455Y-77609511D01*
X82147455Y-77609511D02*
X82099836Y-77704749D01*
X82099836Y-77704749D02*
X82099836Y-78228559D01*
X81766502Y-77561892D02*
X81385550Y-77561892D01*
X81623645Y-77228559D02*
X81623645Y-78085701D01*
X81623645Y-78085701D02*
X81576026Y-78180940D01*
X81576026Y-78180940D02*
X81480788Y-78228559D01*
X81480788Y-78228559D02*
X81385550Y-78228559D01*
X91646103Y-45081559D02*
X91979436Y-44605368D01*
X92217531Y-45081559D02*
X92217531Y-44081559D01*
X92217531Y-44081559D02*
X91836579Y-44081559D01*
X91836579Y-44081559D02*
X91741341Y-44129178D01*
X91741341Y-44129178D02*
X91693722Y-44176797D01*
X91693722Y-44176797D02*
X91646103Y-44272035D01*
X91646103Y-44272035D02*
X91646103Y-44414892D01*
X91646103Y-44414892D02*
X91693722Y-44510130D01*
X91693722Y-44510130D02*
X91741341Y-44557749D01*
X91741341Y-44557749D02*
X91836579Y-44605368D01*
X91836579Y-44605368D02*
X92217531Y-44605368D01*
X91217531Y-44557749D02*
X90884198Y-44557749D01*
X90741341Y-45081559D02*
X91217531Y-45081559D01*
X91217531Y-45081559D02*
X91217531Y-44081559D01*
X91217531Y-44081559D02*
X90741341Y-44081559D01*
X90455626Y-44081559D02*
X90122293Y-45081559D01*
X90122293Y-45081559D02*
X89788960Y-44081559D01*
X89455626Y-44986320D02*
X89408007Y-45033940D01*
X89408007Y-45033940D02*
X89455626Y-45081559D01*
X89455626Y-45081559D02*
X89503245Y-45033940D01*
X89503245Y-45033940D02*
X89455626Y-44986320D01*
X89455626Y-44986320D02*
X89455626Y-45081559D01*
X89455626Y-44462511D02*
X89408007Y-44510130D01*
X89408007Y-44510130D02*
X89455626Y-44557749D01*
X89455626Y-44557749D02*
X89503245Y-44510130D01*
X89503245Y-44510130D02*
X89455626Y-44462511D01*
X89455626Y-44462511D02*
X89455626Y-44557749D01*
X87884198Y-44557749D02*
X87741341Y-44605368D01*
X87741341Y-44605368D02*
X87693722Y-44652987D01*
X87693722Y-44652987D02*
X87646103Y-44748225D01*
X87646103Y-44748225D02*
X87646103Y-44891082D01*
X87646103Y-44891082D02*
X87693722Y-44986320D01*
X87693722Y-44986320D02*
X87741341Y-45033940D01*
X87741341Y-45033940D02*
X87836579Y-45081559D01*
X87836579Y-45081559D02*
X88217531Y-45081559D01*
X88217531Y-45081559D02*
X88217531Y-44081559D01*
X88217531Y-44081559D02*
X87884198Y-44081559D01*
X87884198Y-44081559D02*
X87788960Y-44129178D01*
X87788960Y-44129178D02*
X87741341Y-44176797D01*
X87741341Y-44176797D02*
X87693722Y-44272035D01*
X87693722Y-44272035D02*
X87693722Y-44367273D01*
X87693722Y-44367273D02*
X87741341Y-44462511D01*
X87741341Y-44462511D02*
X87788960Y-44510130D01*
X87788960Y-44510130D02*
X87884198Y-44557749D01*
X87884198Y-44557749D02*
X88217531Y-44557749D01*
X116950904Y-75257559D02*
X116950904Y-74257559D01*
X116474714Y-75257559D02*
X116474714Y-74257559D01*
X116474714Y-74257559D02*
X115903286Y-75257559D01*
X115903286Y-75257559D02*
X115903286Y-74257559D01*
X115569952Y-74257559D02*
X114998524Y-74257559D01*
X115284238Y-75257559D02*
X115284238Y-74257559D01*
X114903286Y-75352797D02*
X114141381Y-75352797D01*
X113379476Y-75257559D02*
X113950904Y-75257559D01*
X113665190Y-75257559D02*
X113665190Y-74257559D01*
X113665190Y-74257559D02*
X113760428Y-74400416D01*
X113760428Y-74400416D02*
X113855666Y-74495654D01*
X113855666Y-74495654D02*
X113950904Y-74543273D01*
X79879759Y-60206048D02*
X78879759Y-60206048D01*
X78879759Y-60206048D02*
X78879759Y-60444143D01*
X78879759Y-60444143D02*
X78927378Y-60587000D01*
X78927378Y-60587000D02*
X79022616Y-60682238D01*
X79022616Y-60682238D02*
X79117854Y-60729857D01*
X79117854Y-60729857D02*
X79308330Y-60777476D01*
X79308330Y-60777476D02*
X79451187Y-60777476D01*
X79451187Y-60777476D02*
X79641663Y-60729857D01*
X79641663Y-60729857D02*
X79736901Y-60682238D01*
X79736901Y-60682238D02*
X79832140Y-60587000D01*
X79832140Y-60587000D02*
X79879759Y-60444143D01*
X79879759Y-60444143D02*
X79879759Y-60206048D01*
X79498806Y-61206048D02*
X79498806Y-61967953D01*
X79879759Y-61587000D02*
X79117854Y-61587000D01*
X85989178Y-65151095D02*
X85941559Y-65055857D01*
X85941559Y-65055857D02*
X85941559Y-64913000D01*
X85941559Y-64913000D02*
X85989178Y-64770143D01*
X85989178Y-64770143D02*
X86084416Y-64674905D01*
X86084416Y-64674905D02*
X86179654Y-64627286D01*
X86179654Y-64627286D02*
X86370130Y-64579667D01*
X86370130Y-64579667D02*
X86512987Y-64579667D01*
X86512987Y-64579667D02*
X86703463Y-64627286D01*
X86703463Y-64627286D02*
X86798701Y-64674905D01*
X86798701Y-64674905D02*
X86893940Y-64770143D01*
X86893940Y-64770143D02*
X86941559Y-64913000D01*
X86941559Y-64913000D02*
X86941559Y-65008238D01*
X86941559Y-65008238D02*
X86893940Y-65151095D01*
X86893940Y-65151095D02*
X86846320Y-65198714D01*
X86846320Y-65198714D02*
X86512987Y-65198714D01*
X86512987Y-65198714D02*
X86512987Y-65008238D01*
X86941559Y-65627286D02*
X85941559Y-65627286D01*
X85941559Y-65627286D02*
X86941559Y-66198714D01*
X86941559Y-66198714D02*
X85941559Y-66198714D01*
X86941559Y-66674905D02*
X85941559Y-66674905D01*
X85941559Y-66674905D02*
X85941559Y-66913000D01*
X85941559Y-66913000D02*
X85989178Y-67055857D01*
X85989178Y-67055857D02*
X86084416Y-67151095D01*
X86084416Y-67151095D02*
X86179654Y-67198714D01*
X86179654Y-67198714D02*
X86370130Y-67246333D01*
X86370130Y-67246333D02*
X86512987Y-67246333D01*
X86512987Y-67246333D02*
X86703463Y-67198714D01*
X86703463Y-67198714D02*
X86798701Y-67151095D01*
X86798701Y-67151095D02*
X86893940Y-67055857D01*
X86893940Y-67055857D02*
X86941559Y-66913000D01*
X86941559Y-66913000D02*
X86941559Y-66674905D01*
X111579559Y-39433905D02*
X110579559Y-39433905D01*
X110674797Y-39862476D02*
X110627178Y-39910095D01*
X110627178Y-39910095D02*
X110579559Y-40005333D01*
X110579559Y-40005333D02*
X110579559Y-40243428D01*
X110579559Y-40243428D02*
X110627178Y-40338666D01*
X110627178Y-40338666D02*
X110674797Y-40386285D01*
X110674797Y-40386285D02*
X110770035Y-40433904D01*
X110770035Y-40433904D02*
X110865273Y-40433904D01*
X110865273Y-40433904D02*
X111008130Y-40386285D01*
X111008130Y-40386285D02*
X111579559Y-39814857D01*
X111579559Y-39814857D02*
X111579559Y-40433904D01*
X111484320Y-41433904D02*
X111531940Y-41386285D01*
X111531940Y-41386285D02*
X111579559Y-41243428D01*
X111579559Y-41243428D02*
X111579559Y-41148190D01*
X111579559Y-41148190D02*
X111531940Y-41005333D01*
X111531940Y-41005333D02*
X111436701Y-40910095D01*
X111436701Y-40910095D02*
X111341463Y-40862476D01*
X111341463Y-40862476D02*
X111150987Y-40814857D01*
X111150987Y-40814857D02*
X111008130Y-40814857D01*
X111008130Y-40814857D02*
X110817654Y-40862476D01*
X110817654Y-40862476D02*
X110722416Y-40910095D01*
X110722416Y-40910095D02*
X110627178Y-41005333D01*
X110627178Y-41005333D02*
X110579559Y-41148190D01*
X110579559Y-41148190D02*
X110579559Y-41243428D01*
X110579559Y-41243428D02*
X110627178Y-41386285D01*
X110627178Y-41386285D02*
X110674797Y-41433904D01*
X110579559Y-42052952D02*
X110579559Y-42148190D01*
X110579559Y-42148190D02*
X110627178Y-42243428D01*
X110627178Y-42243428D02*
X110674797Y-42291047D01*
X110674797Y-42291047D02*
X110770035Y-42338666D01*
X110770035Y-42338666D02*
X110960511Y-42386285D01*
X110960511Y-42386285D02*
X111198606Y-42386285D01*
X111198606Y-42386285D02*
X111389082Y-42338666D01*
X111389082Y-42338666D02*
X111484320Y-42291047D01*
X111484320Y-42291047D02*
X111531940Y-42243428D01*
X111531940Y-42243428D02*
X111579559Y-42148190D01*
X111579559Y-42148190D02*
X111579559Y-42052952D01*
X111579559Y-42052952D02*
X111531940Y-41957714D01*
X111531940Y-41957714D02*
X111484320Y-41910095D01*
X111484320Y-41910095D02*
X111389082Y-41862476D01*
X111389082Y-41862476D02*
X111198606Y-41814857D01*
X111198606Y-41814857D02*
X110960511Y-41814857D01*
X110960511Y-41814857D02*
X110770035Y-41862476D01*
X110770035Y-41862476D02*
X110674797Y-41910095D01*
X110674797Y-41910095D02*
X110627178Y-41957714D01*
X110627178Y-41957714D02*
X110579559Y-42052952D01*
X111674797Y-42576762D02*
X111674797Y-43338666D01*
X111531940Y-43529143D02*
X111579559Y-43672000D01*
X111579559Y-43672000D02*
X111579559Y-43910095D01*
X111579559Y-43910095D02*
X111531940Y-44005333D01*
X111531940Y-44005333D02*
X111484320Y-44052952D01*
X111484320Y-44052952D02*
X111389082Y-44100571D01*
X111389082Y-44100571D02*
X111293844Y-44100571D01*
X111293844Y-44100571D02*
X111198606Y-44052952D01*
X111198606Y-44052952D02*
X111150987Y-44005333D01*
X111150987Y-44005333D02*
X111103368Y-43910095D01*
X111103368Y-43910095D02*
X111055749Y-43719619D01*
X111055749Y-43719619D02*
X111008130Y-43624381D01*
X111008130Y-43624381D02*
X110960511Y-43576762D01*
X110960511Y-43576762D02*
X110865273Y-43529143D01*
X110865273Y-43529143D02*
X110770035Y-43529143D01*
X110770035Y-43529143D02*
X110674797Y-43576762D01*
X110674797Y-43576762D02*
X110627178Y-43624381D01*
X110627178Y-43624381D02*
X110579559Y-43719619D01*
X110579559Y-43719619D02*
X110579559Y-43957714D01*
X110579559Y-43957714D02*
X110627178Y-44100571D01*
X111579559Y-44529143D02*
X110579559Y-44529143D01*
X110579559Y-44529143D02*
X110579559Y-44767238D01*
X110579559Y-44767238D02*
X110627178Y-44910095D01*
X110627178Y-44910095D02*
X110722416Y-45005333D01*
X110722416Y-45005333D02*
X110817654Y-45052952D01*
X110817654Y-45052952D02*
X111008130Y-45100571D01*
X111008130Y-45100571D02*
X111150987Y-45100571D01*
X111150987Y-45100571D02*
X111341463Y-45052952D01*
X111341463Y-45052952D02*
X111436701Y-45005333D01*
X111436701Y-45005333D02*
X111531940Y-44910095D01*
X111531940Y-44910095D02*
X111579559Y-44767238D01*
X111579559Y-44767238D02*
X111579559Y-44529143D01*
X111293844Y-45481524D02*
X111293844Y-45957714D01*
X111579559Y-45386286D02*
X110579559Y-45719619D01*
X110579559Y-45719619D02*
X111579559Y-46052952D01*
X87312559Y-53284809D02*
X88122082Y-53284809D01*
X88122082Y-53284809D02*
X88217320Y-53332428D01*
X88217320Y-53332428D02*
X88264940Y-53380047D01*
X88264940Y-53380047D02*
X88312559Y-53475285D01*
X88312559Y-53475285D02*
X88312559Y-53665761D01*
X88312559Y-53665761D02*
X88264940Y-53760999D01*
X88264940Y-53760999D02*
X88217320Y-53808618D01*
X88217320Y-53808618D02*
X88122082Y-53856237D01*
X88122082Y-53856237D02*
X87312559Y-53856237D01*
X88264940Y-54284809D02*
X88312559Y-54427666D01*
X88312559Y-54427666D02*
X88312559Y-54665761D01*
X88312559Y-54665761D02*
X88264940Y-54760999D01*
X88264940Y-54760999D02*
X88217320Y-54808618D01*
X88217320Y-54808618D02*
X88122082Y-54856237D01*
X88122082Y-54856237D02*
X88026844Y-54856237D01*
X88026844Y-54856237D02*
X87931606Y-54808618D01*
X87931606Y-54808618D02*
X87883987Y-54760999D01*
X87883987Y-54760999D02*
X87836368Y-54665761D01*
X87836368Y-54665761D02*
X87788749Y-54475285D01*
X87788749Y-54475285D02*
X87741130Y-54380047D01*
X87741130Y-54380047D02*
X87693511Y-54332428D01*
X87693511Y-54332428D02*
X87598273Y-54284809D01*
X87598273Y-54284809D02*
X87503035Y-54284809D01*
X87503035Y-54284809D02*
X87407797Y-54332428D01*
X87407797Y-54332428D02*
X87360178Y-54380047D01*
X87360178Y-54380047D02*
X87312559Y-54475285D01*
X87312559Y-54475285D02*
X87312559Y-54713380D01*
X87312559Y-54713380D02*
X87360178Y-54856237D01*
X87788749Y-55618142D02*
X87836368Y-55760999D01*
X87836368Y-55760999D02*
X87883987Y-55808618D01*
X87883987Y-55808618D02*
X87979225Y-55856237D01*
X87979225Y-55856237D02*
X88122082Y-55856237D01*
X88122082Y-55856237D02*
X88217320Y-55808618D01*
X88217320Y-55808618D02*
X88264940Y-55760999D01*
X88264940Y-55760999D02*
X88312559Y-55665761D01*
X88312559Y-55665761D02*
X88312559Y-55284809D01*
X88312559Y-55284809D02*
X87312559Y-55284809D01*
X87312559Y-55284809D02*
X87312559Y-55618142D01*
X87312559Y-55618142D02*
X87360178Y-55713380D01*
X87360178Y-55713380D02*
X87407797Y-55760999D01*
X87407797Y-55760999D02*
X87503035Y-55808618D01*
X87503035Y-55808618D02*
X87598273Y-55808618D01*
X87598273Y-55808618D02*
X87693511Y-55760999D01*
X87693511Y-55760999D02*
X87741130Y-55713380D01*
X87741130Y-55713380D02*
X87788749Y-55618142D01*
X87788749Y-55618142D02*
X87788749Y-55284809D01*
X88407797Y-56046714D02*
X88407797Y-56808618D01*
X88312559Y-57046714D02*
X87312559Y-57046714D01*
X87312559Y-57046714D02*
X87312559Y-57284809D01*
X87312559Y-57284809D02*
X87360178Y-57427666D01*
X87360178Y-57427666D02*
X87455416Y-57522904D01*
X87455416Y-57522904D02*
X87550654Y-57570523D01*
X87550654Y-57570523D02*
X87741130Y-57618142D01*
X87741130Y-57618142D02*
X87883987Y-57618142D01*
X87883987Y-57618142D02*
X88074463Y-57570523D01*
X88074463Y-57570523D02*
X88169701Y-57522904D01*
X88169701Y-57522904D02*
X88264940Y-57427666D01*
X88264940Y-57427666D02*
X88312559Y-57284809D01*
X88312559Y-57284809D02*
X88312559Y-57046714D01*
X87788749Y-58046714D02*
X87788749Y-58380047D01*
X88312559Y-58522904D02*
X88312559Y-58046714D01*
X88312559Y-58046714D02*
X87312559Y-58046714D01*
X87312559Y-58046714D02*
X87312559Y-58522904D01*
X87312559Y-58808619D02*
X87312559Y-59380047D01*
X88312559Y-59094333D02*
X87312559Y-59094333D01*
X85947094Y-69431559D02*
X85328047Y-69431559D01*
X85328047Y-69431559D02*
X85661380Y-69812511D01*
X85661380Y-69812511D02*
X85518523Y-69812511D01*
X85518523Y-69812511D02*
X85423285Y-69860130D01*
X85423285Y-69860130D02*
X85375666Y-69907749D01*
X85375666Y-69907749D02*
X85328047Y-70002987D01*
X85328047Y-70002987D02*
X85328047Y-70241082D01*
X85328047Y-70241082D02*
X85375666Y-70336320D01*
X85375666Y-70336320D02*
X85423285Y-70383940D01*
X85423285Y-70383940D02*
X85518523Y-70431559D01*
X85518523Y-70431559D02*
X85804237Y-70431559D01*
X85804237Y-70431559D02*
X85899475Y-70383940D01*
X85899475Y-70383940D02*
X85947094Y-70336320D01*
X85042332Y-69431559D02*
X84708999Y-70431559D01*
X84708999Y-70431559D02*
X84375666Y-69431559D01*
X84137570Y-69431559D02*
X83518523Y-69431559D01*
X83518523Y-69431559D02*
X83851856Y-69812511D01*
X83851856Y-69812511D02*
X83708999Y-69812511D01*
X83708999Y-69812511D02*
X83613761Y-69860130D01*
X83613761Y-69860130D02*
X83566142Y-69907749D01*
X83566142Y-69907749D02*
X83518523Y-70002987D01*
X83518523Y-70002987D02*
X83518523Y-70241082D01*
X83518523Y-70241082D02*
X83566142Y-70336320D01*
X83566142Y-70336320D02*
X83613761Y-70383940D01*
X83613761Y-70383940D02*
X83708999Y-70431559D01*
X83708999Y-70431559D02*
X83994713Y-70431559D01*
X83994713Y-70431559D02*
X84089951Y-70383940D01*
X84089951Y-70383940D02*
X84137570Y-70336320D01*
X103609428Y-74130559D02*
X103609428Y-74940082D01*
X103609428Y-74940082D02*
X103561809Y-75035320D01*
X103561809Y-75035320D02*
X103514190Y-75082940D01*
X103514190Y-75082940D02*
X103418952Y-75130559D01*
X103418952Y-75130559D02*
X103228476Y-75130559D01*
X103228476Y-75130559D02*
X103133238Y-75082940D01*
X103133238Y-75082940D02*
X103085619Y-75035320D01*
X103085619Y-75035320D02*
X103038000Y-74940082D01*
X103038000Y-74940082D02*
X103038000Y-74130559D01*
X102609428Y-75082940D02*
X102466571Y-75130559D01*
X102466571Y-75130559D02*
X102228476Y-75130559D01*
X102228476Y-75130559D02*
X102133238Y-75082940D01*
X102133238Y-75082940D02*
X102085619Y-75035320D01*
X102085619Y-75035320D02*
X102038000Y-74940082D01*
X102038000Y-74940082D02*
X102038000Y-74844844D01*
X102038000Y-74844844D02*
X102085619Y-74749606D01*
X102085619Y-74749606D02*
X102133238Y-74701987D01*
X102133238Y-74701987D02*
X102228476Y-74654368D01*
X102228476Y-74654368D02*
X102418952Y-74606749D01*
X102418952Y-74606749D02*
X102514190Y-74559130D01*
X102514190Y-74559130D02*
X102561809Y-74511511D01*
X102561809Y-74511511D02*
X102609428Y-74416273D01*
X102609428Y-74416273D02*
X102609428Y-74321035D01*
X102609428Y-74321035D02*
X102561809Y-74225797D01*
X102561809Y-74225797D02*
X102514190Y-74178178D01*
X102514190Y-74178178D02*
X102418952Y-74130559D01*
X102418952Y-74130559D02*
X102180857Y-74130559D01*
X102180857Y-74130559D02*
X102038000Y-74178178D01*
X101276095Y-74606749D02*
X101133238Y-74654368D01*
X101133238Y-74654368D02*
X101085619Y-74701987D01*
X101085619Y-74701987D02*
X101038000Y-74797225D01*
X101038000Y-74797225D02*
X101038000Y-74940082D01*
X101038000Y-74940082D02*
X101085619Y-75035320D01*
X101085619Y-75035320D02*
X101133238Y-75082940D01*
X101133238Y-75082940D02*
X101228476Y-75130559D01*
X101228476Y-75130559D02*
X101609428Y-75130559D01*
X101609428Y-75130559D02*
X101609428Y-74130559D01*
X101609428Y-74130559D02*
X101276095Y-74130559D01*
X101276095Y-74130559D02*
X101180857Y-74178178D01*
X101180857Y-74178178D02*
X101133238Y-74225797D01*
X101133238Y-74225797D02*
X101085619Y-74321035D01*
X101085619Y-74321035D02*
X101085619Y-74416273D01*
X101085619Y-74416273D02*
X101133238Y-74511511D01*
X101133238Y-74511511D02*
X101180857Y-74559130D01*
X101180857Y-74559130D02*
X101276095Y-74606749D01*
X101276095Y-74606749D02*
X101609428Y-74606749D01*
X100847524Y-75225797D02*
X100085619Y-75225797D01*
X99514190Y-74606749D02*
X99371333Y-74654368D01*
X99371333Y-74654368D02*
X99323714Y-74701987D01*
X99323714Y-74701987D02*
X99276095Y-74797225D01*
X99276095Y-74797225D02*
X99276095Y-74940082D01*
X99276095Y-74940082D02*
X99323714Y-75035320D01*
X99323714Y-75035320D02*
X99371333Y-75082940D01*
X99371333Y-75082940D02*
X99466571Y-75130559D01*
X99466571Y-75130559D02*
X99847523Y-75130559D01*
X99847523Y-75130559D02*
X99847523Y-74130559D01*
X99847523Y-74130559D02*
X99514190Y-74130559D01*
X99514190Y-74130559D02*
X99418952Y-74178178D01*
X99418952Y-74178178D02*
X99371333Y-74225797D01*
X99371333Y-74225797D02*
X99323714Y-74321035D01*
X99323714Y-74321035D02*
X99323714Y-74416273D01*
X99323714Y-74416273D02*
X99371333Y-74511511D01*
X99371333Y-74511511D02*
X99418952Y-74559130D01*
X99418952Y-74559130D02*
X99514190Y-74606749D01*
X99514190Y-74606749D02*
X99847523Y-74606749D01*
X98657047Y-74130559D02*
X98466571Y-74130559D01*
X98466571Y-74130559D02*
X98371333Y-74178178D01*
X98371333Y-74178178D02*
X98276095Y-74273416D01*
X98276095Y-74273416D02*
X98228476Y-74463892D01*
X98228476Y-74463892D02*
X98228476Y-74797225D01*
X98228476Y-74797225D02*
X98276095Y-74987701D01*
X98276095Y-74987701D02*
X98371333Y-75082940D01*
X98371333Y-75082940D02*
X98466571Y-75130559D01*
X98466571Y-75130559D02*
X98657047Y-75130559D01*
X98657047Y-75130559D02*
X98752285Y-75082940D01*
X98752285Y-75082940D02*
X98847523Y-74987701D01*
X98847523Y-74987701D02*
X98895142Y-74797225D01*
X98895142Y-74797225D02*
X98895142Y-74463892D01*
X98895142Y-74463892D02*
X98847523Y-74273416D01*
X98847523Y-74273416D02*
X98752285Y-74178178D01*
X98752285Y-74178178D02*
X98657047Y-74130559D01*
X97609428Y-74130559D02*
X97418952Y-74130559D01*
X97418952Y-74130559D02*
X97323714Y-74178178D01*
X97323714Y-74178178D02*
X97228476Y-74273416D01*
X97228476Y-74273416D02*
X97180857Y-74463892D01*
X97180857Y-74463892D02*
X97180857Y-74797225D01*
X97180857Y-74797225D02*
X97228476Y-74987701D01*
X97228476Y-74987701D02*
X97323714Y-75082940D01*
X97323714Y-75082940D02*
X97418952Y-75130559D01*
X97418952Y-75130559D02*
X97609428Y-75130559D01*
X97609428Y-75130559D02*
X97704666Y-75082940D01*
X97704666Y-75082940D02*
X97799904Y-74987701D01*
X97799904Y-74987701D02*
X97847523Y-74797225D01*
X97847523Y-74797225D02*
X97847523Y-74463892D01*
X97847523Y-74463892D02*
X97799904Y-74273416D01*
X97799904Y-74273416D02*
X97704666Y-74178178D01*
X97704666Y-74178178D02*
X97609428Y-74130559D01*
X96895142Y-74130559D02*
X96323714Y-74130559D01*
X96609428Y-75130559D02*
X96609428Y-74130559D01*
X79879759Y-55634048D02*
X78879759Y-55634048D01*
X78879759Y-55634048D02*
X78879759Y-55872143D01*
X78879759Y-55872143D02*
X78927378Y-56015000D01*
X78927378Y-56015000D02*
X79022616Y-56110238D01*
X79022616Y-56110238D02*
X79117854Y-56157857D01*
X79117854Y-56157857D02*
X79308330Y-56205476D01*
X79308330Y-56205476D02*
X79451187Y-56205476D01*
X79451187Y-56205476D02*
X79641663Y-56157857D01*
X79641663Y-56157857D02*
X79736901Y-56110238D01*
X79736901Y-56110238D02*
X79832140Y-56015000D01*
X79832140Y-56015000D02*
X79879759Y-55872143D01*
X79879759Y-55872143D02*
X79879759Y-55634048D01*
X79498806Y-56634048D02*
X79498806Y-57395953D01*
X122721619Y-48486559D02*
X123054952Y-48010368D01*
X123293047Y-48486559D02*
X123293047Y-47486559D01*
X123293047Y-47486559D02*
X122912095Y-47486559D01*
X122912095Y-47486559D02*
X122816857Y-47534178D01*
X122816857Y-47534178D02*
X122769238Y-47581797D01*
X122769238Y-47581797D02*
X122721619Y-47677035D01*
X122721619Y-47677035D02*
X122721619Y-47819892D01*
X122721619Y-47819892D02*
X122769238Y-47915130D01*
X122769238Y-47915130D02*
X122816857Y-47962749D01*
X122816857Y-47962749D02*
X122912095Y-48010368D01*
X122912095Y-48010368D02*
X123293047Y-48010368D01*
X122340666Y-48438940D02*
X122197809Y-48486559D01*
X122197809Y-48486559D02*
X121959714Y-48486559D01*
X121959714Y-48486559D02*
X121864476Y-48438940D01*
X121864476Y-48438940D02*
X121816857Y-48391320D01*
X121816857Y-48391320D02*
X121769238Y-48296082D01*
X121769238Y-48296082D02*
X121769238Y-48200844D01*
X121769238Y-48200844D02*
X121816857Y-48105606D01*
X121816857Y-48105606D02*
X121864476Y-48057987D01*
X121864476Y-48057987D02*
X121959714Y-48010368D01*
X121959714Y-48010368D02*
X122150190Y-47962749D01*
X122150190Y-47962749D02*
X122245428Y-47915130D01*
X122245428Y-47915130D02*
X122293047Y-47867511D01*
X122293047Y-47867511D02*
X122340666Y-47772273D01*
X122340666Y-47772273D02*
X122340666Y-47677035D01*
X122340666Y-47677035D02*
X122293047Y-47581797D01*
X122293047Y-47581797D02*
X122245428Y-47534178D01*
X122245428Y-47534178D02*
X122150190Y-47486559D01*
X122150190Y-47486559D02*
X121912095Y-47486559D01*
X121912095Y-47486559D02*
X121769238Y-47534178D01*
X121483523Y-47486559D02*
X120912095Y-47486559D01*
X121197809Y-48486559D02*
X121197809Y-47486559D01*
X119951094Y-77797559D02*
X119951094Y-76797559D01*
X119522523Y-76892797D02*
X119474904Y-76845178D01*
X119474904Y-76845178D02*
X119379666Y-76797559D01*
X119379666Y-76797559D02*
X119141571Y-76797559D01*
X119141571Y-76797559D02*
X119046333Y-76845178D01*
X119046333Y-76845178D02*
X118998714Y-76892797D01*
X118998714Y-76892797D02*
X118951095Y-76988035D01*
X118951095Y-76988035D02*
X118951095Y-77083273D01*
X118951095Y-77083273D02*
X118998714Y-77226130D01*
X118998714Y-77226130D02*
X119570142Y-77797559D01*
X119570142Y-77797559D02*
X118951095Y-77797559D01*
X117951095Y-77702320D02*
X117998714Y-77749940D01*
X117998714Y-77749940D02*
X118141571Y-77797559D01*
X118141571Y-77797559D02*
X118236809Y-77797559D01*
X118236809Y-77797559D02*
X118379666Y-77749940D01*
X118379666Y-77749940D02*
X118474904Y-77654701D01*
X118474904Y-77654701D02*
X118522523Y-77559463D01*
X118522523Y-77559463D02*
X118570142Y-77368987D01*
X118570142Y-77368987D02*
X118570142Y-77226130D01*
X118570142Y-77226130D02*
X118522523Y-77035654D01*
X118522523Y-77035654D02*
X118474904Y-76940416D01*
X118474904Y-76940416D02*
X118379666Y-76845178D01*
X118379666Y-76845178D02*
X118236809Y-76797559D01*
X118236809Y-76797559D02*
X118141571Y-76797559D01*
X118141571Y-76797559D02*
X117998714Y-76845178D01*
X117998714Y-76845178D02*
X117951095Y-76892797D01*
X116998714Y-77797559D02*
X117570142Y-77797559D01*
X117284428Y-77797559D02*
X117284428Y-76797559D01*
X117284428Y-76797559D02*
X117379666Y-76940416D01*
X117379666Y-76940416D02*
X117474904Y-77035654D01*
X117474904Y-77035654D02*
X117570142Y-77083273D01*
X116808238Y-77892797D02*
X116046333Y-77892797D01*
X115855856Y-77749940D02*
X115712999Y-77797559D01*
X115712999Y-77797559D02*
X115474904Y-77797559D01*
X115474904Y-77797559D02*
X115379666Y-77749940D01*
X115379666Y-77749940D02*
X115332047Y-77702320D01*
X115332047Y-77702320D02*
X115284428Y-77607082D01*
X115284428Y-77607082D02*
X115284428Y-77511844D01*
X115284428Y-77511844D02*
X115332047Y-77416606D01*
X115332047Y-77416606D02*
X115379666Y-77368987D01*
X115379666Y-77368987D02*
X115474904Y-77321368D01*
X115474904Y-77321368D02*
X115665380Y-77273749D01*
X115665380Y-77273749D02*
X115760618Y-77226130D01*
X115760618Y-77226130D02*
X115808237Y-77178511D01*
X115808237Y-77178511D02*
X115855856Y-77083273D01*
X115855856Y-77083273D02*
X115855856Y-76988035D01*
X115855856Y-76988035D02*
X115808237Y-76892797D01*
X115808237Y-76892797D02*
X115760618Y-76845178D01*
X115760618Y-76845178D02*
X115665380Y-76797559D01*
X115665380Y-76797559D02*
X115427285Y-76797559D01*
X115427285Y-76797559D02*
X115284428Y-76845178D01*
X114855856Y-77797559D02*
X114855856Y-76797559D01*
X114855856Y-76797559D02*
X114617761Y-76797559D01*
X114617761Y-76797559D02*
X114474904Y-76845178D01*
X114474904Y-76845178D02*
X114379666Y-76940416D01*
X114379666Y-76940416D02*
X114332047Y-77035654D01*
X114332047Y-77035654D02*
X114284428Y-77226130D01*
X114284428Y-77226130D02*
X114284428Y-77368987D01*
X114284428Y-77368987D02*
X114332047Y-77559463D01*
X114332047Y-77559463D02*
X114379666Y-77654701D01*
X114379666Y-77654701D02*
X114474904Y-77749940D01*
X114474904Y-77749940D02*
X114617761Y-77797559D01*
X114617761Y-77797559D02*
X114855856Y-77797559D01*
X113903475Y-77511844D02*
X113427285Y-77511844D01*
X113998713Y-77797559D02*
X113665380Y-76797559D01*
X113665380Y-76797559D02*
X113332047Y-77797559D01*
X119927285Y-72844559D02*
X119927285Y-71844559D01*
X119498714Y-71939797D02*
X119451095Y-71892178D01*
X119451095Y-71892178D02*
X119355857Y-71844559D01*
X119355857Y-71844559D02*
X119117762Y-71844559D01*
X119117762Y-71844559D02*
X119022524Y-71892178D01*
X119022524Y-71892178D02*
X118974905Y-71939797D01*
X118974905Y-71939797D02*
X118927286Y-72035035D01*
X118927286Y-72035035D02*
X118927286Y-72130273D01*
X118927286Y-72130273D02*
X118974905Y-72273130D01*
X118974905Y-72273130D02*
X119546333Y-72844559D01*
X119546333Y-72844559D02*
X118927286Y-72844559D01*
X117927286Y-72749320D02*
X117974905Y-72796940D01*
X117974905Y-72796940D02*
X118117762Y-72844559D01*
X118117762Y-72844559D02*
X118213000Y-72844559D01*
X118213000Y-72844559D02*
X118355857Y-72796940D01*
X118355857Y-72796940D02*
X118451095Y-72701701D01*
X118451095Y-72701701D02*
X118498714Y-72606463D01*
X118498714Y-72606463D02*
X118546333Y-72415987D01*
X118546333Y-72415987D02*
X118546333Y-72273130D01*
X118546333Y-72273130D02*
X118498714Y-72082654D01*
X118498714Y-72082654D02*
X118451095Y-71987416D01*
X118451095Y-71987416D02*
X118355857Y-71892178D01*
X118355857Y-71892178D02*
X118213000Y-71844559D01*
X118213000Y-71844559D02*
X118117762Y-71844559D01*
X118117762Y-71844559D02*
X117974905Y-71892178D01*
X117974905Y-71892178D02*
X117927286Y-71939797D01*
X116974905Y-72844559D02*
X117546333Y-72844559D01*
X117260619Y-72844559D02*
X117260619Y-71844559D01*
X117260619Y-71844559D02*
X117355857Y-71987416D01*
X117355857Y-71987416D02*
X117451095Y-72082654D01*
X117451095Y-72082654D02*
X117546333Y-72130273D01*
X116784429Y-72939797D02*
X116022524Y-72939797D01*
X115832047Y-72796940D02*
X115689190Y-72844559D01*
X115689190Y-72844559D02*
X115451095Y-72844559D01*
X115451095Y-72844559D02*
X115355857Y-72796940D01*
X115355857Y-72796940D02*
X115308238Y-72749320D01*
X115308238Y-72749320D02*
X115260619Y-72654082D01*
X115260619Y-72654082D02*
X115260619Y-72558844D01*
X115260619Y-72558844D02*
X115308238Y-72463606D01*
X115308238Y-72463606D02*
X115355857Y-72415987D01*
X115355857Y-72415987D02*
X115451095Y-72368368D01*
X115451095Y-72368368D02*
X115641571Y-72320749D01*
X115641571Y-72320749D02*
X115736809Y-72273130D01*
X115736809Y-72273130D02*
X115784428Y-72225511D01*
X115784428Y-72225511D02*
X115832047Y-72130273D01*
X115832047Y-72130273D02*
X115832047Y-72035035D01*
X115832047Y-72035035D02*
X115784428Y-71939797D01*
X115784428Y-71939797D02*
X115736809Y-71892178D01*
X115736809Y-71892178D02*
X115641571Y-71844559D01*
X115641571Y-71844559D02*
X115403476Y-71844559D01*
X115403476Y-71844559D02*
X115260619Y-71892178D01*
X114260619Y-72749320D02*
X114308238Y-72796940D01*
X114308238Y-72796940D02*
X114451095Y-72844559D01*
X114451095Y-72844559D02*
X114546333Y-72844559D01*
X114546333Y-72844559D02*
X114689190Y-72796940D01*
X114689190Y-72796940D02*
X114784428Y-72701701D01*
X114784428Y-72701701D02*
X114832047Y-72606463D01*
X114832047Y-72606463D02*
X114879666Y-72415987D01*
X114879666Y-72415987D02*
X114879666Y-72273130D01*
X114879666Y-72273130D02*
X114832047Y-72082654D01*
X114832047Y-72082654D02*
X114784428Y-71987416D01*
X114784428Y-71987416D02*
X114689190Y-71892178D01*
X114689190Y-71892178D02*
X114546333Y-71844559D01*
X114546333Y-71844559D02*
X114451095Y-71844559D01*
X114451095Y-71844559D02*
X114308238Y-71892178D01*
X114308238Y-71892178D02*
X114260619Y-71939797D01*
X113355857Y-72844559D02*
X113832047Y-72844559D01*
X113832047Y-72844559D02*
X113832047Y-71844559D01*
X83415047Y-75394749D02*
X83272190Y-75442368D01*
X83272190Y-75442368D02*
X83224571Y-75489987D01*
X83224571Y-75489987D02*
X83176952Y-75585225D01*
X83176952Y-75585225D02*
X83176952Y-75728082D01*
X83176952Y-75728082D02*
X83224571Y-75823320D01*
X83224571Y-75823320D02*
X83272190Y-75870940D01*
X83272190Y-75870940D02*
X83367428Y-75918559D01*
X83367428Y-75918559D02*
X83748380Y-75918559D01*
X83748380Y-75918559D02*
X83748380Y-74918559D01*
X83748380Y-74918559D02*
X83415047Y-74918559D01*
X83415047Y-74918559D02*
X83319809Y-74966178D01*
X83319809Y-74966178D02*
X83272190Y-75013797D01*
X83272190Y-75013797D02*
X83224571Y-75109035D01*
X83224571Y-75109035D02*
X83224571Y-75204273D01*
X83224571Y-75204273D02*
X83272190Y-75299511D01*
X83272190Y-75299511D02*
X83319809Y-75347130D01*
X83319809Y-75347130D02*
X83415047Y-75394749D01*
X83415047Y-75394749D02*
X83748380Y-75394749D01*
X82795999Y-75632844D02*
X82319809Y-75632844D01*
X82891237Y-75918559D02*
X82557904Y-74918559D01*
X82557904Y-74918559D02*
X82224571Y-75918559D01*
X82034094Y-74918559D02*
X81462666Y-74918559D01*
X81748380Y-75918559D02*
X81748380Y-74918559D01*
X81272189Y-74918559D02*
X80700761Y-74918559D01*
X80986475Y-75918559D02*
X80986475Y-74918559D01*
X82867559Y-56840667D02*
X83867559Y-57174000D01*
X83867559Y-57174000D02*
X82867559Y-57507333D01*
X83343749Y-58174000D02*
X83391368Y-58316857D01*
X83391368Y-58316857D02*
X83438987Y-58364476D01*
X83438987Y-58364476D02*
X83534225Y-58412095D01*
X83534225Y-58412095D02*
X83677082Y-58412095D01*
X83677082Y-58412095D02*
X83772320Y-58364476D01*
X83772320Y-58364476D02*
X83819940Y-58316857D01*
X83819940Y-58316857D02*
X83867559Y-58221619D01*
X83867559Y-58221619D02*
X83867559Y-57840667D01*
X83867559Y-57840667D02*
X82867559Y-57840667D01*
X82867559Y-57840667D02*
X82867559Y-58174000D01*
X82867559Y-58174000D02*
X82915178Y-58269238D01*
X82915178Y-58269238D02*
X82962797Y-58316857D01*
X82962797Y-58316857D02*
X83058035Y-58364476D01*
X83058035Y-58364476D02*
X83153273Y-58364476D01*
X83153273Y-58364476D02*
X83248511Y-58316857D01*
X83248511Y-58316857D02*
X83296130Y-58269238D01*
X83296130Y-58269238D02*
X83343749Y-58174000D01*
X83343749Y-58174000D02*
X83343749Y-57840667D01*
X82867559Y-58840667D02*
X83677082Y-58840667D01*
X83677082Y-58840667D02*
X83772320Y-58888286D01*
X83772320Y-58888286D02*
X83819940Y-58935905D01*
X83819940Y-58935905D02*
X83867559Y-59031143D01*
X83867559Y-59031143D02*
X83867559Y-59221619D01*
X83867559Y-59221619D02*
X83819940Y-59316857D01*
X83819940Y-59316857D02*
X83772320Y-59364476D01*
X83772320Y-59364476D02*
X83677082Y-59412095D01*
X83677082Y-59412095D02*
X82867559Y-59412095D01*
X83819940Y-59840667D02*
X83867559Y-59983524D01*
X83867559Y-59983524D02*
X83867559Y-60221619D01*
X83867559Y-60221619D02*
X83819940Y-60316857D01*
X83819940Y-60316857D02*
X83772320Y-60364476D01*
X83772320Y-60364476D02*
X83677082Y-60412095D01*
X83677082Y-60412095D02*
X83581844Y-60412095D01*
X83581844Y-60412095D02*
X83486606Y-60364476D01*
X83486606Y-60364476D02*
X83438987Y-60316857D01*
X83438987Y-60316857D02*
X83391368Y-60221619D01*
X83391368Y-60221619D02*
X83343749Y-60031143D01*
X83343749Y-60031143D02*
X83296130Y-59935905D01*
X83296130Y-59935905D02*
X83248511Y-59888286D01*
X83248511Y-59888286D02*
X83153273Y-59840667D01*
X83153273Y-59840667D02*
X83058035Y-59840667D01*
X83058035Y-59840667D02*
X82962797Y-59888286D01*
X82962797Y-59888286D02*
X82915178Y-59935905D01*
X82915178Y-59935905D02*
X82867559Y-60031143D01*
X82867559Y-60031143D02*
X82867559Y-60269238D01*
X82867559Y-60269238D02*
X82915178Y-60412095D01*
X107261559Y-39457714D02*
X106261559Y-39457714D01*
X106356797Y-39886285D02*
X106309178Y-39933904D01*
X106309178Y-39933904D02*
X106261559Y-40029142D01*
X106261559Y-40029142D02*
X106261559Y-40267237D01*
X106261559Y-40267237D02*
X106309178Y-40362475D01*
X106309178Y-40362475D02*
X106356797Y-40410094D01*
X106356797Y-40410094D02*
X106452035Y-40457713D01*
X106452035Y-40457713D02*
X106547273Y-40457713D01*
X106547273Y-40457713D02*
X106690130Y-40410094D01*
X106690130Y-40410094D02*
X107261559Y-39838666D01*
X107261559Y-39838666D02*
X107261559Y-40457713D01*
X107166320Y-41457713D02*
X107213940Y-41410094D01*
X107213940Y-41410094D02*
X107261559Y-41267237D01*
X107261559Y-41267237D02*
X107261559Y-41171999D01*
X107261559Y-41171999D02*
X107213940Y-41029142D01*
X107213940Y-41029142D02*
X107118701Y-40933904D01*
X107118701Y-40933904D02*
X107023463Y-40886285D01*
X107023463Y-40886285D02*
X106832987Y-40838666D01*
X106832987Y-40838666D02*
X106690130Y-40838666D01*
X106690130Y-40838666D02*
X106499654Y-40886285D01*
X106499654Y-40886285D02*
X106404416Y-40933904D01*
X106404416Y-40933904D02*
X106309178Y-41029142D01*
X106309178Y-41029142D02*
X106261559Y-41171999D01*
X106261559Y-41171999D02*
X106261559Y-41267237D01*
X106261559Y-41267237D02*
X106309178Y-41410094D01*
X106309178Y-41410094D02*
X106356797Y-41457713D01*
X106261559Y-42076761D02*
X106261559Y-42171999D01*
X106261559Y-42171999D02*
X106309178Y-42267237D01*
X106309178Y-42267237D02*
X106356797Y-42314856D01*
X106356797Y-42314856D02*
X106452035Y-42362475D01*
X106452035Y-42362475D02*
X106642511Y-42410094D01*
X106642511Y-42410094D02*
X106880606Y-42410094D01*
X106880606Y-42410094D02*
X107071082Y-42362475D01*
X107071082Y-42362475D02*
X107166320Y-42314856D01*
X107166320Y-42314856D02*
X107213940Y-42267237D01*
X107213940Y-42267237D02*
X107261559Y-42171999D01*
X107261559Y-42171999D02*
X107261559Y-42076761D01*
X107261559Y-42076761D02*
X107213940Y-41981523D01*
X107213940Y-41981523D02*
X107166320Y-41933904D01*
X107166320Y-41933904D02*
X107071082Y-41886285D01*
X107071082Y-41886285D02*
X106880606Y-41838666D01*
X106880606Y-41838666D02*
X106642511Y-41838666D01*
X106642511Y-41838666D02*
X106452035Y-41886285D01*
X106452035Y-41886285D02*
X106356797Y-41933904D01*
X106356797Y-41933904D02*
X106309178Y-41981523D01*
X106309178Y-41981523D02*
X106261559Y-42076761D01*
X107356797Y-42600571D02*
X107356797Y-43362475D01*
X107213940Y-43552952D02*
X107261559Y-43695809D01*
X107261559Y-43695809D02*
X107261559Y-43933904D01*
X107261559Y-43933904D02*
X107213940Y-44029142D01*
X107213940Y-44029142D02*
X107166320Y-44076761D01*
X107166320Y-44076761D02*
X107071082Y-44124380D01*
X107071082Y-44124380D02*
X106975844Y-44124380D01*
X106975844Y-44124380D02*
X106880606Y-44076761D01*
X106880606Y-44076761D02*
X106832987Y-44029142D01*
X106832987Y-44029142D02*
X106785368Y-43933904D01*
X106785368Y-43933904D02*
X106737749Y-43743428D01*
X106737749Y-43743428D02*
X106690130Y-43648190D01*
X106690130Y-43648190D02*
X106642511Y-43600571D01*
X106642511Y-43600571D02*
X106547273Y-43552952D01*
X106547273Y-43552952D02*
X106452035Y-43552952D01*
X106452035Y-43552952D02*
X106356797Y-43600571D01*
X106356797Y-43600571D02*
X106309178Y-43648190D01*
X106309178Y-43648190D02*
X106261559Y-43743428D01*
X106261559Y-43743428D02*
X106261559Y-43981523D01*
X106261559Y-43981523D02*
X106309178Y-44124380D01*
X107166320Y-45124380D02*
X107213940Y-45076761D01*
X107213940Y-45076761D02*
X107261559Y-44933904D01*
X107261559Y-44933904D02*
X107261559Y-44838666D01*
X107261559Y-44838666D02*
X107213940Y-44695809D01*
X107213940Y-44695809D02*
X107118701Y-44600571D01*
X107118701Y-44600571D02*
X107023463Y-44552952D01*
X107023463Y-44552952D02*
X106832987Y-44505333D01*
X106832987Y-44505333D02*
X106690130Y-44505333D01*
X106690130Y-44505333D02*
X106499654Y-44552952D01*
X106499654Y-44552952D02*
X106404416Y-44600571D01*
X106404416Y-44600571D02*
X106309178Y-44695809D01*
X106309178Y-44695809D02*
X106261559Y-44838666D01*
X106261559Y-44838666D02*
X106261559Y-44933904D01*
X106261559Y-44933904D02*
X106309178Y-45076761D01*
X106309178Y-45076761D02*
X106356797Y-45124380D01*
X107261559Y-46029142D02*
X107261559Y-45552952D01*
X107261559Y-45552952D02*
X106261559Y-45552952D01*
X101965047Y-68298559D02*
X102536475Y-68298559D01*
X102250761Y-68298559D02*
X102250761Y-67298559D01*
X102250761Y-67298559D02*
X102345999Y-67441416D01*
X102345999Y-67441416D02*
X102441237Y-67536654D01*
X102441237Y-67536654D02*
X102536475Y-67584273D01*
X101679332Y-67298559D02*
X101345999Y-68298559D01*
X101345999Y-68298559D02*
X101012666Y-67298559D01*
X100155523Y-68298559D02*
X100726951Y-68298559D01*
X100441237Y-68298559D02*
X100441237Y-67298559D01*
X100441237Y-67298559D02*
X100536475Y-67441416D01*
X100536475Y-67441416D02*
X100631713Y-67536654D01*
X100631713Y-67536654D02*
X100726951Y-67584273D01*
D12*
%TO.C,TP11*%
X111187000Y-74103000D02*
X112587000Y-74103000D01*
X111187000Y-75503000D02*
X111187000Y-74103000D01*
X112587000Y-74103000D02*
X112587000Y-75503000D01*
X112587000Y-75503000D02*
X111187000Y-75503000D01*
%TO.C,TP4*%
X80275200Y-60387000D02*
X81675200Y-60387000D01*
X80275200Y-61787000D02*
X80275200Y-60387000D01*
X81675200Y-60387000D02*
X81675200Y-61787000D01*
X81675200Y-61787000D02*
X80275200Y-61787000D01*
%TO.C,TP1*%
X84009000Y-64832000D02*
X85409000Y-64832000D01*
X84009000Y-66232000D02*
X84009000Y-64832000D01*
X85409000Y-64832000D02*
X85409000Y-66232000D01*
X85409000Y-66232000D02*
X84009000Y-66232000D01*
%TO.C,TP14*%
X110425000Y-46544000D02*
X111825000Y-46544000D01*
X110425000Y-47944000D02*
X110425000Y-46544000D01*
X111825000Y-46544000D02*
X111825000Y-47944000D01*
X111825000Y-47944000D02*
X110425000Y-47944000D01*
%TO.C,TP6*%
X88708000Y-55561000D02*
X90108000Y-55561000D01*
X88708000Y-56961000D02*
X88708000Y-55561000D01*
X90108000Y-55561000D02*
X90108000Y-56961000D01*
X90108000Y-56961000D02*
X88708000Y-56961000D01*
%TO.C,TP8*%
X84009000Y-67499000D02*
X85409000Y-67499000D01*
X84009000Y-68899000D02*
X84009000Y-67499000D01*
X85409000Y-67499000D02*
X85409000Y-68899000D01*
X85409000Y-68899000D02*
X84009000Y-68899000D01*
%TO.C,TP5*%
X99376000Y-75754000D02*
X100776000Y-75754000D01*
X99376000Y-77154000D02*
X99376000Y-75754000D01*
X100776000Y-75754000D02*
X100776000Y-77154000D01*
X100776000Y-77154000D02*
X99376000Y-77154000D01*
%TO.C,TP3*%
X80275200Y-55815000D02*
X81675200Y-55815000D01*
X80275200Y-57215000D02*
X80275200Y-55815000D01*
X81675200Y-55815000D02*
X81675200Y-57215000D01*
X81675200Y-57215000D02*
X80275200Y-57215000D01*
%TO.C,TP9*%
X121474000Y-45782000D02*
X122874000Y-45782000D01*
X121474000Y-47182000D02*
X121474000Y-45782000D01*
X122874000Y-45782000D02*
X122874000Y-47182000D01*
X122874000Y-47182000D02*
X121474000Y-47182000D01*
%TO.C,TP15*%
X111187000Y-76643000D02*
X112587000Y-76643000D01*
X111187000Y-78043000D02*
X111187000Y-76643000D01*
X112587000Y-76643000D02*
X112587000Y-78043000D01*
X112587000Y-78043000D02*
X111187000Y-78043000D01*
%TO.C,TP13*%
X111187000Y-71563000D02*
X112587000Y-71563000D01*
X111187000Y-72963000D02*
X111187000Y-71563000D01*
X112587000Y-71563000D02*
X112587000Y-72963000D01*
X112587000Y-72963000D02*
X111187000Y-72963000D01*
%TO.C,TP7*%
X81596000Y-73214000D02*
X82996000Y-73214000D01*
X81596000Y-74614000D02*
X81596000Y-73214000D01*
X82996000Y-73214000D02*
X82996000Y-74614000D01*
X82996000Y-74614000D02*
X81596000Y-74614000D01*
%TO.C,TP2*%
X84263000Y-57974000D02*
X85663000Y-57974000D01*
X84263000Y-59374000D02*
X84263000Y-57974000D01*
X85663000Y-57974000D02*
X85663000Y-59374000D01*
X85663000Y-59374000D02*
X84263000Y-59374000D01*
%TO.C,TP12*%
X106107000Y-46544000D02*
X107507000Y-46544000D01*
X106107000Y-47944000D02*
X106107000Y-46544000D01*
X107507000Y-46544000D02*
X107507000Y-47944000D01*
X107507000Y-47944000D02*
X106107000Y-47944000D01*
%TO.C,TP10*%
X100646000Y-65594000D02*
X102046000Y-65594000D01*
X100646000Y-66994000D02*
X100646000Y-65594000D01*
X102046000Y-65594000D02*
X102046000Y-66994000D01*
X102046000Y-66994000D02*
X100646000Y-66994000D01*
%TD*%
%LPC*%
D13*
%TO.C,H4*%
X81661000Y-40913000D03*
%TD*%
%TO.C,H1*%
X124587000Y-40913000D03*
%TD*%
D14*
%TO.C,J2*%
X105918000Y-85090000D03*
D15*
X105918000Y-82550000D03*
%TD*%
D13*
%TO.C,H3*%
X81661000Y-83839000D03*
%TD*%
D16*
%TO.C,J3*%
X83723000Y-55931000D03*
X83723000Y-61711000D03*
D17*
X84223000Y-54501000D03*
D18*
X80043000Y-54501000D03*
D17*
X84223000Y-63141000D03*
D18*
X80043000Y-63141000D03*
%TD*%
D19*
%TO.C,SW1*%
X90640000Y-84074000D03*
D20*
X88140000Y-84074000D03*
%TD*%
D13*
%TO.C,H2*%
X124587000Y-83693000D03*
%TD*%
D14*
%TO.C,J5*%
X114173000Y-39653000D03*
D15*
X114173000Y-42193000D03*
X114173000Y-44733000D03*
X114173000Y-47273000D03*
%TD*%
D19*
%TO.C,J1*%
X99149000Y-84074000D03*
D20*
X96649000Y-84074000D03*
%TD*%
D14*
%TO.C,U4*%
X108471000Y-72263000D03*
D15*
X108471000Y-74803000D03*
X108471000Y-77343000D03*
X123711000Y-77343000D03*
X123711000Y-74803000D03*
D14*
X123711000Y-72263000D03*
%TD*%
%TO.C,J4*%
X123596400Y-56209800D03*
D15*
X121056400Y-56209800D03*
X118516400Y-56209800D03*
%TD*%
D21*
%TO.C,TP11*%
X111887000Y-74803000D03*
%TD*%
%TO.C,TP4*%
X80975200Y-61087000D03*
%TD*%
%TO.C,TP1*%
X84709000Y-65532000D03*
%TD*%
%TO.C,TP14*%
X111125000Y-47244000D03*
%TD*%
%TO.C,TP6*%
X89408000Y-56261000D03*
%TD*%
%TO.C,TP8*%
X84709000Y-68199000D03*
%TD*%
%TO.C,TP5*%
X100076000Y-76454000D03*
%TD*%
%TO.C,TP3*%
X80975200Y-56515000D03*
%TD*%
%TO.C,TP9*%
X122174000Y-46482000D03*
%TD*%
%TO.C,TP15*%
X111887000Y-77343000D03*
%TD*%
%TO.C,TP13*%
X111887000Y-72263000D03*
%TD*%
%TO.C,TP7*%
X82296000Y-73914000D03*
%TD*%
%TO.C,TP2*%
X84963000Y-58674000D03*
%TD*%
%TO.C,TP12*%
X106807000Y-47244000D03*
%TD*%
%TO.C,TP10*%
X101346000Y-66294000D03*
%TD*%
%LPD*%
M02*
