%TF.GenerationSoftware,KiCad,Pcbnew,8.0.1*%
%TF.CreationDate,2024-04-17T00:31:54+12:00*%
%TF.ProjectId,50x50 2 Layer,35307835-3020-4322-904c-617965722e6b,B*%
%TF.SameCoordinates,Original*%
%TF.FileFunction,Soldermask,Bot*%
%TF.FilePolarity,Negative*%
%FSLAX46Y46*%
G04 Gerber Fmt 4.6, Leading zero omitted, Abs format (unit mm)*
G04 Created by KiCad (PCBNEW 8.0.1) date 2024-04-17 00:31:54*
%MOMM*%
%LPD*%
G01*
G04 APERTURE LIST*
G04 Aperture macros list*
%AMRoundRect*
0 Rectangle with rounded corners*
0 $1 Rounding radius*
0 $2 $3 $4 $5 $6 $7 $8 $9 X,Y pos of 4 corners*
0 Add a 4 corners polygon primitive as box body*
4,1,4,$2,$3,$4,$5,$6,$7,$8,$9,$2,$3,0*
0 Add four circle primitives for the rounded corners*
1,1,$1+$1,$2,$3*
1,1,$1+$1,$4,$5*
1,1,$1+$1,$6,$7*
1,1,$1+$1,$8,$9*
0 Add four rect primitives between the rounded corners*
20,1,$1+$1,$2,$3,$4,$5,0*
20,1,$1+$1,$4,$5,$6,$7,0*
20,1,$1+$1,$6,$7,$8,$9,0*
20,1,$1+$1,$8,$9,$2,$3,0*%
G04 Aperture macros list end*
%ADD10C,3.200000*%
%ADD11R,1.700000X1.700000*%
%ADD12O,1.700000X1.700000*%
%ADD13C,0.650000*%
%ADD14O,2.100000X1.000000*%
%ADD15O,1.800000X1.000000*%
%ADD16RoundRect,0.250000X0.600000X0.750000X-0.600000X0.750000X-0.600000X-0.750000X0.600000X-0.750000X0*%
%ADD17O,1.700000X2.000000*%
%ADD18R,1.000000X1.000000*%
G04 APERTURE END LIST*
D10*
%TO.C,H4*%
X81661000Y-40913000D03*
%TD*%
%TO.C,H1*%
X124587000Y-40913000D03*
%TD*%
D11*
%TO.C,J2*%
X105918000Y-85090000D03*
D12*
X105918000Y-82550000D03*
%TD*%
D10*
%TO.C,H3*%
X81661000Y-83839000D03*
%TD*%
D13*
%TO.C,J3*%
X83723000Y-55931000D03*
X83723000Y-61711000D03*
D14*
X84223000Y-54501000D03*
D15*
X80043000Y-54501000D03*
D14*
X84223000Y-63141000D03*
D15*
X80043000Y-63141000D03*
%TD*%
D16*
%TO.C,SW1*%
X90640000Y-84074000D03*
D17*
X88140000Y-84074000D03*
%TD*%
D10*
%TO.C,H2*%
X124587000Y-83693000D03*
%TD*%
D11*
%TO.C,J5*%
X114173000Y-39653000D03*
D12*
X114173000Y-42193000D03*
X114173000Y-44733000D03*
X114173000Y-47273000D03*
%TD*%
D16*
%TO.C,J1*%
X99149000Y-84074000D03*
D17*
X96649000Y-84074000D03*
%TD*%
D11*
%TO.C,U4*%
X108471000Y-72263000D03*
D12*
X108471000Y-74803000D03*
X108471000Y-77343000D03*
X123711000Y-77343000D03*
X123711000Y-74803000D03*
D11*
X123711000Y-72263000D03*
%TD*%
%TO.C,J4*%
X123596400Y-56209800D03*
D12*
X121056400Y-56209800D03*
X118516400Y-56209800D03*
%TD*%
D18*
%TO.C,TP11*%
X111887000Y-74803000D03*
%TD*%
%TO.C,TP4*%
X80975200Y-61087000D03*
%TD*%
%TO.C,TP1*%
X84709000Y-65532000D03*
%TD*%
%TO.C,TP14*%
X111125000Y-47244000D03*
%TD*%
%TO.C,TP6*%
X89408000Y-56261000D03*
%TD*%
%TO.C,TP8*%
X84709000Y-68199000D03*
%TD*%
%TO.C,TP5*%
X100076000Y-76454000D03*
%TD*%
%TO.C,TP3*%
X80975200Y-56515000D03*
%TD*%
%TO.C,TP9*%
X122174000Y-46482000D03*
%TD*%
%TO.C,TP15*%
X111887000Y-77343000D03*
%TD*%
%TO.C,TP13*%
X111887000Y-72263000D03*
%TD*%
%TO.C,TP7*%
X82296000Y-73914000D03*
%TD*%
%TO.C,TP2*%
X84963000Y-58674000D03*
%TD*%
%TO.C,TP12*%
X106807000Y-47244000D03*
%TD*%
%TO.C,TP10*%
X101346000Y-66294000D03*
%TD*%
M02*
