%TF.GenerationSoftware,KiCad,Pcbnew,8.0.1*%
%TF.CreationDate,2024-04-17T00:31:54+12:00*%
%TF.ProjectId,50x50 2 Layer,35307835-3020-4322-904c-617965722e6b,B*%
%TF.SameCoordinates,Original*%
%TF.FileFunction,Copper,L2,Bot*%
%TF.FilePolarity,Positive*%
%FSLAX46Y46*%
G04 Gerber Fmt 4.6, Leading zero omitted, Abs format (unit mm)*
G04 Created by KiCad (PCBNEW 8.0.1) date 2024-04-17 00:31:54*
%MOMM*%
%LPD*%
G01*
G04 APERTURE LIST*
G04 Aperture macros list*
%AMRoundRect*
0 Rectangle with rounded corners*
0 $1 Rounding radius*
0 $2 $3 $4 $5 $6 $7 $8 $9 X,Y pos of 4 corners*
0 Add a 4 corners polygon primitive as box body*
4,1,4,$2,$3,$4,$5,$6,$7,$8,$9,$2,$3,0*
0 Add four circle primitives for the rounded corners*
1,1,$1+$1,$2,$3*
1,1,$1+$1,$4,$5*
1,1,$1+$1,$6,$7*
1,1,$1+$1,$8,$9*
0 Add four rect primitives between the rounded corners*
20,1,$1+$1,$2,$3,$4,$5,0*
20,1,$1+$1,$4,$5,$6,$7,0*
20,1,$1+$1,$6,$7,$8,$9,0*
20,1,$1+$1,$8,$9,$2,$3,0*%
G04 Aperture macros list end*
%TA.AperFunction,ComponentPad*%
%ADD10R,1.700000X1.700000*%
%TD*%
%TA.AperFunction,ComponentPad*%
%ADD11O,1.700000X1.700000*%
%TD*%
%TA.AperFunction,ComponentPad*%
%ADD12O,2.100000X1.000000*%
%TD*%
%TA.AperFunction,ComponentPad*%
%ADD13O,1.800000X1.000000*%
%TD*%
%TA.AperFunction,ComponentPad*%
%ADD14RoundRect,0.250000X0.600000X0.750000X-0.600000X0.750000X-0.600000X-0.750000X0.600000X-0.750000X0*%
%TD*%
%TA.AperFunction,ComponentPad*%
%ADD15O,1.700000X2.000000*%
%TD*%
%TA.AperFunction,SMDPad,CuDef*%
%ADD16R,1.000000X1.000000*%
%TD*%
%TA.AperFunction,ViaPad*%
%ADD17C,0.800000*%
%TD*%
%TA.AperFunction,Conductor*%
%ADD18C,0.500000*%
%TD*%
%TA.AperFunction,Conductor*%
%ADD19C,0.200000*%
%TD*%
G04 APERTURE END LIST*
D10*
%TO.P,J2,1,Pin_1*%
%TO.N,GND*%
X105918000Y-85090000D03*
D11*
%TO.P,J2,2,Pin_2*%
%TO.N,Net-(J2-Pin_2)*%
X105918000Y-82550000D03*
%TD*%
D12*
%TO.P,J3,S1,SHIELD*%
%TO.N,Net-(J3-SHIELD)*%
X84223000Y-54501000D03*
D13*
X80043000Y-54501000D03*
D12*
X84223000Y-63141000D03*
D13*
X80043000Y-63141000D03*
%TD*%
D14*
%TO.P,SW1,1,A*%
%TO.N,Net-(SW1-A)*%
X90640000Y-84074000D03*
D15*
%TO.P,SW1,2,B*%
%TO.N,Net-(D2-A)*%
X88140000Y-84074000D03*
%TD*%
D10*
%TO.P,J5,1,Pin_1*%
%TO.N,GND*%
X114173000Y-39653000D03*
D11*
%TO.P,J5,2,Pin_2*%
%TO.N,+3V3*%
X114173000Y-42193000D03*
%TO.P,J5,3,Pin_3*%
%TO.N,I2C0_SCL*%
X114173000Y-44733000D03*
%TO.P,J5,4,Pin_4*%
%TO.N,I2C0_SDA*%
X114173000Y-47273000D03*
%TD*%
D14*
%TO.P,J1,1,Pin_1*%
%TO.N,GND*%
X99149000Y-84074000D03*
D15*
%TO.P,J1,2,Pin_2*%
%TO.N,/Battery*%
X96649000Y-84074000D03*
%TD*%
D10*
%TO.P,U4,1,SCL*%
%TO.N,I2C1_SCL*%
X108471000Y-72263000D03*
D11*
%TO.P,U4,2,INT_1*%
%TO.N,INT_1*%
X108471000Y-74803000D03*
%TO.P,U4,3,SDA*%
%TO.N,I2C1_SDA*%
X108471000Y-77343000D03*
%TO.P,U4,4,GND*%
%TO.N,GND*%
X123711000Y-77343000D03*
%TO.P,U4,5*%
%TO.N,unconnected-(U4-Pad5)*%
X123711000Y-74803000D03*
D10*
%TO.P,U4,6,+3V3*%
%TO.N,+3V3*%
X123711000Y-72263000D03*
%TD*%
%TO.P,J4,1,Pin_1*%
%TO.N,GND*%
X123596400Y-56209800D03*
D11*
%TO.P,J4,2,Pin_2*%
%TO.N,/SWD*%
X121056400Y-56209800D03*
%TO.P,J4,3,Pin_3*%
%TO.N,/SWCLK*%
X118516400Y-56209800D03*
%TD*%
D16*
%TO.P,TP11,1,1*%
%TO.N,INT_1*%
X111887000Y-74803000D03*
%TD*%
%TO.P,TP4,1,1*%
%TO.N,D+*%
X80975200Y-61087000D03*
%TD*%
%TO.P,TP1,1,1*%
%TO.N,GND*%
X84709000Y-65532000D03*
%TD*%
%TO.P,TP14,1,1*%
%TO.N,I2C0_SDA*%
X111125000Y-47244000D03*
%TD*%
%TO.P,TP6,1,1*%
%TO.N,USB_DET*%
X89408000Y-56261000D03*
%TD*%
%TO.P,TP8,1,1*%
%TO.N,+3V3*%
X84709000Y-68199000D03*
%TD*%
%TO.P,TP5,1,1*%
%TO.N,/QSPI_SS*%
X100076000Y-76454000D03*
%TD*%
%TO.P,TP3,1,1*%
%TO.N,D-*%
X80975200Y-56515000D03*
%TD*%
%TO.P,TP9,1,1*%
%TO.N,/RUN*%
X122174000Y-46482000D03*
%TD*%
%TO.P,TP15,1,1*%
%TO.N,I2C1_SDA*%
X111887000Y-77343000D03*
%TD*%
%TO.P,TP13,1,1*%
%TO.N,I2C1_SCL*%
X111887000Y-72263000D03*
%TD*%
%TO.P,TP7,1,1*%
%TO.N,+BATT*%
X82296000Y-73914000D03*
%TD*%
%TO.P,TP2,1,1*%
%TO.N,VBUS*%
X84963000Y-58674000D03*
%TD*%
%TO.P,TP12,1,1*%
%TO.N,I2C0_SCL*%
X106807000Y-47244000D03*
%TD*%
%TO.P,TP10,1,1*%
%TO.N,+1V1*%
X101346000Y-66294000D03*
%TD*%
D17*
%TO.N,+3V3*%
X97688400Y-53492400D03*
X100736400Y-55219600D03*
X107531000Y-58674000D03*
X97879000Y-62484000D03*
X81743000Y-67818000D03*
X115278000Y-55753000D03*
X103594000Y-67691000D03*
X99403000Y-69469000D03*
%TO.N,GND*%
X81750000Y-65532000D03*
X89370000Y-48895000D03*
X95593000Y-68199000D03*
X109182000Y-55118000D03*
X79464000Y-75311000D03*
X103239371Y-59582000D03*
X82766000Y-65532000D03*
X123787000Y-65278000D03*
X126073000Y-49657000D03*
X121882000Y-65278000D03*
X94831000Y-58420000D03*
X86068000Y-62230000D03*
X99911000Y-78994000D03*
X118199000Y-61468000D03*
X108166000Y-60833000D03*
X96228000Y-57023000D03*
X111214000Y-55880000D03*
X94196000Y-60706000D03*
X102063154Y-72803581D03*
X109436000Y-69723000D03*
X118199000Y-49657000D03*
X86068000Y-55372000D03*
X116421000Y-59690000D03*
X91337000Y-63881000D03*
X91402000Y-57277000D03*
X79464000Y-79502000D03*
X90767000Y-68199000D03*
X82753200Y-66497200D03*
X113627000Y-66294000D03*
X120104000Y-65278000D03*
X103225600Y-54762400D03*
X82004000Y-53340000D03*
X111849000Y-64516000D03*
X96990000Y-69596000D03*
X92672000Y-76327000D03*
X81737200Y-66497200D03*
%TO.N,+BATT*%
X90767000Y-59055000D03*
X84417000Y-73914000D03*
%TO.N,+1V1*%
X99563773Y-66193020D03*
X100546000Y-62865000D03*
%TO.N,VBUS*%
X86576000Y-61214000D03*
X86449000Y-56388000D03*
%TO.N,I2C0_SCL*%
X99919608Y-53183608D03*
%TO.N,/QSPI_SS*%
X101854000Y-76581000D03*
%TO.N,/RUN*%
X123952000Y-46518000D03*
%TO.N,I2C1_SCL*%
X113411000Y-72263000D03*
X101803200Y-60553600D03*
%TO.N,I2C1_SDA*%
X99394980Y-56904020D03*
%TO.N,USB_DET*%
X104952800Y-67665600D03*
X89370000Y-53975000D03*
%TO.N,D-*%
X82296000Y-56515000D03*
%TO.N,D+*%
X82296000Y-61087000D03*
%TO.N,INT_1*%
X110198000Y-68834000D03*
%TD*%
D18*
%TO.N,+3V3*%
X100736400Y-55219600D02*
X98602800Y-55219600D01*
X107531000Y-58674000D02*
X112357000Y-58674000D01*
X98602800Y-55219600D02*
X97879000Y-55943400D01*
X104469400Y-55612400D02*
X107531000Y-58674000D01*
X97879000Y-67945000D02*
X99403000Y-69469000D01*
X97879000Y-53683000D02*
X97879000Y-55943400D01*
X97879000Y-62484000D02*
X97879000Y-67945000D01*
X100736400Y-55219600D02*
X101129200Y-55612400D01*
X97879000Y-55943400D02*
X97879000Y-62484000D01*
D19*
X82124000Y-68199000D02*
X81743000Y-67818000D01*
X84709000Y-68199000D02*
X82124000Y-68199000D01*
D18*
X101816000Y-69469000D02*
X103594000Y-67691000D01*
X99403000Y-69469000D02*
X101816000Y-69469000D01*
X112357000Y-58674000D02*
X115278000Y-55753000D01*
X97688400Y-53492400D02*
X97879000Y-53683000D01*
X101129200Y-55612400D02*
X104469400Y-55612400D01*
%TO.N,+BATT*%
X84417000Y-73914000D02*
X82296000Y-73914000D01*
X87465000Y-70866000D02*
X84417000Y-73914000D01*
X90640000Y-59055000D02*
X87465000Y-62230000D01*
X87465000Y-62230000D02*
X87465000Y-70866000D01*
X90767000Y-59055000D02*
X90640000Y-59055000D01*
D19*
%TO.N,+1V1*%
X99563773Y-66193020D02*
X101245020Y-66193020D01*
X101245020Y-66193020D02*
X101346000Y-66294000D01*
X99563773Y-66193020D02*
X100546000Y-65210793D01*
X100546000Y-65210793D02*
X100546000Y-62865000D01*
D18*
%TO.N,VBUS*%
X86576000Y-56515000D02*
X86449000Y-56388000D01*
D19*
X84963000Y-59601000D02*
X86576000Y-61214000D01*
D18*
X86576000Y-61214000D02*
X86576000Y-56515000D01*
D19*
X84963000Y-58674000D02*
X84963000Y-59601000D01*
%TO.N,I2C0_SDA*%
X114173000Y-47273000D02*
X111154000Y-47273000D01*
X111154000Y-47273000D02*
X111125000Y-47244000D01*
%TO.N,I2C0_SCL*%
X105859217Y-47244000D02*
X106807000Y-47244000D01*
X114173000Y-44733000D02*
X109318000Y-44733000D01*
X109318000Y-44733000D02*
X106807000Y-47244000D01*
X99919608Y-53183608D02*
X105859217Y-47244000D01*
%TO.N,/QSPI_SS*%
X101727000Y-76454000D02*
X101854000Y-76581000D01*
X100076000Y-76454000D02*
X101727000Y-76454000D01*
%TO.N,/RUN*%
X123916000Y-46482000D02*
X123952000Y-46518000D01*
X122174000Y-46482000D02*
X123916000Y-46482000D01*
%TO.N,I2C1_SCL*%
X101803200Y-60553600D02*
X101803200Y-60947200D01*
X101803200Y-60947200D02*
X108471000Y-67615000D01*
X113411000Y-72263000D02*
X111887000Y-72263000D01*
X108471000Y-67615000D02*
X108471000Y-72263000D01*
%TO.N,I2C1_SDA*%
X99394980Y-56904020D02*
X99403000Y-56912040D01*
X99403000Y-60071000D02*
X106769000Y-67437000D01*
X106769000Y-67437000D02*
X106769000Y-75641000D01*
X106769000Y-75641000D02*
X108471000Y-77343000D01*
X99403000Y-56912040D02*
X99403000Y-60071000D01*
X108471000Y-77343000D02*
X111887000Y-77343000D01*
%TO.N,USB_DET*%
X89370000Y-53975000D02*
X89408000Y-54013000D01*
X104952800Y-69507200D02*
X104229000Y-70231000D01*
X104229000Y-70231000D02*
X99175050Y-70231000D01*
X99175050Y-70231000D02*
X97179000Y-68234950D01*
X89408000Y-54013000D02*
X89408000Y-56261000D01*
X97179000Y-68234950D02*
X97179000Y-56323000D01*
X94831000Y-53975000D02*
X89370000Y-53975000D01*
X104952800Y-67665600D02*
X104952800Y-69507200D01*
X97179000Y-56323000D02*
X94831000Y-53975000D01*
%TO.N,D-*%
X82296000Y-56515000D02*
X80645000Y-56515000D01*
%TO.N,D+*%
X82296000Y-61087000D02*
X80645000Y-61087000D01*
%TO.N,INT_1*%
X108471000Y-74803000D02*
X111887000Y-74803000D01*
X110198000Y-68834000D02*
X110198000Y-73076000D01*
X110198000Y-73076000D02*
X108471000Y-74803000D01*
%TD*%
%TA.AperFunction,Conductor*%
%TO.N,GND*%
G36*
X128063955Y-37484028D02*
G01*
X128100064Y-37533422D01*
X128105000Y-37564291D01*
X128105000Y-87149784D01*
X128086093Y-87207975D01*
X128036593Y-87243939D01*
X128005785Y-87248784D01*
X78457785Y-87141214D01*
X78399636Y-87122180D01*
X78363779Y-87072602D01*
X78359000Y-87042214D01*
X78359000Y-83960288D01*
X79810500Y-83960288D01*
X79841426Y-84195202D01*
X79842161Y-84200781D01*
X79842161Y-84200786D01*
X79904944Y-84435092D01*
X79904948Y-84435105D01*
X79997772Y-84659204D01*
X79997774Y-84659208D01*
X79997776Y-84659212D01*
X80119064Y-84869289D01*
X80119066Y-84869292D01*
X80266729Y-85061731D01*
X80266731Y-85061733D01*
X80266735Y-85061738D01*
X80438262Y-85233265D01*
X80438266Y-85233268D01*
X80438268Y-85233270D01*
X80621672Y-85374000D01*
X80630711Y-85380936D01*
X80840788Y-85502224D01*
X81064900Y-85595054D01*
X81299211Y-85657838D01*
X81539712Y-85689500D01*
X81539713Y-85689500D01*
X81782287Y-85689500D01*
X81782288Y-85689500D01*
X82022789Y-85657838D01*
X82257100Y-85595054D01*
X82481212Y-85502224D01*
X82691289Y-85380936D01*
X82883738Y-85233265D01*
X83055265Y-85061738D01*
X83202936Y-84869289D01*
X83324224Y-84659212D01*
X83417054Y-84435100D01*
X83450410Y-84310614D01*
X87039500Y-84310614D01*
X87066597Y-84481702D01*
X87066598Y-84481706D01*
X87120123Y-84646438D01*
X87120125Y-84646441D01*
X87159280Y-84723289D01*
X87198768Y-84800788D01*
X87300586Y-84940928D01*
X87423072Y-85063414D01*
X87563212Y-85165232D01*
X87717555Y-85243873D01*
X87717557Y-85243873D01*
X87717558Y-85243874D01*
X87717561Y-85243876D01*
X87882293Y-85297401D01*
X87882297Y-85297402D01*
X88053386Y-85324500D01*
X88053389Y-85324500D01*
X88226614Y-85324500D01*
X88397702Y-85297402D01*
X88397706Y-85297401D01*
X88562438Y-85243876D01*
X88562440Y-85243874D01*
X88562445Y-85243873D01*
X88716788Y-85165232D01*
X88856928Y-85063414D01*
X88979414Y-84940928D01*
X89029591Y-84871866D01*
X89539500Y-84871866D01*
X89539501Y-84871870D01*
X89545908Y-84931480D01*
X89545909Y-84931485D01*
X89596202Y-85066329D01*
X89618485Y-85096095D01*
X89682454Y-85181546D01*
X89682457Y-85181548D01*
X89682458Y-85181549D01*
X89797670Y-85267797D01*
X89932511Y-85318089D01*
X89932512Y-85318089D01*
X89932517Y-85318091D01*
X89992127Y-85324500D01*
X91287872Y-85324499D01*
X91347483Y-85318091D01*
X91441586Y-85282993D01*
X91482329Y-85267797D01*
X91482329Y-85267796D01*
X91482331Y-85267796D01*
X91597546Y-85181546D01*
X91683796Y-85066331D01*
X91734091Y-84931483D01*
X91740500Y-84871873D01*
X91740500Y-84310614D01*
X95548500Y-84310614D01*
X95575597Y-84481702D01*
X95575598Y-84481706D01*
X95629123Y-84646438D01*
X95629125Y-84646441D01*
X95668280Y-84723289D01*
X95707768Y-84800788D01*
X95809586Y-84940928D01*
X95932072Y-85063414D01*
X96072212Y-85165232D01*
X96226555Y-85243873D01*
X96226557Y-85243873D01*
X96226558Y-85243874D01*
X96226561Y-85243876D01*
X96391293Y-85297401D01*
X96391297Y-85297402D01*
X96562386Y-85324500D01*
X96562389Y-85324500D01*
X96735614Y-85324500D01*
X96906702Y-85297402D01*
X96906706Y-85297401D01*
X97071438Y-85243876D01*
X97071440Y-85243874D01*
X97071445Y-85243873D01*
X97225788Y-85165232D01*
X97365928Y-85063414D01*
X97488414Y-84940928D01*
X97542080Y-84867064D01*
X97999000Y-84867064D01*
X98009613Y-84955443D01*
X98065080Y-85096095D01*
X98156435Y-85216564D01*
X98276904Y-85307919D01*
X98417556Y-85363386D01*
X98505935Y-85373999D01*
X98505942Y-85374000D01*
X98998999Y-85374000D01*
X98999000Y-85373999D01*
X98999000Y-84551445D01*
X99083174Y-84574000D01*
X99214826Y-84574000D01*
X99299000Y-84551445D01*
X99299000Y-85373999D01*
X99299001Y-85374000D01*
X99792058Y-85374000D01*
X99792064Y-85373999D01*
X99880443Y-85363386D01*
X100021095Y-85307919D01*
X100141564Y-85216564D01*
X100232919Y-85096095D01*
X100288386Y-84955443D01*
X100290241Y-84939999D01*
X104768000Y-84939999D01*
X104768001Y-84940000D01*
X105440555Y-84940000D01*
X105418000Y-85024174D01*
X105418000Y-85155826D01*
X105440555Y-85240000D01*
X104768002Y-85240000D01*
X104768001Y-85240001D01*
X104768001Y-85984791D01*
X104770909Y-86009874D01*
X104816213Y-86112477D01*
X104895522Y-86191786D01*
X104998127Y-86237090D01*
X105023203Y-86239999D01*
X105767998Y-86239999D01*
X105768000Y-86239998D01*
X105768000Y-85567445D01*
X105852174Y-85590000D01*
X105983826Y-85590000D01*
X106068000Y-85567445D01*
X106068000Y-86239998D01*
X106068001Y-86239999D01*
X106812790Y-86239999D01*
X106812791Y-86239998D01*
X106837874Y-86237090D01*
X106940477Y-86191786D01*
X107019786Y-86112477D01*
X107065090Y-86009872D01*
X107067999Y-85984797D01*
X107068000Y-85984795D01*
X107068000Y-85240001D01*
X107067999Y-85240000D01*
X106395445Y-85240000D01*
X106418000Y-85155826D01*
X106418000Y-85024174D01*
X106395445Y-84940000D01*
X107067998Y-84940000D01*
X107067999Y-84939999D01*
X107067999Y-84195210D01*
X107067998Y-84195208D01*
X107065090Y-84170125D01*
X107019786Y-84067522D01*
X106940477Y-83988213D01*
X106837872Y-83942909D01*
X106812797Y-83940000D01*
X106068001Y-83940000D01*
X106068000Y-83940001D01*
X106068000Y-84612554D01*
X105983826Y-84590000D01*
X105852174Y-84590000D01*
X105768000Y-84612554D01*
X105768000Y-83940001D01*
X105767999Y-83940000D01*
X105023210Y-83940000D01*
X105023207Y-83940001D01*
X104998125Y-83942909D01*
X104895522Y-83988213D01*
X104816213Y-84067522D01*
X104770909Y-84170127D01*
X104768000Y-84195202D01*
X104768000Y-84939999D01*
X100290241Y-84939999D01*
X100298999Y-84867064D01*
X100299000Y-84867058D01*
X100299000Y-84224001D01*
X100298999Y-84224000D01*
X99626445Y-84224000D01*
X99649000Y-84139826D01*
X99649000Y-84008174D01*
X99626445Y-83924000D01*
X100298999Y-83924000D01*
X100299000Y-83923999D01*
X100299000Y-83814289D01*
X122736500Y-83814289D01*
X122768161Y-84054781D01*
X122768161Y-84054786D01*
X122768162Y-84054789D01*
X122825022Y-84266993D01*
X122830944Y-84289092D01*
X122830948Y-84289105D01*
X122923772Y-84513204D01*
X122923774Y-84513208D01*
X122923776Y-84513212D01*
X123045064Y-84723289D01*
X123045066Y-84723292D01*
X123192729Y-84915731D01*
X123192731Y-84915733D01*
X123192735Y-84915738D01*
X123364262Y-85087265D01*
X123364266Y-85087268D01*
X123364268Y-85087270D01*
X123532768Y-85216564D01*
X123556711Y-85234936D01*
X123766788Y-85356224D01*
X123990900Y-85449054D01*
X124225211Y-85511838D01*
X124465712Y-85543500D01*
X124465713Y-85543500D01*
X124708287Y-85543500D01*
X124708288Y-85543500D01*
X124948789Y-85511838D01*
X125183100Y-85449054D01*
X125407212Y-85356224D01*
X125617289Y-85234936D01*
X125809738Y-85087265D01*
X125981265Y-84915738D01*
X126128936Y-84723289D01*
X126250224Y-84513212D01*
X126343054Y-84289100D01*
X126405838Y-84054789D01*
X126437500Y-83814288D01*
X126437500Y-83571712D01*
X126405838Y-83331211D01*
X126343054Y-83096900D01*
X126250224Y-82872788D01*
X126128936Y-82662711D01*
X125981265Y-82470262D01*
X125809738Y-82298735D01*
X125809733Y-82298731D01*
X125809731Y-82298729D01*
X125617292Y-82151066D01*
X125616745Y-82150750D01*
X125407212Y-82029776D01*
X125407208Y-82029774D01*
X125407204Y-82029772D01*
X125183105Y-81936948D01*
X125183104Y-81936947D01*
X125183100Y-81936946D01*
X124948789Y-81874162D01*
X124948786Y-81874161D01*
X124948784Y-81874161D01*
X124708289Y-81842500D01*
X124708288Y-81842500D01*
X124465712Y-81842500D01*
X124465710Y-81842500D01*
X124225218Y-81874161D01*
X124225213Y-81874161D01*
X123990907Y-81936944D01*
X123990894Y-81936948D01*
X123766795Y-82029772D01*
X123556707Y-82151066D01*
X123364268Y-82298729D01*
X123192729Y-82470268D01*
X123045066Y-82662707D01*
X122923772Y-82872795D01*
X122830948Y-83096894D01*
X122830944Y-83096907D01*
X122768161Y-83331213D01*
X122768161Y-83331218D01*
X122736500Y-83571710D01*
X122736500Y-83814289D01*
X100299000Y-83814289D01*
X100299000Y-83280941D01*
X100298999Y-83280935D01*
X100288386Y-83192556D01*
X100232919Y-83051904D01*
X100141564Y-82931435D01*
X100021095Y-82840080D01*
X99880443Y-82784613D01*
X99792064Y-82774000D01*
X99299001Y-82774000D01*
X99299000Y-82774001D01*
X99299000Y-83596554D01*
X99214826Y-83574000D01*
X99083174Y-83574000D01*
X98999000Y-83596554D01*
X98999000Y-82774001D01*
X98998999Y-82774000D01*
X98505935Y-82774000D01*
X98417556Y-82784613D01*
X98276904Y-82840080D01*
X98156435Y-82931435D01*
X98065080Y-83051904D01*
X98009613Y-83192556D01*
X97999000Y-83280935D01*
X97999000Y-83923999D01*
X97999001Y-83924000D01*
X98671555Y-83924000D01*
X98649000Y-84008174D01*
X98649000Y-84139826D01*
X98671555Y-84224000D01*
X97999001Y-84224000D01*
X97999000Y-84224001D01*
X97999000Y-84867064D01*
X97542080Y-84867064D01*
X97590232Y-84800788D01*
X97668873Y-84646445D01*
X97668874Y-84646440D01*
X97668876Y-84646438D01*
X97722401Y-84481706D01*
X97722402Y-84481702D01*
X97749500Y-84310614D01*
X97749500Y-83837385D01*
X97722402Y-83666297D01*
X97722401Y-83666293D01*
X97668876Y-83501561D01*
X97668874Y-83501558D01*
X97668873Y-83501557D01*
X97668873Y-83501555D01*
X97590232Y-83347212D01*
X97488414Y-83207072D01*
X97365928Y-83084586D01*
X97225788Y-82982768D01*
X97225787Y-82982767D01*
X97225785Y-82982766D01*
X97071441Y-82904125D01*
X97071438Y-82904123D01*
X96906706Y-82850598D01*
X96906702Y-82850597D01*
X96735614Y-82823500D01*
X96735611Y-82823500D01*
X96562389Y-82823500D01*
X96562386Y-82823500D01*
X96391297Y-82850597D01*
X96391293Y-82850598D01*
X96226561Y-82904123D01*
X96226558Y-82904125D01*
X96072214Y-82982766D01*
X95932073Y-83084585D01*
X95809585Y-83207073D01*
X95707766Y-83347214D01*
X95629125Y-83501558D01*
X95629123Y-83501561D01*
X95575598Y-83666293D01*
X95575597Y-83666297D01*
X95548500Y-83837385D01*
X95548500Y-84310614D01*
X91740500Y-84310614D01*
X91740499Y-83276128D01*
X91734091Y-83216517D01*
X91702502Y-83131822D01*
X91683797Y-83081670D01*
X91597549Y-82966458D01*
X91597548Y-82966457D01*
X91597546Y-82966454D01*
X91597541Y-82966450D01*
X91482329Y-82880202D01*
X91347488Y-82829910D01*
X91347483Y-82829909D01*
X91347481Y-82829908D01*
X91347477Y-82829908D01*
X91316249Y-82826550D01*
X91287873Y-82823500D01*
X91287870Y-82823500D01*
X89992133Y-82823500D01*
X89992129Y-82823500D01*
X89992128Y-82823501D01*
X89984949Y-82824272D01*
X89932519Y-82829908D01*
X89932514Y-82829909D01*
X89797670Y-82880202D01*
X89682458Y-82966450D01*
X89682450Y-82966458D01*
X89596202Y-83081670D01*
X89545910Y-83216511D01*
X89545908Y-83216522D01*
X89539500Y-83276129D01*
X89539500Y-84871866D01*
X89029591Y-84871866D01*
X89081232Y-84800788D01*
X89159873Y-84646445D01*
X89159874Y-84646440D01*
X89159876Y-84646438D01*
X89213401Y-84481706D01*
X89213402Y-84481702D01*
X89240500Y-84310614D01*
X89240500Y-83837385D01*
X89213402Y-83666297D01*
X89213401Y-83666293D01*
X89159876Y-83501561D01*
X89159874Y-83501558D01*
X89159873Y-83501557D01*
X89159873Y-83501555D01*
X89081232Y-83347212D01*
X88979414Y-83207072D01*
X88856928Y-83084586D01*
X88716788Y-82982768D01*
X88716787Y-82982767D01*
X88716785Y-82982766D01*
X88562441Y-82904125D01*
X88562438Y-82904123D01*
X88397706Y-82850598D01*
X88397702Y-82850597D01*
X88226614Y-82823500D01*
X88226611Y-82823500D01*
X88053389Y-82823500D01*
X88053386Y-82823500D01*
X87882297Y-82850597D01*
X87882293Y-82850598D01*
X87717561Y-82904123D01*
X87717558Y-82904125D01*
X87563214Y-82982766D01*
X87423073Y-83084585D01*
X87300585Y-83207073D01*
X87198766Y-83347214D01*
X87120125Y-83501558D01*
X87120123Y-83501561D01*
X87066598Y-83666293D01*
X87066597Y-83666297D01*
X87039500Y-83837385D01*
X87039500Y-84310614D01*
X83450410Y-84310614D01*
X83479838Y-84200789D01*
X83511500Y-83960288D01*
X83511500Y-83717712D01*
X83479838Y-83477211D01*
X83417054Y-83242900D01*
X83324224Y-83018788D01*
X83202936Y-82808711D01*
X83160251Y-82753083D01*
X83055270Y-82616268D01*
X83055268Y-82616266D01*
X83055265Y-82616262D01*
X82989003Y-82550000D01*
X104812785Y-82550000D01*
X104831603Y-82753083D01*
X104887418Y-82949250D01*
X104978327Y-83131821D01*
X105101236Y-83294579D01*
X105251959Y-83431981D01*
X105425363Y-83539348D01*
X105615544Y-83613024D01*
X105816024Y-83650500D01*
X106019976Y-83650500D01*
X106220456Y-83613024D01*
X106410637Y-83539348D01*
X106584041Y-83431981D01*
X106734764Y-83294579D01*
X106857673Y-83131821D01*
X106948582Y-82949250D01*
X107004397Y-82753083D01*
X107023215Y-82550000D01*
X107004397Y-82346917D01*
X106948582Y-82150750D01*
X106857673Y-81968179D01*
X106734764Y-81805421D01*
X106584041Y-81668019D01*
X106410637Y-81560652D01*
X106220456Y-81486976D01*
X106220455Y-81486975D01*
X106220453Y-81486975D01*
X106019976Y-81449500D01*
X105816024Y-81449500D01*
X105615546Y-81486975D01*
X105545632Y-81514059D01*
X105425363Y-81560652D01*
X105251959Y-81668019D01*
X105101237Y-81805420D01*
X104978328Y-81968177D01*
X104978323Y-81968186D01*
X104921181Y-82082944D01*
X104887418Y-82150750D01*
X104831603Y-82346917D01*
X104812785Y-82550000D01*
X82989003Y-82550000D01*
X82883738Y-82444735D01*
X82883733Y-82444731D01*
X82883731Y-82444729D01*
X82691292Y-82297066D01*
X82691289Y-82297064D01*
X82481212Y-82175776D01*
X82481208Y-82175774D01*
X82481204Y-82175772D01*
X82257105Y-82082948D01*
X82257104Y-82082947D01*
X82257100Y-82082946D01*
X82022789Y-82020162D01*
X82022786Y-82020161D01*
X82022784Y-82020161D01*
X81782289Y-81988500D01*
X81782288Y-81988500D01*
X81539712Y-81988500D01*
X81539710Y-81988500D01*
X81299218Y-82020161D01*
X81299213Y-82020161D01*
X81064907Y-82082944D01*
X81064894Y-82082948D01*
X80840795Y-82175772D01*
X80630707Y-82297066D01*
X80438268Y-82444729D01*
X80266729Y-82616268D01*
X80119066Y-82808707D01*
X79997772Y-83018795D01*
X79904948Y-83242894D01*
X79904944Y-83242907D01*
X79842161Y-83477213D01*
X79842161Y-83477218D01*
X79816268Y-83673901D01*
X79810500Y-83717712D01*
X79810500Y-83960288D01*
X78359000Y-83960288D01*
X78359000Y-76978672D01*
X99325500Y-76978672D01*
X99325501Y-76978684D01*
X99340033Y-77051736D01*
X99340035Y-77051742D01*
X99395397Y-77134599D01*
X99395399Y-77134601D01*
X99478260Y-77189966D01*
X99533808Y-77201015D01*
X99551315Y-77204498D01*
X99551320Y-77204498D01*
X99551326Y-77204500D01*
X99551327Y-77204500D01*
X100600673Y-77204500D01*
X100600674Y-77204500D01*
X100673740Y-77189966D01*
X100756601Y-77134601D01*
X100811966Y-77051740D01*
X100826500Y-76978674D01*
X100826500Y-76903500D01*
X100845407Y-76845309D01*
X100894907Y-76809345D01*
X100925500Y-76804500D01*
X101174717Y-76804500D01*
X101232908Y-76823407D01*
X101267283Y-76868393D01*
X101273778Y-76885520D01*
X101273779Y-76885521D01*
X101363515Y-77015528D01*
X101363516Y-77015529D01*
X101363517Y-77015530D01*
X101481760Y-77120283D01*
X101621635Y-77193696D01*
X101775015Y-77231500D01*
X101775018Y-77231500D01*
X101932982Y-77231500D01*
X101932985Y-77231500D01*
X102086365Y-77193696D01*
X102226240Y-77120283D01*
X102344483Y-77015530D01*
X102434220Y-76885523D01*
X102490237Y-76737818D01*
X102509278Y-76581000D01*
X102507327Y-76564935D01*
X102490237Y-76424183D01*
X102490237Y-76424182D01*
X102434220Y-76276477D01*
X102344483Y-76146470D01*
X102226240Y-76041717D01*
X102155330Y-76004500D01*
X102086364Y-75968303D01*
X101932987Y-75930500D01*
X101932985Y-75930500D01*
X101775015Y-75930500D01*
X101775012Y-75930500D01*
X101621635Y-75968303D01*
X101481758Y-76041718D01*
X101440124Y-76078603D01*
X101384030Y-76103038D01*
X101374475Y-76103500D01*
X100925500Y-76103500D01*
X100867309Y-76084593D01*
X100831345Y-76035093D01*
X100826500Y-76004500D01*
X100826500Y-75929327D01*
X100826498Y-75929315D01*
X100813908Y-75866024D01*
X100811966Y-75856260D01*
X100769262Y-75792348D01*
X100756602Y-75773400D01*
X100756599Y-75773397D01*
X100673742Y-75718035D01*
X100673740Y-75718034D01*
X100673737Y-75718033D01*
X100673736Y-75718033D01*
X100600684Y-75703501D01*
X100600674Y-75703500D01*
X99551326Y-75703500D01*
X99551325Y-75703500D01*
X99551315Y-75703501D01*
X99478263Y-75718033D01*
X99478257Y-75718035D01*
X99395400Y-75773397D01*
X99395397Y-75773400D01*
X99340035Y-75856257D01*
X99340033Y-75856263D01*
X99325501Y-75929315D01*
X99325500Y-75929327D01*
X99325500Y-76978672D01*
X78359000Y-76978672D01*
X78359000Y-74438672D01*
X81545500Y-74438672D01*
X81545501Y-74438684D01*
X81560033Y-74511736D01*
X81560035Y-74511742D01*
X81615397Y-74594599D01*
X81615399Y-74594601D01*
X81698260Y-74649966D01*
X81753808Y-74661015D01*
X81771315Y-74664498D01*
X81771320Y-74664498D01*
X81771326Y-74664500D01*
X81771327Y-74664500D01*
X82820673Y-74664500D01*
X82820674Y-74664500D01*
X82893740Y-74649966D01*
X82976601Y-74594601D01*
X83031966Y-74511740D01*
X83035458Y-74494183D01*
X83065354Y-74440802D01*
X83120919Y-74415186D01*
X83132555Y-74414500D01*
X83963437Y-74414500D01*
X84021628Y-74433407D01*
X84029087Y-74439398D01*
X84044760Y-74453283D01*
X84184635Y-74526696D01*
X84338015Y-74564500D01*
X84338018Y-74564500D01*
X84495982Y-74564500D01*
X84495985Y-74564500D01*
X84649365Y-74526696D01*
X84789240Y-74453283D01*
X84907483Y-74348530D01*
X84997220Y-74218523D01*
X85053237Y-74070818D01*
X85060899Y-74007709D01*
X85086682Y-73952223D01*
X85089145Y-73949667D01*
X87865500Y-71173314D01*
X87871743Y-71162501D01*
X87931390Y-71059190D01*
X87931390Y-71059188D01*
X87931392Y-71059186D01*
X87965500Y-70931892D01*
X87965500Y-70800108D01*
X87965500Y-62478322D01*
X87984407Y-62420131D01*
X87994496Y-62408318D01*
X90668318Y-59734496D01*
X90722835Y-59706719D01*
X90738322Y-59705500D01*
X90845982Y-59705500D01*
X90845985Y-59705500D01*
X90999365Y-59667696D01*
X91139240Y-59594283D01*
X91257483Y-59489530D01*
X91347220Y-59359523D01*
X91403237Y-59211818D01*
X91422278Y-59055000D01*
X91403237Y-58898182D01*
X91347220Y-58750477D01*
X91257483Y-58620470D01*
X91139240Y-58515717D01*
X91069302Y-58479010D01*
X90999364Y-58442303D01*
X90845987Y-58404500D01*
X90845985Y-58404500D01*
X90688015Y-58404500D01*
X90688012Y-58404500D01*
X90534635Y-58442303D01*
X90394758Y-58515718D01*
X90276515Y-58620471D01*
X90186778Y-58750480D01*
X90163811Y-58811038D01*
X90141249Y-58845935D01*
X87230328Y-61756857D01*
X87175811Y-61784634D01*
X87160288Y-61782175D01*
X87162299Y-61802908D01*
X87135635Y-61851549D01*
X87064501Y-61922684D01*
X87064496Y-61922690D01*
X86998609Y-62036809D01*
X86964500Y-62164109D01*
X86964500Y-70617678D01*
X86945593Y-70675869D01*
X86935504Y-70687682D01*
X84386288Y-73236897D01*
X84339976Y-73263016D01*
X84184636Y-73301303D01*
X84044758Y-73374718D01*
X84029087Y-73388602D01*
X83972993Y-73413038D01*
X83963437Y-73413500D01*
X83132555Y-73413500D01*
X83074364Y-73394593D01*
X83038400Y-73345093D01*
X83035460Y-73333826D01*
X83031966Y-73316260D01*
X82996390Y-73263016D01*
X82976602Y-73233400D01*
X82976599Y-73233397D01*
X82893742Y-73178035D01*
X82893740Y-73178034D01*
X82893737Y-73178033D01*
X82893736Y-73178033D01*
X82820684Y-73163501D01*
X82820674Y-73163500D01*
X81771326Y-73163500D01*
X81771325Y-73163500D01*
X81771315Y-73163501D01*
X81698263Y-73178033D01*
X81698257Y-73178035D01*
X81615400Y-73233397D01*
X81615397Y-73233400D01*
X81560035Y-73316257D01*
X81560033Y-73316263D01*
X81545501Y-73389315D01*
X81545500Y-73389327D01*
X81545500Y-74438672D01*
X78359000Y-74438672D01*
X78359000Y-67818001D01*
X81087722Y-67818001D01*
X81106762Y-67974816D01*
X81106763Y-67974818D01*
X81162780Y-68122523D01*
X81252515Y-68252528D01*
X81252516Y-68252529D01*
X81252517Y-68252530D01*
X81370760Y-68357283D01*
X81510635Y-68430696D01*
X81664015Y-68468500D01*
X81664018Y-68468500D01*
X81821983Y-68468500D01*
X81821985Y-68468500D01*
X81830812Y-68466324D01*
X81891837Y-68470753D01*
X81904009Y-68476710D01*
X81908788Y-68479469D01*
X81988712Y-68525614D01*
X82077856Y-68549500D01*
X83859500Y-68549500D01*
X83917691Y-68568407D01*
X83953655Y-68617907D01*
X83958500Y-68648500D01*
X83958500Y-68723672D01*
X83958501Y-68723684D01*
X83973033Y-68796736D01*
X83973035Y-68796742D01*
X84028397Y-68879599D01*
X84028399Y-68879601D01*
X84111260Y-68934966D01*
X84166808Y-68946015D01*
X84184315Y-68949498D01*
X84184320Y-68949498D01*
X84184326Y-68949500D01*
X84184327Y-68949500D01*
X85233673Y-68949500D01*
X85233674Y-68949500D01*
X85306740Y-68934966D01*
X85389601Y-68879601D01*
X85444966Y-68796740D01*
X85459500Y-68723674D01*
X85459500Y-67674326D01*
X85457764Y-67665601D01*
X85446247Y-67607702D01*
X85444966Y-67601260D01*
X85432219Y-67582182D01*
X85389602Y-67518400D01*
X85389599Y-67518397D01*
X85306742Y-67463035D01*
X85306740Y-67463034D01*
X85306737Y-67463033D01*
X85306736Y-67463033D01*
X85233684Y-67448501D01*
X85233674Y-67448500D01*
X84184326Y-67448500D01*
X84184325Y-67448500D01*
X84184315Y-67448501D01*
X84111263Y-67463033D01*
X84111257Y-67463035D01*
X84028400Y-67518397D01*
X84028397Y-67518400D01*
X83973035Y-67601257D01*
X83973033Y-67601263D01*
X83958501Y-67674315D01*
X83958500Y-67674327D01*
X83958500Y-67749500D01*
X83939593Y-67807691D01*
X83890093Y-67843655D01*
X83859500Y-67848500D01*
X82489688Y-67848500D01*
X82431497Y-67829593D01*
X82395533Y-67780093D01*
X82391410Y-67761434D01*
X82385427Y-67712165D01*
X82379237Y-67661182D01*
X82323220Y-67513477D01*
X82244747Y-67399789D01*
X82233484Y-67383471D01*
X82115241Y-67278718D01*
X82115240Y-67278717D01*
X82045302Y-67242010D01*
X81975364Y-67205303D01*
X81821987Y-67167500D01*
X81821985Y-67167500D01*
X81664015Y-67167500D01*
X81664012Y-67167500D01*
X81510635Y-67205303D01*
X81370758Y-67278718D01*
X81252515Y-67383471D01*
X81162780Y-67513476D01*
X81106763Y-67661182D01*
X81106762Y-67661183D01*
X81087722Y-67817998D01*
X81087722Y-67818001D01*
X78359000Y-67818001D01*
X78359000Y-63214918D01*
X78892500Y-63214918D01*
X78921342Y-63359914D01*
X78957305Y-63446736D01*
X78977916Y-63496495D01*
X79060049Y-63619416D01*
X79164584Y-63723951D01*
X79287505Y-63806084D01*
X79424087Y-63862658D01*
X79569082Y-63891500D01*
X79569083Y-63891500D01*
X80516917Y-63891500D01*
X80516918Y-63891500D01*
X80661913Y-63862658D01*
X80798495Y-63806084D01*
X80921416Y-63723951D01*
X81025951Y-63619416D01*
X81108084Y-63496495D01*
X81164658Y-63359913D01*
X81193500Y-63214918D01*
X82922500Y-63214918D01*
X82951342Y-63359914D01*
X82987305Y-63446736D01*
X83007916Y-63496495D01*
X83090049Y-63619416D01*
X83194584Y-63723951D01*
X83317505Y-63806084D01*
X83454087Y-63862658D01*
X83599082Y-63891500D01*
X83599083Y-63891500D01*
X84846917Y-63891500D01*
X84846918Y-63891500D01*
X84991913Y-63862658D01*
X85128495Y-63806084D01*
X85251416Y-63723951D01*
X85355951Y-63619416D01*
X85438084Y-63496495D01*
X85494658Y-63359913D01*
X85523500Y-63214918D01*
X85523500Y-63067082D01*
X85494658Y-62922087D01*
X85438084Y-62785505D01*
X85355951Y-62662584D01*
X85251416Y-62558049D01*
X85128495Y-62475916D01*
X85128493Y-62475915D01*
X84991914Y-62419342D01*
X84846918Y-62390500D01*
X84066546Y-62390500D01*
X84008355Y-62371593D01*
X83972391Y-62322093D01*
X83972391Y-62260907D01*
X84008355Y-62211407D01*
X84017046Y-62205764D01*
X84076360Y-62171518D01*
X84076360Y-62171517D01*
X84076365Y-62171515D01*
X84183515Y-62064365D01*
X84199425Y-62036809D01*
X84259279Y-61933139D01*
X84259279Y-61933137D01*
X84259281Y-61933135D01*
X84298500Y-61786766D01*
X84298500Y-61635234D01*
X84259281Y-61488865D01*
X84259279Y-61488862D01*
X84259279Y-61488860D01*
X84183518Y-61357639D01*
X84183516Y-61357637D01*
X84183515Y-61357635D01*
X84076365Y-61250485D01*
X84076362Y-61250483D01*
X84076360Y-61250481D01*
X83945138Y-61174720D01*
X83945140Y-61174720D01*
X83888347Y-61159503D01*
X83798766Y-61135500D01*
X83647234Y-61135500D01*
X83557652Y-61159503D01*
X83500860Y-61174720D01*
X83369639Y-61250481D01*
X83262481Y-61357639D01*
X83186720Y-61488860D01*
X83166298Y-61565077D01*
X83147500Y-61635234D01*
X83147500Y-61786766D01*
X83168328Y-61864499D01*
X83186720Y-61933139D01*
X83262481Y-62064360D01*
X83262483Y-62064362D01*
X83262485Y-62064365D01*
X83369635Y-62171515D01*
X83369637Y-62171516D01*
X83369639Y-62171518D01*
X83482734Y-62236814D01*
X83523675Y-62282283D01*
X83530071Y-62343134D01*
X83499478Y-62396122D01*
X83458380Y-62416726D01*
X83458745Y-62417929D01*
X83454085Y-62419342D01*
X83317506Y-62475915D01*
X83194585Y-62558048D01*
X83090048Y-62662585D01*
X83007915Y-62785506D01*
X82951342Y-62922085D01*
X82922500Y-63067081D01*
X82922500Y-63214918D01*
X81193500Y-63214918D01*
X81193500Y-63067082D01*
X81164658Y-62922087D01*
X81108084Y-62785505D01*
X81025951Y-62662584D01*
X80921416Y-62558049D01*
X80798495Y-62475916D01*
X80798493Y-62475915D01*
X80661914Y-62419342D01*
X80516918Y-62390500D01*
X79569082Y-62390500D01*
X79569081Y-62390500D01*
X79424085Y-62419342D01*
X79287506Y-62475915D01*
X79164585Y-62558048D01*
X79060048Y-62662585D01*
X78977915Y-62785506D01*
X78921342Y-62922085D01*
X78892500Y-63067081D01*
X78892500Y-63214918D01*
X78359000Y-63214918D01*
X78359000Y-61611672D01*
X80224700Y-61611672D01*
X80224701Y-61611684D01*
X80239233Y-61684736D01*
X80239235Y-61684742D01*
X80294597Y-61767599D01*
X80294600Y-61767602D01*
X80377457Y-61822964D01*
X80377460Y-61822966D01*
X80433008Y-61834015D01*
X80450515Y-61837498D01*
X80450520Y-61837498D01*
X80450526Y-61837500D01*
X80450527Y-61837500D01*
X81499873Y-61837500D01*
X81499874Y-61837500D01*
X81572940Y-61822966D01*
X81655801Y-61767601D01*
X81711166Y-61684740D01*
X81719255Y-61644074D01*
X81749151Y-61590693D01*
X81804717Y-61565077D01*
X81864726Y-61577014D01*
X81882000Y-61589287D01*
X81923760Y-61626283D01*
X82063635Y-61699696D01*
X82217015Y-61737500D01*
X82217018Y-61737500D01*
X82374982Y-61737500D01*
X82374985Y-61737500D01*
X82528365Y-61699696D01*
X82668240Y-61626283D01*
X82786483Y-61521530D01*
X82876220Y-61391523D01*
X82932237Y-61243818D01*
X82951278Y-61087000D01*
X82949418Y-61071684D01*
X82932237Y-60930183D01*
X82932237Y-60930182D01*
X82876220Y-60782477D01*
X82786483Y-60652470D01*
X82668240Y-60547717D01*
X82556861Y-60489260D01*
X82528364Y-60474303D01*
X82374987Y-60436500D01*
X82374985Y-60436500D01*
X82217015Y-60436500D01*
X82217012Y-60436500D01*
X82063635Y-60474303D01*
X81923755Y-60547719D01*
X81882000Y-60584711D01*
X81825906Y-60609146D01*
X81766162Y-60595942D01*
X81725589Y-60550144D01*
X81719255Y-60529927D01*
X81711166Y-60489260D01*
X81655801Y-60406399D01*
X81655799Y-60406397D01*
X81572942Y-60351035D01*
X81572940Y-60351034D01*
X81572937Y-60351033D01*
X81572936Y-60351033D01*
X81499884Y-60336501D01*
X81499874Y-60336500D01*
X80450526Y-60336500D01*
X80450525Y-60336500D01*
X80450515Y-60336501D01*
X80377463Y-60351033D01*
X80377457Y-60351035D01*
X80294600Y-60406397D01*
X80294597Y-60406400D01*
X80239235Y-60489257D01*
X80239233Y-60489263D01*
X80224701Y-60562315D01*
X80224700Y-60562327D01*
X80224700Y-61611672D01*
X78359000Y-61611672D01*
X78359000Y-59198672D01*
X84212500Y-59198672D01*
X84212501Y-59198684D01*
X84227033Y-59271736D01*
X84227035Y-59271742D01*
X84282397Y-59354599D01*
X84282399Y-59354601D01*
X84365260Y-59409966D01*
X84420808Y-59421015D01*
X84438315Y-59424498D01*
X84438320Y-59424498D01*
X84438326Y-59424500D01*
X84513500Y-59424500D01*
X84571691Y-59443407D01*
X84607655Y-59492907D01*
X84612500Y-59523500D01*
X84612500Y-59647144D01*
X84632156Y-59720501D01*
X84636386Y-59736288D01*
X84682530Y-59816212D01*
X85302818Y-60436500D01*
X85903917Y-61037599D01*
X85931694Y-61092116D01*
X85932191Y-61119535D01*
X85920722Y-61213997D01*
X85920722Y-61214001D01*
X85939762Y-61370816D01*
X85939763Y-61370818D01*
X85965052Y-61437500D01*
X85995780Y-61518523D01*
X86085515Y-61648528D01*
X86085516Y-61648529D01*
X86085517Y-61648530D01*
X86203760Y-61753283D01*
X86343635Y-61826696D01*
X86497015Y-61864500D01*
X86497018Y-61864500D01*
X86654982Y-61864500D01*
X86654985Y-61864500D01*
X86808365Y-61826696D01*
X86948240Y-61753283D01*
X86999983Y-61707443D01*
X87056075Y-61683008D01*
X87064688Y-61684911D01*
X87062543Y-61671366D01*
X87078849Y-61630615D01*
X87156217Y-61518527D01*
X87156220Y-61518523D01*
X87212237Y-61370818D01*
X87226848Y-61250481D01*
X87231278Y-61214001D01*
X87231278Y-61213998D01*
X87215858Y-61087001D01*
X87212237Y-61057182D01*
X87156220Y-60909477D01*
X87094024Y-60819370D01*
X87076500Y-60763132D01*
X87076500Y-56785672D01*
X88657500Y-56785672D01*
X88657501Y-56785684D01*
X88672033Y-56858736D01*
X88672035Y-56858742D01*
X88727397Y-56941599D01*
X88727400Y-56941602D01*
X88746523Y-56954379D01*
X88810260Y-56996966D01*
X88865808Y-57008015D01*
X88883315Y-57011498D01*
X88883320Y-57011498D01*
X88883326Y-57011500D01*
X88883327Y-57011500D01*
X89932673Y-57011500D01*
X89932674Y-57011500D01*
X90005740Y-56996966D01*
X90088601Y-56941601D01*
X90143966Y-56858740D01*
X90158500Y-56785674D01*
X90158500Y-55736326D01*
X90143966Y-55663260D01*
X90120397Y-55627986D01*
X90088602Y-55580400D01*
X90088599Y-55580397D01*
X90005742Y-55525035D01*
X90005740Y-55525034D01*
X90005737Y-55525033D01*
X90005736Y-55525033D01*
X89932684Y-55510501D01*
X89932674Y-55510500D01*
X89932673Y-55510500D01*
X89857500Y-55510500D01*
X89799309Y-55491593D01*
X89763345Y-55442093D01*
X89758500Y-55411500D01*
X89758500Y-54544434D01*
X89777407Y-54486243D01*
X89791852Y-54470331D01*
X89860482Y-54409531D01*
X89860482Y-54409530D01*
X89860483Y-54409530D01*
X89888968Y-54368262D01*
X89937584Y-54331112D01*
X89970444Y-54325500D01*
X94644810Y-54325500D01*
X94703001Y-54344407D01*
X94714814Y-54354496D01*
X96799504Y-56439186D01*
X96827281Y-56493703D01*
X96828500Y-56509190D01*
X96828500Y-68281094D01*
X96832151Y-68294718D01*
X96848915Y-68357283D01*
X96848915Y-68357284D01*
X96851813Y-68368102D01*
X96852386Y-68370238D01*
X96898530Y-68450162D01*
X98959838Y-70511470D01*
X99039762Y-70557614D01*
X99128906Y-70581500D01*
X99128908Y-70581500D01*
X104275142Y-70581500D01*
X104275144Y-70581500D01*
X104364288Y-70557614D01*
X104444212Y-70511470D01*
X105233270Y-69722412D01*
X105279414Y-69642488D01*
X105303300Y-69553344D01*
X105303300Y-69461056D01*
X105303300Y-68268699D01*
X105322207Y-68210508D01*
X105336647Y-68194599D01*
X105443283Y-68100130D01*
X105533020Y-67970123D01*
X105589037Y-67822418D01*
X105602424Y-67712165D01*
X105608078Y-67665601D01*
X105608078Y-67665598D01*
X105589037Y-67508783D01*
X105589037Y-67508782D01*
X105533020Y-67361077D01*
X105443283Y-67231070D01*
X105325040Y-67126317D01*
X105233558Y-67078303D01*
X105185164Y-67052903D01*
X105031787Y-67015100D01*
X105031785Y-67015100D01*
X104873815Y-67015100D01*
X104873812Y-67015100D01*
X104720435Y-67052903D01*
X104580558Y-67126318D01*
X104462315Y-67231071D01*
X104372579Y-67361077D01*
X104361149Y-67391217D01*
X104322835Y-67438921D01*
X104263798Y-67454993D01*
X104206589Y-67433296D01*
X104176016Y-67391214D01*
X104174220Y-67386477D01*
X104098651Y-67276996D01*
X104084484Y-67256471D01*
X103984056Y-67167500D01*
X103966240Y-67151717D01*
X103896302Y-67115010D01*
X103826364Y-67078303D01*
X103672987Y-67040500D01*
X103672985Y-67040500D01*
X103515015Y-67040500D01*
X103515012Y-67040500D01*
X103361635Y-67078303D01*
X103221758Y-67151718D01*
X103103515Y-67256471D01*
X103013780Y-67386476D01*
X102957763Y-67534182D01*
X102957763Y-67534183D01*
X102950100Y-67597288D01*
X102924316Y-67652775D01*
X102921826Y-67655358D01*
X101637682Y-68939504D01*
X101583165Y-68967281D01*
X101567678Y-68968500D01*
X99856563Y-68968500D01*
X99798372Y-68949593D01*
X99790913Y-68943602D01*
X99775241Y-68929718D01*
X99775240Y-68929717D01*
X99679753Y-68879601D01*
X99635364Y-68856303D01*
X99480023Y-68818016D01*
X99433711Y-68791897D01*
X98408496Y-67766682D01*
X98380719Y-67712165D01*
X98379500Y-67696678D01*
X98379500Y-62934866D01*
X98397024Y-62878628D01*
X98459220Y-62788523D01*
X98515237Y-62640818D01*
X98534278Y-62484000D01*
X98533296Y-62475916D01*
X98515237Y-62327183D01*
X98515237Y-62327182D01*
X98459220Y-62179477D01*
X98397024Y-62089370D01*
X98379500Y-62033132D01*
X98379500Y-56904021D01*
X98739702Y-56904021D01*
X98758742Y-57060836D01*
X98758743Y-57060838D01*
X98778427Y-57112740D01*
X98814760Y-57208543D01*
X98904495Y-57338548D01*
X98904496Y-57338549D01*
X98904497Y-57338550D01*
X99019149Y-57440122D01*
X99050168Y-57492861D01*
X99052500Y-57514224D01*
X99052500Y-60117144D01*
X99075532Y-60203100D01*
X99075530Y-60203100D01*
X99075533Y-60203105D01*
X99076385Y-60206286D01*
X99076387Y-60206291D01*
X99101090Y-60249077D01*
X99122530Y-60286212D01*
X100050315Y-61213997D01*
X100971366Y-62135048D01*
X100999143Y-62189565D01*
X100989572Y-62249997D01*
X100946307Y-62293262D01*
X100885875Y-62302833D01*
X100855356Y-62292712D01*
X100814397Y-62271215D01*
X100778364Y-62252303D01*
X100624987Y-62214500D01*
X100624985Y-62214500D01*
X100467015Y-62214500D01*
X100467012Y-62214500D01*
X100313635Y-62252303D01*
X100173758Y-62325718D01*
X100055515Y-62430471D01*
X99965780Y-62560476D01*
X99909763Y-62708182D01*
X99909762Y-62708183D01*
X99890722Y-62864998D01*
X99890722Y-62865001D01*
X99909762Y-63021816D01*
X99909763Y-63021818D01*
X99926930Y-63067083D01*
X99965780Y-63169523D01*
X100055515Y-63299528D01*
X100055516Y-63299529D01*
X100055517Y-63299530D01*
X100162149Y-63393997D01*
X100193168Y-63446736D01*
X100195500Y-63468099D01*
X100195500Y-65024602D01*
X100176593Y-65082793D01*
X100166503Y-65094606D01*
X99743076Y-65518032D01*
X99688560Y-65545809D01*
X99649388Y-65544153D01*
X99642764Y-65542520D01*
X99642758Y-65542520D01*
X99484788Y-65542520D01*
X99484785Y-65542520D01*
X99331408Y-65580323D01*
X99191531Y-65653738D01*
X99073288Y-65758491D01*
X98983553Y-65888496D01*
X98927536Y-66036202D01*
X98927535Y-66036203D01*
X98908495Y-66193018D01*
X98908495Y-66193021D01*
X98927535Y-66349836D01*
X98927536Y-66349837D01*
X98983553Y-66497543D01*
X99073288Y-66627548D01*
X99073289Y-66627549D01*
X99073290Y-66627550D01*
X99191533Y-66732303D01*
X99331408Y-66805716D01*
X99484788Y-66843520D01*
X99484791Y-66843520D01*
X99642755Y-66843520D01*
X99642758Y-66843520D01*
X99796138Y-66805716D01*
X99936013Y-66732303D01*
X100054256Y-66627550D01*
X100082741Y-66586282D01*
X100131357Y-66549132D01*
X100164217Y-66543520D01*
X100496500Y-66543520D01*
X100554691Y-66562427D01*
X100590655Y-66611927D01*
X100595500Y-66642520D01*
X100595500Y-66818672D01*
X100595501Y-66818684D01*
X100610033Y-66891736D01*
X100610035Y-66891742D01*
X100665397Y-66974599D01*
X100665399Y-66974601D01*
X100748260Y-67029966D01*
X100801217Y-67040500D01*
X100821315Y-67044498D01*
X100821320Y-67044498D01*
X100821326Y-67044500D01*
X100821327Y-67044500D01*
X101870673Y-67044500D01*
X101870674Y-67044500D01*
X101943740Y-67029966D01*
X102026601Y-66974601D01*
X102081966Y-66891740D01*
X102096500Y-66818674D01*
X102096500Y-65769326D01*
X102081966Y-65696260D01*
X102026601Y-65613399D01*
X102026599Y-65613397D01*
X101943742Y-65558035D01*
X101943740Y-65558034D01*
X101943737Y-65558033D01*
X101943736Y-65558033D01*
X101870684Y-65543501D01*
X101870674Y-65543500D01*
X100930107Y-65543500D01*
X100871916Y-65524593D01*
X100835952Y-65475093D01*
X100835952Y-65413907D01*
X100844367Y-65395005D01*
X100872614Y-65346081D01*
X100896500Y-65256936D01*
X100896500Y-65164649D01*
X100896500Y-63468099D01*
X100915407Y-63409908D01*
X100929847Y-63393999D01*
X101036483Y-63299530D01*
X101126220Y-63169523D01*
X101182237Y-63021818D01*
X101201278Y-62865000D01*
X101182237Y-62708182D01*
X101126220Y-62560477D01*
X101126218Y-62560474D01*
X101124450Y-62555812D01*
X101121494Y-62494698D01*
X101155025Y-62443518D01*
X101212234Y-62421822D01*
X101271270Y-62437895D01*
X101287015Y-62450697D01*
X106389505Y-67553187D01*
X106417281Y-67607702D01*
X106418500Y-67623189D01*
X106418500Y-75687144D01*
X106441612Y-75773399D01*
X106442386Y-75776288D01*
X106488530Y-75856212D01*
X106962954Y-76330636D01*
X107435142Y-76802824D01*
X107462919Y-76857341D01*
X107453760Y-76916954D01*
X107440419Y-76943747D01*
X107440418Y-76943750D01*
X107384603Y-77139917D01*
X107365785Y-77343000D01*
X107384603Y-77546083D01*
X107440418Y-77742250D01*
X107531327Y-77924821D01*
X107654236Y-78087579D01*
X107804959Y-78224981D01*
X107978363Y-78332348D01*
X108168544Y-78406024D01*
X108369024Y-78443500D01*
X108572976Y-78443500D01*
X108773456Y-78406024D01*
X108963637Y-78332348D01*
X109137041Y-78224981D01*
X109287764Y-78087579D01*
X109410673Y-77924821D01*
X109498534Y-77748372D01*
X109541397Y-77704709D01*
X109587155Y-77693500D01*
X111037500Y-77693500D01*
X111095691Y-77712407D01*
X111131655Y-77761907D01*
X111136500Y-77792500D01*
X111136500Y-77867672D01*
X111136501Y-77867684D01*
X111151033Y-77940736D01*
X111151035Y-77940742D01*
X111206397Y-78023599D01*
X111206399Y-78023601D01*
X111289260Y-78078966D01*
X111332560Y-78087579D01*
X111362315Y-78093498D01*
X111362320Y-78093498D01*
X111362326Y-78093500D01*
X111362327Y-78093500D01*
X112411673Y-78093500D01*
X112411674Y-78093500D01*
X112484740Y-78078966D01*
X112567601Y-78023601D01*
X112622966Y-77940740D01*
X112637500Y-77867674D01*
X112637500Y-77493000D01*
X122569973Y-77493000D01*
X122575738Y-77555216D01*
X122634064Y-77760210D01*
X122729057Y-77950983D01*
X122729062Y-77950992D01*
X122857496Y-78121064D01*
X122857506Y-78121075D01*
X123014995Y-78264647D01*
X123014994Y-78264647D01*
X123196206Y-78376847D01*
X123394941Y-78453838D01*
X123560999Y-78484880D01*
X123561000Y-78484880D01*
X123561000Y-77820445D01*
X123645174Y-77843000D01*
X123776826Y-77843000D01*
X123861000Y-77820445D01*
X123861000Y-78484880D01*
X124027058Y-78453838D01*
X124225793Y-78376847D01*
X124407004Y-78264647D01*
X124564493Y-78121075D01*
X124564503Y-78121064D01*
X124692937Y-77950992D01*
X124692942Y-77950983D01*
X124787935Y-77760210D01*
X124846261Y-77555216D01*
X124852027Y-77493000D01*
X124188445Y-77493000D01*
X124211000Y-77408826D01*
X124211000Y-77277174D01*
X124188445Y-77193000D01*
X124852026Y-77193000D01*
X124846261Y-77130783D01*
X124787935Y-76925789D01*
X124692942Y-76735016D01*
X124692937Y-76735007D01*
X124564503Y-76564935D01*
X124564493Y-76564924D01*
X124407004Y-76421352D01*
X124407005Y-76421352D01*
X124225793Y-76309152D01*
X124027061Y-76232162D01*
X124027055Y-76232160D01*
X123861000Y-76201118D01*
X123861000Y-76865554D01*
X123776826Y-76843000D01*
X123645174Y-76843000D01*
X123561000Y-76865554D01*
X123561000Y-76201119D01*
X123560999Y-76201118D01*
X123394944Y-76232160D01*
X123394938Y-76232162D01*
X123196206Y-76309152D01*
X123014995Y-76421352D01*
X122857506Y-76564924D01*
X122857496Y-76564935D01*
X122729062Y-76735007D01*
X122729057Y-76735016D01*
X122634064Y-76925789D01*
X122575738Y-77130783D01*
X122569973Y-77193000D01*
X123233555Y-77193000D01*
X123211000Y-77277174D01*
X123211000Y-77408826D01*
X123233555Y-77493000D01*
X122569973Y-77493000D01*
X112637500Y-77493000D01*
X112637500Y-76818326D01*
X112622966Y-76745260D01*
X112622964Y-76745257D01*
X112567602Y-76662400D01*
X112567599Y-76662397D01*
X112484742Y-76607035D01*
X112484740Y-76607034D01*
X112484737Y-76607033D01*
X112484736Y-76607033D01*
X112411684Y-76592501D01*
X112411674Y-76592500D01*
X111362326Y-76592500D01*
X111362325Y-76592500D01*
X111362315Y-76592501D01*
X111289263Y-76607033D01*
X111289257Y-76607035D01*
X111206400Y-76662397D01*
X111206397Y-76662400D01*
X111151035Y-76745257D01*
X111151033Y-76745263D01*
X111136501Y-76818315D01*
X111136500Y-76818327D01*
X111136500Y-76893500D01*
X111117593Y-76951691D01*
X111068093Y-76987655D01*
X111037500Y-76992500D01*
X109587155Y-76992500D01*
X109528964Y-76973593D01*
X109498534Y-76937628D01*
X109456490Y-76853192D01*
X109410673Y-76761179D01*
X109287764Y-76598421D01*
X109137041Y-76461019D01*
X108963637Y-76353652D01*
X108773456Y-76279976D01*
X108773455Y-76279975D01*
X108773453Y-76279975D01*
X108572976Y-76242500D01*
X108369024Y-76242500D01*
X108168544Y-76279975D01*
X108037773Y-76330636D01*
X107976682Y-76334026D01*
X107932007Y-76308325D01*
X107148496Y-75524814D01*
X107120719Y-75470297D01*
X107119500Y-75454810D01*
X107119500Y-67390857D01*
X107119500Y-67390856D01*
X107095614Y-67301712D01*
X107081344Y-67276996D01*
X107081344Y-67276995D01*
X107049471Y-67221790D01*
X107049470Y-67221788D01*
X100381283Y-60553601D01*
X101147922Y-60553601D01*
X101166962Y-60710416D01*
X101166963Y-60710418D01*
X101198655Y-60793982D01*
X101222980Y-60858123D01*
X101312715Y-60988128D01*
X101312716Y-60988129D01*
X101312717Y-60988130D01*
X101430960Y-61092883D01*
X101479643Y-61118434D01*
X101519370Y-61156594D01*
X101522730Y-61162412D01*
X108091505Y-67731187D01*
X108119281Y-67785702D01*
X108120500Y-67801189D01*
X108120500Y-71063500D01*
X108101593Y-71121691D01*
X108052093Y-71157655D01*
X108021500Y-71162500D01*
X107596326Y-71162500D01*
X107596325Y-71162500D01*
X107596315Y-71162501D01*
X107523263Y-71177033D01*
X107523257Y-71177035D01*
X107440400Y-71232397D01*
X107440397Y-71232400D01*
X107385035Y-71315257D01*
X107385033Y-71315263D01*
X107370501Y-71388315D01*
X107370500Y-71388327D01*
X107370500Y-73137672D01*
X107370501Y-73137684D01*
X107385033Y-73210736D01*
X107385035Y-73210742D01*
X107440397Y-73293599D01*
X107440400Y-73293602D01*
X107491280Y-73327598D01*
X107523260Y-73348966D01*
X107578808Y-73360015D01*
X107596315Y-73363498D01*
X107596320Y-73363498D01*
X107596326Y-73363500D01*
X107596327Y-73363500D01*
X109175809Y-73363500D01*
X109234000Y-73382407D01*
X109269964Y-73431907D01*
X109269964Y-73493093D01*
X109245812Y-73532504D01*
X109009990Y-73768325D01*
X108955474Y-73796102D01*
X108904225Y-73790636D01*
X108773456Y-73739976D01*
X108773455Y-73739975D01*
X108773453Y-73739975D01*
X108572976Y-73702500D01*
X108369024Y-73702500D01*
X108168546Y-73739975D01*
X108098632Y-73767059D01*
X107978363Y-73813652D01*
X107804959Y-73921019D01*
X107654236Y-74058421D01*
X107644876Y-74070816D01*
X107531328Y-74221177D01*
X107531323Y-74221186D01*
X107443465Y-74397630D01*
X107440418Y-74403750D01*
X107384603Y-74599917D01*
X107365785Y-74803000D01*
X107384603Y-75006083D01*
X107440418Y-75202250D01*
X107531327Y-75384821D01*
X107654236Y-75547579D01*
X107804959Y-75684981D01*
X107978363Y-75792348D01*
X108168544Y-75866024D01*
X108369024Y-75903500D01*
X108572976Y-75903500D01*
X108773456Y-75866024D01*
X108963637Y-75792348D01*
X109137041Y-75684981D01*
X109287764Y-75547579D01*
X109410673Y-75384821D01*
X109498534Y-75208372D01*
X109541397Y-75164709D01*
X109587155Y-75153500D01*
X111037500Y-75153500D01*
X111095691Y-75172407D01*
X111131655Y-75221907D01*
X111136500Y-75252500D01*
X111136500Y-75327672D01*
X111136501Y-75327684D01*
X111151033Y-75400736D01*
X111151035Y-75400742D01*
X111206397Y-75483599D01*
X111206399Y-75483601D01*
X111289260Y-75538966D01*
X111332560Y-75547579D01*
X111362315Y-75553498D01*
X111362320Y-75553498D01*
X111362326Y-75553500D01*
X111362327Y-75553500D01*
X112411673Y-75553500D01*
X112411674Y-75553500D01*
X112484740Y-75538966D01*
X112567601Y-75483601D01*
X112622966Y-75400740D01*
X112637500Y-75327674D01*
X112637500Y-74803000D01*
X122605785Y-74803000D01*
X122624603Y-75006083D01*
X122680418Y-75202250D01*
X122771327Y-75384821D01*
X122894236Y-75547579D01*
X123044959Y-75684981D01*
X123218363Y-75792348D01*
X123408544Y-75866024D01*
X123609024Y-75903500D01*
X123812976Y-75903500D01*
X124013456Y-75866024D01*
X124203637Y-75792348D01*
X124377041Y-75684981D01*
X124527764Y-75547579D01*
X124650673Y-75384821D01*
X124741582Y-75202250D01*
X124797397Y-75006083D01*
X124816215Y-74803000D01*
X124797397Y-74599917D01*
X124741582Y-74403750D01*
X124650673Y-74221179D01*
X124527764Y-74058421D01*
X124377041Y-73921019D01*
X124203637Y-73813652D01*
X124013456Y-73739976D01*
X124013455Y-73739975D01*
X124013453Y-73739975D01*
X123812976Y-73702500D01*
X123609024Y-73702500D01*
X123408546Y-73739975D01*
X123338632Y-73767059D01*
X123218363Y-73813652D01*
X123044959Y-73921019D01*
X122894236Y-74058421D01*
X122884876Y-74070816D01*
X122771328Y-74221177D01*
X122771323Y-74221186D01*
X122683465Y-74397630D01*
X122680418Y-74403750D01*
X122624603Y-74599917D01*
X122605785Y-74803000D01*
X112637500Y-74803000D01*
X112637500Y-74278326D01*
X112622966Y-74205260D01*
X112567601Y-74122399D01*
X112567599Y-74122397D01*
X112484742Y-74067035D01*
X112484740Y-74067034D01*
X112484737Y-74067033D01*
X112484736Y-74067033D01*
X112411684Y-74052501D01*
X112411674Y-74052500D01*
X111362326Y-74052500D01*
X111362325Y-74052500D01*
X111362315Y-74052501D01*
X111289263Y-74067033D01*
X111289257Y-74067035D01*
X111206400Y-74122397D01*
X111206397Y-74122400D01*
X111151035Y-74205257D01*
X111151033Y-74205263D01*
X111136501Y-74278315D01*
X111136500Y-74278327D01*
X111136500Y-74353500D01*
X111117593Y-74411691D01*
X111068093Y-74447655D01*
X111037500Y-74452500D01*
X109587154Y-74452500D01*
X109528963Y-74433593D01*
X109498535Y-74397631D01*
X109488239Y-74376955D01*
X109479226Y-74316440D01*
X109506854Y-74262826D01*
X110478470Y-73291212D01*
X110524614Y-73211288D01*
X110544339Y-73137672D01*
X122610500Y-73137672D01*
X122610501Y-73137684D01*
X122625033Y-73210736D01*
X122625035Y-73210742D01*
X122680397Y-73293599D01*
X122680400Y-73293602D01*
X122731280Y-73327598D01*
X122763260Y-73348966D01*
X122818808Y-73360015D01*
X122836315Y-73363498D01*
X122836320Y-73363498D01*
X122836326Y-73363500D01*
X122836327Y-73363500D01*
X124585673Y-73363500D01*
X124585674Y-73363500D01*
X124658740Y-73348966D01*
X124741601Y-73293601D01*
X124796966Y-73210740D01*
X124811500Y-73137674D01*
X124811500Y-71388326D01*
X124796966Y-71315260D01*
X124741601Y-71232399D01*
X124741599Y-71232397D01*
X124658742Y-71177035D01*
X124658740Y-71177034D01*
X124658737Y-71177033D01*
X124658736Y-71177033D01*
X124585684Y-71162501D01*
X124585674Y-71162500D01*
X122836326Y-71162500D01*
X122836325Y-71162500D01*
X122836315Y-71162501D01*
X122763263Y-71177033D01*
X122763257Y-71177035D01*
X122680400Y-71232397D01*
X122680397Y-71232400D01*
X122625035Y-71315257D01*
X122625033Y-71315263D01*
X122610501Y-71388315D01*
X122610500Y-71388327D01*
X122610500Y-73137672D01*
X110544339Y-73137672D01*
X110548500Y-73122144D01*
X110548500Y-73029856D01*
X110548500Y-72787672D01*
X111136500Y-72787672D01*
X111136501Y-72787684D01*
X111151033Y-72860736D01*
X111151035Y-72860742D01*
X111206397Y-72943599D01*
X111206399Y-72943601D01*
X111289260Y-72998966D01*
X111344808Y-73010015D01*
X111362315Y-73013498D01*
X111362320Y-73013498D01*
X111362326Y-73013500D01*
X111362327Y-73013500D01*
X112411673Y-73013500D01*
X112411674Y-73013500D01*
X112484740Y-72998966D01*
X112567601Y-72943601D01*
X112622966Y-72860740D01*
X112637500Y-72787674D01*
X112637500Y-72712500D01*
X112656407Y-72654309D01*
X112705907Y-72618345D01*
X112736500Y-72613500D01*
X112810556Y-72613500D01*
X112868747Y-72632407D01*
X112892032Y-72656262D01*
X112920515Y-72697528D01*
X112920516Y-72697529D01*
X112920517Y-72697530D01*
X113038760Y-72802283D01*
X113178635Y-72875696D01*
X113332015Y-72913500D01*
X113332018Y-72913500D01*
X113489982Y-72913500D01*
X113489985Y-72913500D01*
X113643365Y-72875696D01*
X113783240Y-72802283D01*
X113901483Y-72697530D01*
X113991220Y-72567523D01*
X114047237Y-72419818D01*
X114066278Y-72263000D01*
X114047237Y-72106182D01*
X113991220Y-71958477D01*
X113901483Y-71828470D01*
X113783240Y-71723717D01*
X113671861Y-71665260D01*
X113643364Y-71650303D01*
X113489987Y-71612500D01*
X113489985Y-71612500D01*
X113332015Y-71612500D01*
X113332012Y-71612500D01*
X113178635Y-71650303D01*
X113038758Y-71723718D01*
X112920515Y-71828471D01*
X112892032Y-71869738D01*
X112843416Y-71906888D01*
X112810556Y-71912500D01*
X112736500Y-71912500D01*
X112678309Y-71893593D01*
X112642345Y-71844093D01*
X112637500Y-71813500D01*
X112637500Y-71738327D01*
X112637498Y-71738315D01*
X112634015Y-71720808D01*
X112622966Y-71665260D01*
X112567601Y-71582399D01*
X112567599Y-71582397D01*
X112484742Y-71527035D01*
X112484740Y-71527034D01*
X112484737Y-71527033D01*
X112484736Y-71527033D01*
X112411684Y-71512501D01*
X112411674Y-71512500D01*
X111362326Y-71512500D01*
X111362325Y-71512500D01*
X111362315Y-71512501D01*
X111289263Y-71527033D01*
X111289257Y-71527035D01*
X111206400Y-71582397D01*
X111206397Y-71582400D01*
X111151035Y-71665257D01*
X111151033Y-71665263D01*
X111136501Y-71738315D01*
X111136500Y-71738327D01*
X111136500Y-72787672D01*
X110548500Y-72787672D01*
X110548500Y-69437099D01*
X110567407Y-69378908D01*
X110581847Y-69362999D01*
X110688483Y-69268530D01*
X110778220Y-69138523D01*
X110834237Y-68990818D01*
X110853278Y-68834000D01*
X110848753Y-68796736D01*
X110834237Y-68677183D01*
X110834237Y-68677182D01*
X110778220Y-68529477D01*
X110688483Y-68399470D01*
X110570240Y-68294717D01*
X110500302Y-68258010D01*
X110430364Y-68221303D01*
X110276987Y-68183500D01*
X110276985Y-68183500D01*
X110119015Y-68183500D01*
X110119012Y-68183500D01*
X109965635Y-68221303D01*
X109825758Y-68294718D01*
X109707515Y-68399471D01*
X109617780Y-68529476D01*
X109561763Y-68677182D01*
X109561762Y-68677183D01*
X109542722Y-68833998D01*
X109542722Y-68834001D01*
X109561762Y-68990816D01*
X109561763Y-68990817D01*
X109617780Y-69138523D01*
X109707515Y-69268528D01*
X109707516Y-69268529D01*
X109707517Y-69268530D01*
X109814149Y-69362997D01*
X109845168Y-69415736D01*
X109847500Y-69437099D01*
X109847500Y-72889810D01*
X109828593Y-72948001D01*
X109818504Y-72959814D01*
X109740504Y-73037814D01*
X109685987Y-73065591D01*
X109625555Y-73056020D01*
X109582290Y-73012755D01*
X109571500Y-72967810D01*
X109571500Y-71388327D01*
X109571498Y-71388315D01*
X109568015Y-71370808D01*
X109556966Y-71315260D01*
X109501601Y-71232399D01*
X109501599Y-71232397D01*
X109418742Y-71177035D01*
X109418740Y-71177034D01*
X109418737Y-71177033D01*
X109418736Y-71177033D01*
X109345684Y-71162501D01*
X109345674Y-71162500D01*
X109345673Y-71162500D01*
X108920500Y-71162500D01*
X108862309Y-71143593D01*
X108826345Y-71094093D01*
X108821500Y-71063500D01*
X108821500Y-67568857D01*
X108807980Y-67518399D01*
X108797614Y-67479712D01*
X108787985Y-67463034D01*
X108787984Y-67463032D01*
X108787984Y-67463031D01*
X108767570Y-67427674D01*
X108751470Y-67399788D01*
X102370860Y-61019178D01*
X102343083Y-60964661D01*
X102352654Y-60904229D01*
X102359376Y-60892955D01*
X102383420Y-60858123D01*
X102439437Y-60710418D01*
X102453337Y-60595942D01*
X102458478Y-60553601D01*
X102458478Y-60553598D01*
X102439437Y-60396783D01*
X102439437Y-60396782D01*
X102383420Y-60249077D01*
X102293683Y-60119070D01*
X102175440Y-60014317D01*
X102105502Y-59977610D01*
X102035564Y-59940903D01*
X101882187Y-59903100D01*
X101882185Y-59903100D01*
X101724215Y-59903100D01*
X101724212Y-59903100D01*
X101570835Y-59940903D01*
X101430958Y-60014318D01*
X101312715Y-60119071D01*
X101222980Y-60249076D01*
X101166963Y-60396782D01*
X101166962Y-60396783D01*
X101147922Y-60553598D01*
X101147922Y-60553601D01*
X100381283Y-60553601D01*
X99782496Y-59954814D01*
X99754719Y-59900297D01*
X99753500Y-59884810D01*
X99753500Y-57500014D01*
X99772407Y-57441823D01*
X99786848Y-57425914D01*
X99885463Y-57338550D01*
X99975200Y-57208543D01*
X100031217Y-57060838D01*
X100050258Y-56904020D01*
X100049359Y-56896619D01*
X100036609Y-56791613D01*
X100031217Y-56747202D01*
X99975200Y-56599497D01*
X99930331Y-56534493D01*
X99885464Y-56469491D01*
X99883987Y-56468182D01*
X99767220Y-56364737D01*
X99697282Y-56328030D01*
X99627344Y-56291323D01*
X99473967Y-56253520D01*
X99473965Y-56253520D01*
X99315995Y-56253520D01*
X99315992Y-56253520D01*
X99162615Y-56291323D01*
X99022738Y-56364738D01*
X98904495Y-56469491D01*
X98814760Y-56599496D01*
X98758743Y-56747202D01*
X98758742Y-56747203D01*
X98739702Y-56904018D01*
X98739702Y-56904021D01*
X98379500Y-56904021D01*
X98379500Y-56191722D01*
X98398407Y-56133531D01*
X98408496Y-56121718D01*
X98781118Y-55749096D01*
X98835635Y-55721319D01*
X98851122Y-55720100D01*
X100282837Y-55720100D01*
X100341028Y-55739007D01*
X100348487Y-55744998D01*
X100364160Y-55758883D01*
X100504035Y-55832296D01*
X100657415Y-55870100D01*
X100657416Y-55870100D01*
X100659376Y-55870583D01*
X100705687Y-55896702D01*
X100821885Y-56012899D01*
X100821890Y-56012903D01*
X100936010Y-56078790D01*
X100936008Y-56078790D01*
X100936012Y-56078791D01*
X100936014Y-56078792D01*
X101063307Y-56112900D01*
X101063308Y-56112900D01*
X104221078Y-56112900D01*
X104279269Y-56131807D01*
X104291082Y-56141896D01*
X106858826Y-58709639D01*
X106886603Y-58764156D01*
X106887100Y-58767709D01*
X106894763Y-58830816D01*
X106894763Y-58830817D01*
X106950780Y-58978523D01*
X107040515Y-59108528D01*
X107040516Y-59108529D01*
X107040517Y-59108530D01*
X107158760Y-59213283D01*
X107298635Y-59286696D01*
X107452015Y-59324500D01*
X107452018Y-59324500D01*
X107609982Y-59324500D01*
X107609985Y-59324500D01*
X107763365Y-59286696D01*
X107903240Y-59213283D01*
X107918913Y-59199398D01*
X107975007Y-59174962D01*
X107984563Y-59174500D01*
X112422890Y-59174500D01*
X112422892Y-59174500D01*
X112550186Y-59140392D01*
X112550188Y-59140390D01*
X112550190Y-59140390D01*
X112664309Y-59074503D01*
X112664309Y-59074502D01*
X112664314Y-59074500D01*
X115308713Y-56430100D01*
X115355024Y-56403983D01*
X115356984Y-56403500D01*
X115356985Y-56403500D01*
X115510365Y-56365696D01*
X115650240Y-56292283D01*
X115743345Y-56209800D01*
X117411185Y-56209800D01*
X117430003Y-56412883D01*
X117485818Y-56609050D01*
X117576727Y-56791621D01*
X117699636Y-56954379D01*
X117850359Y-57091781D01*
X118023763Y-57199148D01*
X118213944Y-57272824D01*
X118414424Y-57310300D01*
X118618376Y-57310300D01*
X118818856Y-57272824D01*
X119009037Y-57199148D01*
X119182441Y-57091781D01*
X119333164Y-56954379D01*
X119456073Y-56791621D01*
X119546982Y-56609050D01*
X119602797Y-56412883D01*
X119621615Y-56209800D01*
X119951185Y-56209800D01*
X119970003Y-56412883D01*
X120025818Y-56609050D01*
X120116727Y-56791621D01*
X120239636Y-56954379D01*
X120390359Y-57091781D01*
X120563763Y-57199148D01*
X120753944Y-57272824D01*
X120954424Y-57310300D01*
X121158376Y-57310300D01*
X121358856Y-57272824D01*
X121549037Y-57199148D01*
X121722441Y-57091781D01*
X121873164Y-56954379D01*
X121996073Y-56791621D01*
X122086982Y-56609050D01*
X122142797Y-56412883D01*
X122161615Y-56209800D01*
X122147716Y-56059799D01*
X122446400Y-56059799D01*
X122446401Y-56059800D01*
X123118955Y-56059800D01*
X123096400Y-56143974D01*
X123096400Y-56275626D01*
X123118955Y-56359800D01*
X122446402Y-56359800D01*
X122446401Y-56359801D01*
X122446401Y-57104591D01*
X122449309Y-57129674D01*
X122494613Y-57232277D01*
X122573922Y-57311586D01*
X122676527Y-57356890D01*
X122701603Y-57359799D01*
X123446398Y-57359799D01*
X123446400Y-57359798D01*
X123446400Y-56687245D01*
X123530574Y-56709800D01*
X123662226Y-56709800D01*
X123746400Y-56687245D01*
X123746400Y-57359798D01*
X123746401Y-57359799D01*
X124491190Y-57359799D01*
X124491191Y-57359798D01*
X124516274Y-57356890D01*
X124618877Y-57311586D01*
X124698186Y-57232277D01*
X124743490Y-57129672D01*
X124746399Y-57104597D01*
X124746400Y-57104595D01*
X124746400Y-56359801D01*
X124746399Y-56359800D01*
X124073845Y-56359800D01*
X124096400Y-56275626D01*
X124096400Y-56143974D01*
X124073845Y-56059800D01*
X124746398Y-56059800D01*
X124746399Y-56059799D01*
X124746399Y-55315010D01*
X124746398Y-55315008D01*
X124743490Y-55289925D01*
X124698186Y-55187322D01*
X124618877Y-55108013D01*
X124516272Y-55062709D01*
X124491197Y-55059800D01*
X123746401Y-55059800D01*
X123746400Y-55059801D01*
X123746400Y-55732354D01*
X123662226Y-55709800D01*
X123530574Y-55709800D01*
X123446400Y-55732354D01*
X123446400Y-55059801D01*
X123446399Y-55059800D01*
X122701610Y-55059800D01*
X122701607Y-55059801D01*
X122676525Y-55062709D01*
X122573922Y-55108013D01*
X122494613Y-55187322D01*
X122449309Y-55289927D01*
X122446400Y-55315002D01*
X122446400Y-56059799D01*
X122147716Y-56059799D01*
X122142797Y-56006717D01*
X122086982Y-55810550D01*
X121996073Y-55627979D01*
X121873164Y-55465221D01*
X121722441Y-55327819D01*
X121549037Y-55220452D01*
X121358856Y-55146776D01*
X121358855Y-55146775D01*
X121358853Y-55146775D01*
X121158376Y-55109300D01*
X120954424Y-55109300D01*
X120753946Y-55146775D01*
X120704104Y-55166084D01*
X120563763Y-55220452D01*
X120390359Y-55327819D01*
X120239636Y-55465221D01*
X120235661Y-55470485D01*
X120116728Y-55627977D01*
X120116723Y-55627986D01*
X120025819Y-55810547D01*
X120025818Y-55810550D01*
X119970003Y-56006717D01*
X119951185Y-56209800D01*
X119621615Y-56209800D01*
X119602797Y-56006717D01*
X119546982Y-55810550D01*
X119456073Y-55627979D01*
X119333164Y-55465221D01*
X119182441Y-55327819D01*
X119009037Y-55220452D01*
X118818856Y-55146776D01*
X118818855Y-55146775D01*
X118818853Y-55146775D01*
X118618376Y-55109300D01*
X118414424Y-55109300D01*
X118213946Y-55146775D01*
X118164104Y-55166084D01*
X118023763Y-55220452D01*
X117850359Y-55327819D01*
X117699636Y-55465221D01*
X117695661Y-55470485D01*
X117576728Y-55627977D01*
X117576723Y-55627986D01*
X117485819Y-55810547D01*
X117485818Y-55810550D01*
X117430003Y-56006717D01*
X117411185Y-56209800D01*
X115743345Y-56209800D01*
X115768483Y-56187530D01*
X115858220Y-56057523D01*
X115914237Y-55909818D01*
X115933278Y-55753000D01*
X115932306Y-55744998D01*
X115914237Y-55596183D01*
X115914237Y-55596182D01*
X115858220Y-55448477D01*
X115768483Y-55318470D01*
X115650240Y-55213717D01*
X115559484Y-55166084D01*
X115510364Y-55140303D01*
X115356987Y-55102500D01*
X115356985Y-55102500D01*
X115199015Y-55102500D01*
X115199012Y-55102500D01*
X115045635Y-55140303D01*
X114905758Y-55213718D01*
X114787515Y-55318471D01*
X114697780Y-55448476D01*
X114641763Y-55596182D01*
X114641763Y-55596183D01*
X114634100Y-55659288D01*
X114608316Y-55714775D01*
X114605826Y-55717358D01*
X112178682Y-58144504D01*
X112124165Y-58172281D01*
X112108678Y-58173500D01*
X107984563Y-58173500D01*
X107926372Y-58154593D01*
X107918913Y-58148602D01*
X107903241Y-58134718D01*
X107903240Y-58134717D01*
X107791861Y-58076260D01*
X107763364Y-58061303D01*
X107608022Y-58023016D01*
X107561710Y-57996897D01*
X106236629Y-56671816D01*
X104776714Y-55211900D01*
X104776711Y-55211898D01*
X104776709Y-55211896D01*
X104662589Y-55146009D01*
X104662591Y-55146009D01*
X104613199Y-55132775D01*
X104535292Y-55111900D01*
X104535290Y-55111900D01*
X101459600Y-55111900D01*
X101401409Y-55092993D01*
X101367033Y-55048006D01*
X101316620Y-54915077D01*
X101226883Y-54785070D01*
X101108640Y-54680317D01*
X101038702Y-54643610D01*
X100968764Y-54606903D01*
X100815387Y-54569100D01*
X100815385Y-54569100D01*
X100657415Y-54569100D01*
X100657412Y-54569100D01*
X100504035Y-54606903D01*
X100364158Y-54680318D01*
X100348487Y-54694202D01*
X100292393Y-54718638D01*
X100282837Y-54719100D01*
X98668693Y-54719100D01*
X98536908Y-54719100D01*
X98504121Y-54727884D01*
X98443021Y-54724682D01*
X98395471Y-54686177D01*
X98379500Y-54632258D01*
X98379500Y-53617108D01*
X98363740Y-53558292D01*
X98345392Y-53489814D01*
X98345391Y-53489813D01*
X98343712Y-53483544D01*
X98344541Y-53483321D01*
X98340889Y-53469440D01*
X98324637Y-53335585D01*
X98324637Y-53335582D01*
X98268620Y-53187877D01*
X98265674Y-53183609D01*
X99264330Y-53183609D01*
X99283370Y-53340424D01*
X99283371Y-53340426D01*
X99337564Y-53483321D01*
X99339388Y-53488131D01*
X99429123Y-53618136D01*
X99429124Y-53618137D01*
X99429125Y-53618138D01*
X99547368Y-53722891D01*
X99687243Y-53796304D01*
X99840623Y-53834108D01*
X99840626Y-53834108D01*
X99998590Y-53834108D01*
X99998593Y-53834108D01*
X100151973Y-53796304D01*
X100291848Y-53722891D01*
X100410091Y-53618138D01*
X100499828Y-53488131D01*
X100555845Y-53340426D01*
X100574886Y-53183608D01*
X100563415Y-53089142D01*
X100575170Y-53029100D01*
X100591685Y-53007211D01*
X105888202Y-47710696D01*
X105942718Y-47682920D01*
X106003150Y-47692491D01*
X106046415Y-47735756D01*
X106054702Y-47764071D01*
X106055550Y-47763903D01*
X106071033Y-47841736D01*
X106071035Y-47841742D01*
X106126397Y-47924599D01*
X106126399Y-47924601D01*
X106209260Y-47979966D01*
X106264808Y-47991015D01*
X106282315Y-47994498D01*
X106282320Y-47994498D01*
X106282326Y-47994500D01*
X106282327Y-47994500D01*
X107331673Y-47994500D01*
X107331674Y-47994500D01*
X107404740Y-47979966D01*
X107487601Y-47924601D01*
X107542966Y-47841740D01*
X107557500Y-47768674D01*
X107557500Y-47768672D01*
X110374500Y-47768672D01*
X110374501Y-47768684D01*
X110389033Y-47841736D01*
X110389035Y-47841742D01*
X110444397Y-47924599D01*
X110444399Y-47924601D01*
X110527260Y-47979966D01*
X110582808Y-47991015D01*
X110600315Y-47994498D01*
X110600320Y-47994498D01*
X110600326Y-47994500D01*
X110600327Y-47994500D01*
X111649673Y-47994500D01*
X111649674Y-47994500D01*
X111722740Y-47979966D01*
X111805601Y-47924601D01*
X111860966Y-47841740D01*
X111875500Y-47768674D01*
X111875500Y-47722500D01*
X111894407Y-47664309D01*
X111943907Y-47628345D01*
X111974500Y-47623500D01*
X113056845Y-47623500D01*
X113115036Y-47642407D01*
X113145466Y-47678372D01*
X113161562Y-47710697D01*
X113233327Y-47854821D01*
X113356236Y-48017579D01*
X113506959Y-48154981D01*
X113680363Y-48262348D01*
X113870544Y-48336024D01*
X114071024Y-48373500D01*
X114274976Y-48373500D01*
X114475456Y-48336024D01*
X114665637Y-48262348D01*
X114839041Y-48154981D01*
X114989764Y-48017579D01*
X115112673Y-47854821D01*
X115203582Y-47672250D01*
X115259397Y-47476083D01*
X115278215Y-47273000D01*
X115259397Y-47069917D01*
X115241402Y-47006672D01*
X121423500Y-47006672D01*
X121423501Y-47006684D01*
X121438033Y-47079736D01*
X121438035Y-47079742D01*
X121493397Y-47162599D01*
X121493400Y-47162602D01*
X121576257Y-47217964D01*
X121576260Y-47217966D01*
X121631808Y-47229015D01*
X121649315Y-47232498D01*
X121649320Y-47232498D01*
X121649326Y-47232500D01*
X121649327Y-47232500D01*
X122698673Y-47232500D01*
X122698674Y-47232500D01*
X122771740Y-47217966D01*
X122854601Y-47162601D01*
X122909966Y-47079740D01*
X122924500Y-47006674D01*
X122924500Y-46931500D01*
X122943407Y-46873309D01*
X122992907Y-46837345D01*
X123023500Y-46832500D01*
X123326707Y-46832500D01*
X123384898Y-46851407D01*
X123408183Y-46875262D01*
X123461515Y-46952528D01*
X123461516Y-46952529D01*
X123461517Y-46952530D01*
X123579760Y-47057283D01*
X123719635Y-47130696D01*
X123873015Y-47168500D01*
X123873018Y-47168500D01*
X124030982Y-47168500D01*
X124030985Y-47168500D01*
X124184365Y-47130696D01*
X124324240Y-47057283D01*
X124442483Y-46952530D01*
X124532220Y-46822523D01*
X124588237Y-46674818D01*
X124600931Y-46570272D01*
X124607278Y-46518001D01*
X124607278Y-46517998D01*
X124588237Y-46361183D01*
X124588237Y-46361182D01*
X124532220Y-46213477D01*
X124462585Y-46112593D01*
X124442484Y-46083471D01*
X124324241Y-45978718D01*
X124324240Y-45978717D01*
X124254302Y-45942010D01*
X124184364Y-45905303D01*
X124030987Y-45867500D01*
X124030985Y-45867500D01*
X123873015Y-45867500D01*
X123873012Y-45867500D01*
X123719635Y-45905303D01*
X123579758Y-45978718D01*
X123461518Y-46083468D01*
X123461512Y-46083475D01*
X123457878Y-46088741D01*
X123409261Y-46125889D01*
X123376405Y-46131500D01*
X123023500Y-46131500D01*
X122965309Y-46112593D01*
X122929345Y-46063093D01*
X122924500Y-46032500D01*
X122924500Y-45957327D01*
X122924498Y-45957315D01*
X122914152Y-45905304D01*
X122909966Y-45884260D01*
X122854601Y-45801399D01*
X122854599Y-45801397D01*
X122771742Y-45746035D01*
X122771740Y-45746034D01*
X122771737Y-45746033D01*
X122771736Y-45746033D01*
X122698684Y-45731501D01*
X122698674Y-45731500D01*
X121649326Y-45731500D01*
X121649325Y-45731500D01*
X121649315Y-45731501D01*
X121576263Y-45746033D01*
X121576257Y-45746035D01*
X121493400Y-45801397D01*
X121493397Y-45801400D01*
X121438035Y-45884257D01*
X121438033Y-45884263D01*
X121423501Y-45957315D01*
X121423500Y-45957327D01*
X121423500Y-47006672D01*
X115241402Y-47006672D01*
X115203582Y-46873750D01*
X115112673Y-46691179D01*
X114989764Y-46528421D01*
X114839041Y-46391019D01*
X114665637Y-46283652D01*
X114475456Y-46209976D01*
X114475455Y-46209975D01*
X114475453Y-46209975D01*
X114274976Y-46172500D01*
X114071024Y-46172500D01*
X113870546Y-46209975D01*
X113800632Y-46237059D01*
X113680363Y-46283652D01*
X113555148Y-46361182D01*
X113506959Y-46391019D01*
X113356237Y-46528420D01*
X113233328Y-46691177D01*
X113233323Y-46691186D01*
X113145466Y-46867628D01*
X113102603Y-46911291D01*
X113056845Y-46922500D01*
X111974500Y-46922500D01*
X111916309Y-46903593D01*
X111880345Y-46854093D01*
X111875500Y-46823500D01*
X111875500Y-46719327D01*
X111875498Y-46719315D01*
X111872015Y-46701808D01*
X111860966Y-46646260D01*
X111805601Y-46563399D01*
X111805599Y-46563397D01*
X111722742Y-46508035D01*
X111722740Y-46508034D01*
X111722737Y-46508033D01*
X111722736Y-46508033D01*
X111649684Y-46493501D01*
X111649674Y-46493500D01*
X110600326Y-46493500D01*
X110600325Y-46493500D01*
X110600315Y-46493501D01*
X110527263Y-46508033D01*
X110527257Y-46508035D01*
X110444400Y-46563397D01*
X110444397Y-46563400D01*
X110389035Y-46646257D01*
X110389033Y-46646263D01*
X110374501Y-46719315D01*
X110374500Y-46719327D01*
X110374500Y-47768672D01*
X107557500Y-47768672D01*
X107557500Y-47030189D01*
X107576407Y-46971998D01*
X107586496Y-46960185D01*
X109434185Y-45112496D01*
X109488702Y-45084719D01*
X109504189Y-45083500D01*
X113056845Y-45083500D01*
X113115036Y-45102407D01*
X113145466Y-45138372D01*
X113233327Y-45314821D01*
X113356236Y-45477579D01*
X113506959Y-45614981D01*
X113680363Y-45722348D01*
X113870544Y-45796024D01*
X114071024Y-45833500D01*
X114274976Y-45833500D01*
X114475456Y-45796024D01*
X114665637Y-45722348D01*
X114839041Y-45614981D01*
X114989764Y-45477579D01*
X115112673Y-45314821D01*
X115203582Y-45132250D01*
X115259397Y-44936083D01*
X115278215Y-44733000D01*
X115259397Y-44529917D01*
X115203582Y-44333750D01*
X115112673Y-44151179D01*
X114989764Y-43988421D01*
X114839041Y-43851019D01*
X114665637Y-43743652D01*
X114475456Y-43669976D01*
X114475455Y-43669975D01*
X114475453Y-43669975D01*
X114274976Y-43632500D01*
X114071024Y-43632500D01*
X113870546Y-43669975D01*
X113800632Y-43697059D01*
X113680363Y-43743652D01*
X113506959Y-43851019D01*
X113356237Y-43988420D01*
X113233328Y-44151177D01*
X113233323Y-44151186D01*
X113145466Y-44327628D01*
X113102603Y-44371291D01*
X113056845Y-44382500D01*
X109271856Y-44382500D01*
X109182712Y-44406386D01*
X109182711Y-44406386D01*
X109182709Y-44406387D01*
X109102790Y-44452529D01*
X107090814Y-46464504D01*
X107036297Y-46492281D01*
X107020810Y-46493500D01*
X106282326Y-46493500D01*
X106282325Y-46493500D01*
X106282315Y-46493501D01*
X106209263Y-46508033D01*
X106209257Y-46508035D01*
X106126400Y-46563397D01*
X106126397Y-46563400D01*
X106071035Y-46646257D01*
X106071033Y-46646263D01*
X106056501Y-46719315D01*
X106056500Y-46719327D01*
X106056500Y-46794500D01*
X106037593Y-46852691D01*
X105988093Y-46888655D01*
X105957500Y-46893500D01*
X105813073Y-46893500D01*
X105746676Y-46911291D01*
X105723929Y-46917386D01*
X105644005Y-46963530D01*
X100098912Y-52508620D01*
X100044395Y-52536397D01*
X100005223Y-52534741D01*
X99998599Y-52533108D01*
X99998593Y-52533108D01*
X99840623Y-52533108D01*
X99840620Y-52533108D01*
X99687243Y-52570911D01*
X99547366Y-52644326D01*
X99429123Y-52749079D01*
X99339388Y-52879084D01*
X99283371Y-53026790D01*
X99283370Y-53026791D01*
X99264330Y-53183606D01*
X99264330Y-53183609D01*
X98265674Y-53183609D01*
X98223751Y-53122873D01*
X98178884Y-53057871D01*
X98143801Y-53026790D01*
X98060640Y-52953117D01*
X97990702Y-52916410D01*
X97920764Y-52879703D01*
X97767387Y-52841900D01*
X97767385Y-52841900D01*
X97609415Y-52841900D01*
X97609412Y-52841900D01*
X97456035Y-52879703D01*
X97316158Y-52953118D01*
X97197915Y-53057871D01*
X97108180Y-53187876D01*
X97052163Y-53335582D01*
X97052162Y-53335583D01*
X97033122Y-53492398D01*
X97033122Y-53492401D01*
X97052162Y-53649216D01*
X97052163Y-53649218D01*
X97090574Y-53750500D01*
X97108180Y-53796923D01*
X97197915Y-53926928D01*
X97197916Y-53926929D01*
X97197917Y-53926930D01*
X97316160Y-54031683D01*
X97316164Y-54031685D01*
X97325506Y-54036588D01*
X97368245Y-54080371D01*
X97378500Y-54124249D01*
X97378500Y-55787810D01*
X97359593Y-55846001D01*
X97310093Y-55881965D01*
X97248907Y-55881965D01*
X97209496Y-55857814D01*
X96136752Y-54785070D01*
X95046212Y-53694530D01*
X94966288Y-53648386D01*
X94877144Y-53624500D01*
X94877142Y-53624500D01*
X89970444Y-53624500D01*
X89912253Y-53605593D01*
X89888968Y-53581738D01*
X89860484Y-53540471D01*
X89806223Y-53492400D01*
X89742240Y-53435717D01*
X89672302Y-53399010D01*
X89602364Y-53362303D01*
X89448987Y-53324500D01*
X89448985Y-53324500D01*
X89291015Y-53324500D01*
X89291012Y-53324500D01*
X89137635Y-53362303D01*
X88997758Y-53435718D01*
X88879515Y-53540471D01*
X88789780Y-53670476D01*
X88733763Y-53818182D01*
X88733762Y-53818183D01*
X88714722Y-53974998D01*
X88714722Y-53975001D01*
X88733762Y-54131816D01*
X88733763Y-54131818D01*
X88789780Y-54279523D01*
X88879515Y-54409528D01*
X88879516Y-54409529D01*
X88879517Y-54409530D01*
X88997760Y-54514283D01*
X89004507Y-54517824D01*
X89047245Y-54561606D01*
X89057500Y-54605484D01*
X89057500Y-55411500D01*
X89038593Y-55469691D01*
X88989093Y-55505655D01*
X88958500Y-55510500D01*
X88883326Y-55510500D01*
X88883325Y-55510500D01*
X88883315Y-55510501D01*
X88810263Y-55525033D01*
X88810257Y-55525035D01*
X88727400Y-55580397D01*
X88727397Y-55580400D01*
X88672035Y-55663257D01*
X88672033Y-55663263D01*
X88657501Y-55736315D01*
X88657500Y-55736327D01*
X88657500Y-56785672D01*
X87076500Y-56785672D01*
X87076500Y-56585997D01*
X87082933Y-56550892D01*
X87085237Y-56544818D01*
X87104278Y-56388000D01*
X87101453Y-56364737D01*
X87085237Y-56231183D01*
X87085237Y-56231182D01*
X87029220Y-56083477D01*
X86983201Y-56016807D01*
X86939484Y-55953471D01*
X86898607Y-55917257D01*
X86821240Y-55848717D01*
X86705193Y-55787810D01*
X86681364Y-55775303D01*
X86527987Y-55737500D01*
X86527985Y-55737500D01*
X86370015Y-55737500D01*
X86370012Y-55737500D01*
X86216635Y-55775303D01*
X86076758Y-55848718D01*
X85958515Y-55953471D01*
X85868780Y-56083476D01*
X85812763Y-56231182D01*
X85812762Y-56231183D01*
X85793722Y-56387998D01*
X85793722Y-56388001D01*
X85812762Y-56544816D01*
X85812763Y-56544817D01*
X85868780Y-56692523D01*
X85958517Y-56822530D01*
X85958517Y-56822531D01*
X86042148Y-56896619D01*
X86073167Y-56949358D01*
X86075500Y-56970722D01*
X86075500Y-59978810D01*
X86056593Y-60037001D01*
X86007093Y-60072965D01*
X85945907Y-60072965D01*
X85906496Y-60048814D01*
X85447243Y-59589561D01*
X85419466Y-59535044D01*
X85429037Y-59474612D01*
X85472302Y-59431347D01*
X85497928Y-59422460D01*
X85560740Y-59409966D01*
X85643601Y-59354601D01*
X85698966Y-59271740D01*
X85713500Y-59198674D01*
X85713500Y-58149326D01*
X85698966Y-58076260D01*
X85663390Y-58023016D01*
X85643602Y-57993400D01*
X85643599Y-57993397D01*
X85560742Y-57938035D01*
X85560740Y-57938034D01*
X85560737Y-57938033D01*
X85560736Y-57938033D01*
X85487684Y-57923501D01*
X85487674Y-57923500D01*
X84438326Y-57923500D01*
X84438325Y-57923500D01*
X84438315Y-57923501D01*
X84365263Y-57938033D01*
X84365257Y-57938035D01*
X84282400Y-57993397D01*
X84282397Y-57993400D01*
X84227035Y-58076257D01*
X84227033Y-58076263D01*
X84212501Y-58149315D01*
X84212500Y-58149327D01*
X84212500Y-59198672D01*
X78359000Y-59198672D01*
X78359000Y-57039672D01*
X80224700Y-57039672D01*
X80224701Y-57039684D01*
X80239233Y-57112736D01*
X80239235Y-57112742D01*
X80294597Y-57195599D01*
X80294600Y-57195602D01*
X80313968Y-57208543D01*
X80377460Y-57250966D01*
X80433008Y-57262015D01*
X80450515Y-57265498D01*
X80450520Y-57265498D01*
X80450526Y-57265500D01*
X80450527Y-57265500D01*
X81499873Y-57265500D01*
X81499874Y-57265500D01*
X81572940Y-57250966D01*
X81655801Y-57195601D01*
X81711166Y-57112740D01*
X81719255Y-57072074D01*
X81749151Y-57018693D01*
X81804717Y-56993077D01*
X81864726Y-57005014D01*
X81882000Y-57017287D01*
X81923760Y-57054283D01*
X82063635Y-57127696D01*
X82217015Y-57165500D01*
X82217018Y-57165500D01*
X82374982Y-57165500D01*
X82374985Y-57165500D01*
X82528365Y-57127696D01*
X82668240Y-57054283D01*
X82786483Y-56949530D01*
X82876220Y-56819523D01*
X82932237Y-56671818D01*
X82946920Y-56550888D01*
X82951278Y-56515001D01*
X82951278Y-56514998D01*
X82935858Y-56388001D01*
X82932237Y-56358182D01*
X82876220Y-56210477D01*
X82786483Y-56080470D01*
X82668240Y-55975717D01*
X82556861Y-55917260D01*
X82528364Y-55902303D01*
X82374987Y-55864500D01*
X82374985Y-55864500D01*
X82217015Y-55864500D01*
X82217012Y-55864500D01*
X82063635Y-55902303D01*
X81923755Y-55975719D01*
X81882000Y-56012711D01*
X81825906Y-56037146D01*
X81766162Y-56023942D01*
X81725589Y-55978144D01*
X81719255Y-55957927D01*
X81711166Y-55917260D01*
X81711164Y-55917257D01*
X81655802Y-55834400D01*
X81655799Y-55834397D01*
X81572942Y-55779035D01*
X81572940Y-55779034D01*
X81572937Y-55779033D01*
X81572936Y-55779033D01*
X81499884Y-55764501D01*
X81499874Y-55764500D01*
X80450526Y-55764500D01*
X80450525Y-55764500D01*
X80450515Y-55764501D01*
X80377463Y-55779033D01*
X80377457Y-55779035D01*
X80294600Y-55834397D01*
X80294597Y-55834400D01*
X80239235Y-55917257D01*
X80239233Y-55917263D01*
X80224701Y-55990315D01*
X80224700Y-55990327D01*
X80224700Y-57039672D01*
X78359000Y-57039672D01*
X78359000Y-54574918D01*
X78892500Y-54574918D01*
X78921342Y-54719914D01*
X78948331Y-54785070D01*
X78977916Y-54856495D01*
X79060049Y-54979416D01*
X79164584Y-55083951D01*
X79287505Y-55166084D01*
X79424087Y-55222658D01*
X79569082Y-55251500D01*
X79569083Y-55251500D01*
X80516917Y-55251500D01*
X80516918Y-55251500D01*
X80661913Y-55222658D01*
X80798495Y-55166084D01*
X80921416Y-55083951D01*
X81025951Y-54979416D01*
X81108084Y-54856495D01*
X81164658Y-54719913D01*
X81193500Y-54574918D01*
X82922500Y-54574918D01*
X82951342Y-54719914D01*
X82978331Y-54785070D01*
X83007916Y-54856495D01*
X83090049Y-54979416D01*
X83194584Y-55083951D01*
X83317505Y-55166084D01*
X83454087Y-55222658D01*
X83454090Y-55222658D01*
X83458745Y-55224071D01*
X83458289Y-55225572D01*
X83505918Y-55252233D01*
X83531545Y-55307793D01*
X83519621Y-55367805D01*
X83482735Y-55405185D01*
X83369637Y-55470483D01*
X83262481Y-55577639D01*
X83186720Y-55708860D01*
X83168917Y-55775303D01*
X83147500Y-55855234D01*
X83147500Y-56006766D01*
X83175938Y-56112900D01*
X83186720Y-56153139D01*
X83262481Y-56284360D01*
X83262483Y-56284362D01*
X83262485Y-56284365D01*
X83369635Y-56391515D01*
X83369637Y-56391516D01*
X83369639Y-56391518D01*
X83500861Y-56467279D01*
X83500859Y-56467279D01*
X83500863Y-56467280D01*
X83500865Y-56467281D01*
X83647234Y-56506500D01*
X83647236Y-56506500D01*
X83798764Y-56506500D01*
X83798766Y-56506500D01*
X83945135Y-56467281D01*
X83945137Y-56467279D01*
X83945139Y-56467279D01*
X84076360Y-56391518D01*
X84076360Y-56391517D01*
X84076365Y-56391515D01*
X84183515Y-56284365D01*
X84183518Y-56284360D01*
X84259279Y-56153139D01*
X84259279Y-56153137D01*
X84259281Y-56153135D01*
X84298500Y-56006766D01*
X84298500Y-55855234D01*
X84259281Y-55708865D01*
X84259279Y-55708862D01*
X84259279Y-55708860D01*
X84183518Y-55577639D01*
X84183516Y-55577637D01*
X84183515Y-55577635D01*
X84076365Y-55470485D01*
X84076362Y-55470483D01*
X84076360Y-55470481D01*
X84017046Y-55436236D01*
X83976105Y-55390766D01*
X83969709Y-55329916D01*
X84000302Y-55276928D01*
X84056198Y-55252042D01*
X84066546Y-55251500D01*
X84846917Y-55251500D01*
X84846918Y-55251500D01*
X84991913Y-55222658D01*
X85128495Y-55166084D01*
X85251416Y-55083951D01*
X85355951Y-54979416D01*
X85438084Y-54856495D01*
X85494658Y-54719913D01*
X85523500Y-54574918D01*
X85523500Y-54427082D01*
X85494658Y-54282087D01*
X85438084Y-54145505D01*
X85355951Y-54022584D01*
X85251416Y-53918049D01*
X85128495Y-53835916D01*
X85128493Y-53835915D01*
X84991914Y-53779342D01*
X84846918Y-53750500D01*
X83599082Y-53750500D01*
X83599081Y-53750500D01*
X83454085Y-53779342D01*
X83317506Y-53835915D01*
X83194585Y-53918048D01*
X83090048Y-54022585D01*
X83007915Y-54145506D01*
X82951342Y-54282085D01*
X82922500Y-54427081D01*
X82922500Y-54574918D01*
X81193500Y-54574918D01*
X81193500Y-54427082D01*
X81164658Y-54282087D01*
X81108084Y-54145505D01*
X81025951Y-54022584D01*
X80921416Y-53918049D01*
X80798495Y-53835916D01*
X80798493Y-53835915D01*
X80661914Y-53779342D01*
X80516918Y-53750500D01*
X79569082Y-53750500D01*
X79569081Y-53750500D01*
X79424085Y-53779342D01*
X79287506Y-53835915D01*
X79164585Y-53918048D01*
X79060048Y-54022585D01*
X78977915Y-54145506D01*
X78921342Y-54282085D01*
X78892500Y-54427081D01*
X78892500Y-54574918D01*
X78359000Y-54574918D01*
X78359000Y-41034289D01*
X79810500Y-41034289D01*
X79842161Y-41274781D01*
X79842161Y-41274786D01*
X79904944Y-41509092D01*
X79904948Y-41509105D01*
X79997772Y-41733204D01*
X79997774Y-41733208D01*
X79997776Y-41733212D01*
X80032726Y-41793747D01*
X80119066Y-41943292D01*
X80266729Y-42135731D01*
X80266731Y-42135733D01*
X80266735Y-42135738D01*
X80438262Y-42307265D01*
X80438266Y-42307268D01*
X80438268Y-42307270D01*
X80554011Y-42396082D01*
X80630711Y-42454936D01*
X80840788Y-42576224D01*
X81064900Y-42669054D01*
X81299211Y-42731838D01*
X81539712Y-42763500D01*
X81539713Y-42763500D01*
X81782287Y-42763500D01*
X81782288Y-42763500D01*
X82022789Y-42731838D01*
X82257100Y-42669054D01*
X82481212Y-42576224D01*
X82691289Y-42454936D01*
X82883738Y-42307265D01*
X82998003Y-42193000D01*
X113067785Y-42193000D01*
X113086603Y-42396083D01*
X113142418Y-42592250D01*
X113233327Y-42774821D01*
X113356236Y-42937579D01*
X113506959Y-43074981D01*
X113680363Y-43182348D01*
X113870544Y-43256024D01*
X114071024Y-43293500D01*
X114274976Y-43293500D01*
X114475456Y-43256024D01*
X114665637Y-43182348D01*
X114839041Y-43074981D01*
X114989764Y-42937579D01*
X115112673Y-42774821D01*
X115203582Y-42592250D01*
X115259397Y-42396083D01*
X115278215Y-42193000D01*
X115259397Y-41989917D01*
X115203582Y-41793750D01*
X115112673Y-41611179D01*
X114989764Y-41448421D01*
X114839041Y-41311019D01*
X114665637Y-41203652D01*
X114475456Y-41129976D01*
X114475455Y-41129975D01*
X114475453Y-41129975D01*
X114274976Y-41092500D01*
X114071024Y-41092500D01*
X113870546Y-41129975D01*
X113800632Y-41157059D01*
X113680363Y-41203652D01*
X113565473Y-41274789D01*
X113506959Y-41311019D01*
X113356237Y-41448420D01*
X113233328Y-41611177D01*
X113233323Y-41611186D01*
X113172566Y-41733204D01*
X113142418Y-41793750D01*
X113086603Y-41989917D01*
X113067785Y-42193000D01*
X82998003Y-42193000D01*
X83055265Y-42135738D01*
X83202936Y-41943289D01*
X83324224Y-41733212D01*
X83417054Y-41509100D01*
X83479838Y-41274789D01*
X83511500Y-41034289D01*
X122736500Y-41034289D01*
X122768161Y-41274781D01*
X122768161Y-41274786D01*
X122830944Y-41509092D01*
X122830948Y-41509105D01*
X122923772Y-41733204D01*
X122923774Y-41733208D01*
X122923776Y-41733212D01*
X122958726Y-41793747D01*
X123045066Y-41943292D01*
X123192729Y-42135731D01*
X123192731Y-42135733D01*
X123192735Y-42135738D01*
X123364262Y-42307265D01*
X123364266Y-42307268D01*
X123364268Y-42307270D01*
X123480011Y-42396082D01*
X123556711Y-42454936D01*
X123766788Y-42576224D01*
X123990900Y-42669054D01*
X124225211Y-42731838D01*
X124465712Y-42763500D01*
X124465713Y-42763500D01*
X124708287Y-42763500D01*
X124708288Y-42763500D01*
X124948789Y-42731838D01*
X125183100Y-42669054D01*
X125407212Y-42576224D01*
X125617289Y-42454936D01*
X125809738Y-42307265D01*
X125981265Y-42135738D01*
X126128936Y-41943289D01*
X126250224Y-41733212D01*
X126343054Y-41509100D01*
X126405838Y-41274789D01*
X126437500Y-41034288D01*
X126437500Y-40791712D01*
X126405838Y-40551211D01*
X126343054Y-40316900D01*
X126250224Y-40092788D01*
X126128936Y-39882711D01*
X126100761Y-39845993D01*
X125981270Y-39690268D01*
X125981268Y-39690266D01*
X125981265Y-39690262D01*
X125809738Y-39518735D01*
X125809733Y-39518731D01*
X125809731Y-39518729D01*
X125617292Y-39371066D01*
X125617289Y-39371064D01*
X125407212Y-39249776D01*
X125407208Y-39249774D01*
X125407204Y-39249772D01*
X125183105Y-39156948D01*
X125183104Y-39156947D01*
X125183100Y-39156946D01*
X124948789Y-39094162D01*
X124948786Y-39094161D01*
X124948784Y-39094161D01*
X124708289Y-39062500D01*
X124708288Y-39062500D01*
X124465712Y-39062500D01*
X124465710Y-39062500D01*
X124225218Y-39094161D01*
X124225213Y-39094161D01*
X123990907Y-39156944D01*
X123990894Y-39156948D01*
X123766795Y-39249772D01*
X123556707Y-39371066D01*
X123364268Y-39518729D01*
X123192729Y-39690268D01*
X123045066Y-39882707D01*
X122923772Y-40092795D01*
X122830948Y-40316894D01*
X122830944Y-40316907D01*
X122768161Y-40551213D01*
X122768161Y-40551218D01*
X122736500Y-40791710D01*
X122736500Y-41034289D01*
X83511500Y-41034289D01*
X83511500Y-41034288D01*
X83511500Y-40791712D01*
X83479838Y-40551211D01*
X83417054Y-40316900D01*
X83324224Y-40092788D01*
X83202936Y-39882711D01*
X83174761Y-39845993D01*
X83055270Y-39690268D01*
X83055268Y-39690266D01*
X83055265Y-39690262D01*
X82883738Y-39518735D01*
X82883733Y-39518731D01*
X82883731Y-39518729D01*
X82863231Y-39502999D01*
X113023000Y-39502999D01*
X113023001Y-39503000D01*
X113695555Y-39503000D01*
X113673000Y-39587174D01*
X113673000Y-39718826D01*
X113695555Y-39803000D01*
X113023002Y-39803000D01*
X113023001Y-39803001D01*
X113023001Y-40547791D01*
X113025909Y-40572874D01*
X113071213Y-40675477D01*
X113150522Y-40754786D01*
X113253127Y-40800090D01*
X113278203Y-40802999D01*
X114022998Y-40802999D01*
X114023000Y-40802998D01*
X114023000Y-40130445D01*
X114107174Y-40153000D01*
X114238826Y-40153000D01*
X114323000Y-40130445D01*
X114323000Y-40802998D01*
X114323001Y-40802999D01*
X115067790Y-40802999D01*
X115067791Y-40802998D01*
X115092874Y-40800090D01*
X115195477Y-40754786D01*
X115274786Y-40675477D01*
X115320090Y-40572872D01*
X115322999Y-40547797D01*
X115323000Y-40547795D01*
X115323000Y-39803001D01*
X115322999Y-39803000D01*
X114650445Y-39803000D01*
X114673000Y-39718826D01*
X114673000Y-39587174D01*
X114650445Y-39503000D01*
X115322998Y-39503000D01*
X115322999Y-39502999D01*
X115322999Y-38758210D01*
X115322998Y-38758208D01*
X115320090Y-38733125D01*
X115274786Y-38630522D01*
X115195477Y-38551213D01*
X115092872Y-38505909D01*
X115067797Y-38503000D01*
X114323001Y-38503000D01*
X114323000Y-38503001D01*
X114323000Y-39175554D01*
X114238826Y-39153000D01*
X114107174Y-39153000D01*
X114023000Y-39175554D01*
X114023000Y-38503001D01*
X114022999Y-38503000D01*
X113278210Y-38503000D01*
X113278207Y-38503001D01*
X113253125Y-38505909D01*
X113150522Y-38551213D01*
X113071213Y-38630522D01*
X113025909Y-38733127D01*
X113023000Y-38758202D01*
X113023000Y-39502999D01*
X82863231Y-39502999D01*
X82691292Y-39371066D01*
X82691289Y-39371064D01*
X82481212Y-39249776D01*
X82481208Y-39249774D01*
X82481204Y-39249772D01*
X82257105Y-39156948D01*
X82257104Y-39156947D01*
X82257100Y-39156946D01*
X82022789Y-39094162D01*
X82022786Y-39094161D01*
X82022784Y-39094161D01*
X81782289Y-39062500D01*
X81782288Y-39062500D01*
X81539712Y-39062500D01*
X81539710Y-39062500D01*
X81299218Y-39094161D01*
X81299213Y-39094161D01*
X81064907Y-39156944D01*
X81064894Y-39156948D01*
X80840795Y-39249772D01*
X80630707Y-39371066D01*
X80438268Y-39518729D01*
X80266729Y-39690268D01*
X80119066Y-39882707D01*
X79997772Y-40092795D01*
X79904948Y-40316894D01*
X79904944Y-40316907D01*
X79842161Y-40551213D01*
X79842161Y-40551218D01*
X79810500Y-40791710D01*
X79810500Y-41034289D01*
X78359000Y-41034289D01*
X78359000Y-37709710D01*
X78377907Y-37651519D01*
X78427407Y-37615555D01*
X78457707Y-37610710D01*
X128005710Y-37465291D01*
X128063955Y-37484028D01*
G37*
%TD.AperFunction*%
%TD*%
M02*
