M48
; DRILL file {KiCad 8.0.1} date 2024-04-17T00:31:54+1200
; FORMAT={-:-/ absolute / inch / decimal}
; #@! TF.CreationDate,2024-04-17T00:31:54+12:00
; #@! TF.GenerationSoftware,Kicad,Pcbnew,8.0.1
; #@! TF.FileFunction,Plated,1,2,PTH
FMAT,2
INCH
; #@! TA.AperFunction,Plated,PTH,ViaDrill
T1C0.0157
; #@! TA.AperFunction,Plated,PTH,ComponentDrill
T2C0.0236
; #@! TA.AperFunction,Plated,PTH,ComponentDrill
T3C0.0394
%
G90
G05
T1
X3.1285Y-2.965
X3.1285Y-3.13
X3.218Y-2.618
X3.2182Y-2.67
X3.2185Y-2.58
X3.2285Y-2.1
X3.24Y-2.225
X3.24Y-2.405
X3.258Y-2.618
X3.2585Y-2.58
X3.3235Y-2.91
X3.3885Y-2.18
X3.3885Y-2.45
X3.4035Y-2.22
X3.4085Y-2.41
X3.5185Y-1.925
X3.5185Y-2.125
X3.5735Y-2.325
X3.5735Y-2.685
X3.5959Y-2.515
X3.5985Y-2.255
X3.6485Y-3.005
X3.7085Y-2.39
X3.7335Y-2.3
X3.7635Y-2.685
X3.7885Y-2.245
X3.8185Y-2.74
X3.846Y-2.106
X3.8535Y-2.46
X3.9132Y-2.2403
X3.9135Y-2.735
X3.9198Y-2.606
X3.9335Y-3.11
X3.9338Y-2.0938
X3.9585Y-2.475
X3.966Y-2.174
X4.008Y-2.384
X4.01Y-3.015
X4.0182Y-2.8663
X4.064Y-2.156
X4.0645Y-2.3457
X4.0785Y-2.665
X4.132Y-2.664
X4.2335Y-2.31
X4.2585Y-2.395
X4.2985Y-2.17
X4.3085Y-2.745
X4.3385Y-2.71
X4.3785Y-2.2
X4.4035Y-2.54
X4.465Y-2.845
X4.4735Y-2.61
X4.5385Y-2.195
X4.5835Y-2.35
X4.6535Y-1.955
X4.6535Y-2.42
X4.7285Y-2.57
X4.7985Y-2.57
X4.8735Y-2.57
X4.88Y-1.8314
X4.9635Y-1.955
T3
X3.4701Y-3.31
X3.5685Y-3.31
X3.8051Y-3.31
X3.9035Y-3.31
X4.17Y-3.25
X4.17Y-3.35
X4.2705Y-2.845
X4.2705Y-2.945
X4.2705Y-3.045
X4.495Y-1.5611
X4.495Y-1.6611
X4.495Y-1.7611
X4.495Y-1.8611
X4.666Y-2.213
X4.766Y-2.213
X4.866Y-2.213
X4.8705Y-2.845
X4.8705Y-2.945
X4.8705Y-3.045
T2
G00X3.167Y-2.1457
M15
G01X3.1356Y-2.1457
M16
G05
G00X3.167Y-2.4859
M15
G01X3.1356Y-2.4859
M16
G05
G00X3.3375Y-2.1457
M15
G01X3.2942Y-2.1457
M16
G05
G00X3.3375Y-2.4859
M15
G01X3.2942Y-2.4859
M16
G05
M30
