%TF.GenerationSoftware,KiCad,Pcbnew,8.0.1*%
%TF.CreationDate,2024-04-17T00:31:54+12:00*%
%TF.ProjectId,50x50 2 Layer,35307835-3020-4322-904c-617965722e6b,B*%
%TF.SameCoordinates,Original*%
%TF.FileFunction,Paste,Top*%
%TF.FilePolarity,Positive*%
%FSLAX46Y46*%
G04 Gerber Fmt 4.6, Leading zero omitted, Abs format (unit mm)*
G04 Created by KiCad (PCBNEW 8.0.1) date 2024-04-17 00:31:54*
%MOMM*%
%LPD*%
G01*
G04 APERTURE LIST*
G04 Aperture macros list*
%AMRoundRect*
0 Rectangle with rounded corners*
0 $1 Rounding radius*
0 $2 $3 $4 $5 $6 $7 $8 $9 X,Y pos of 4 corners*
0 Add a 4 corners polygon primitive as box body*
4,1,4,$2,$3,$4,$5,$6,$7,$8,$9,$2,$3,0*
0 Add four circle primitives for the rounded corners*
1,1,$1+$1,$2,$3*
1,1,$1+$1,$4,$5*
1,1,$1+$1,$6,$7*
1,1,$1+$1,$8,$9*
0 Add four rect primitives between the rounded corners*
20,1,$1+$1,$2,$3,$4,$5,0*
20,1,$1+$1,$4,$5,$6,$7,0*
20,1,$1+$1,$6,$7,$8,$9,0*
20,1,$1+$1,$8,$9,$2,$3,0*%
%AMRotRect*
0 Rectangle, with rotation*
0 The origin of the aperture is its center*
0 $1 length*
0 $2 width*
0 $3 Rotation angle, in degrees counterclockwise*
0 Add horizontal line*
21,1,$1,$2,0,0,$3*%
G04 Aperture macros list end*
%ADD10RoundRect,0.250000X0.097227X-0.574524X0.574524X-0.097227X-0.097227X0.574524X-0.574524X0.097227X0*%
%ADD11RoundRect,0.250000X-0.450000X0.350000X-0.450000X-0.350000X0.450000X-0.350000X0.450000X0.350000X0*%
%ADD12RoundRect,0.250000X-0.097227X0.574524X-0.574524X0.097227X0.097227X-0.574524X0.574524X-0.097227X0*%
%ADD13RoundRect,0.250000X-0.337500X-0.475000X0.337500X-0.475000X0.337500X0.475000X-0.337500X0.475000X0*%
%ADD14RoundRect,0.249999X0.558616X0.000000X0.000000X0.558616X-0.558616X0.000000X0.000000X-0.558616X0*%
%ADD15RoundRect,0.050000X0.309359X-0.238649X-0.238649X0.309359X-0.309359X0.238649X0.238649X-0.309359X0*%
%ADD16RoundRect,0.050000X0.309359X0.238649X0.238649X0.309359X-0.309359X-0.238649X-0.238649X-0.309359X0*%
%ADD17RoundRect,0.250000X1.166726X-0.247487X-0.247487X1.166726X-1.166726X0.247487X0.247487X-1.166726X0*%
%ADD18RoundRect,0.250000X0.450000X-0.350000X0.450000X0.350000X-0.450000X0.350000X-0.450000X-0.350000X0*%
%ADD19R,2.000000X1.500000*%
%ADD20R,2.000000X3.800000*%
%ADD21RoundRect,0.160000X0.270468X-0.044194X-0.044194X0.270468X-0.270468X0.044194X0.044194X-0.270468X0*%
%ADD22RoundRect,0.250000X-0.574524X-0.097227X-0.097227X-0.574524X0.574524X0.097227X0.097227X0.574524X0*%
%ADD23RoundRect,0.150000X-0.425000X0.150000X-0.425000X-0.150000X0.425000X-0.150000X0.425000X0.150000X0*%
%ADD24RoundRect,0.075000X-0.500000X0.075000X-0.500000X-0.075000X0.500000X-0.075000X0.500000X0.075000X0*%
%ADD25O,2.100000X1.000000*%
%ADD26O,1.800000X1.000000*%
%ADD27RoundRect,0.250000X-0.350000X-0.450000X0.350000X-0.450000X0.350000X0.450000X-0.350000X0.450000X0*%
%ADD28RoundRect,0.218750X-0.218750X-0.256250X0.218750X-0.256250X0.218750X0.256250X-0.218750X0.256250X0*%
%ADD29RoundRect,0.250000X0.565685X0.070711X0.070711X0.565685X-0.565685X-0.070711X-0.070711X-0.565685X0*%
%ADD30RoundRect,0.250000X0.574524X0.097227X0.097227X0.574524X-0.574524X-0.097227X-0.097227X-0.574524X0*%
%ADD31RoundRect,0.250000X0.350000X0.450000X-0.350000X0.450000X-0.350000X-0.450000X0.350000X-0.450000X0*%
%ADD32RoundRect,0.250000X0.070711X-0.565685X0.565685X-0.070711X-0.070711X0.565685X-0.565685X0.070711X0*%
%ADD33RoundRect,0.150000X0.650000X0.150000X-0.650000X0.150000X-0.650000X-0.150000X0.650000X-0.150000X0*%
%ADD34RotRect,2.100000X1.800000X45.000000*%
%ADD35RoundRect,0.250000X-0.475000X0.337500X-0.475000X-0.337500X0.475000X-0.337500X0.475000X0.337500X0*%
%ADD36R,1.550000X1.300000*%
%ADD37RoundRect,0.250000X-1.000000X-0.650000X1.000000X-0.650000X1.000000X0.650000X-1.000000X0.650000X0*%
%ADD38RoundRect,0.218750X0.218750X0.256250X-0.218750X0.256250X-0.218750X-0.256250X0.218750X-0.256250X0*%
%ADD39RoundRect,0.250000X0.337500X0.475000X-0.337500X0.475000X-0.337500X-0.475000X0.337500X-0.475000X0*%
%ADD40RoundRect,0.225000X-0.375000X0.225000X-0.375000X-0.225000X0.375000X-0.225000X0.375000X0.225000X0*%
G04 APERTURE END LIST*
D10*
%TO.C,C13*%
X108829377Y-58264623D03*
X110296623Y-56797377D03*
%TD*%
D11*
%TO.C,R17*%
X111252000Y-81296000D03*
X111252000Y-83296000D03*
%TD*%
D12*
%TO.C,C12*%
X97977623Y-65814377D03*
X96510377Y-67281623D03*
%TD*%
D13*
%TO.C,C6*%
X88205500Y-69723000D03*
X90280500Y-69723000D03*
%TD*%
D14*
%TO.C,U1*%
X103239371Y-63507371D03*
X104370742Y-62376000D03*
X102108000Y-62376000D03*
X103239371Y-61244629D03*
D15*
X103831573Y-66645157D03*
X104114416Y-66362314D03*
X104397258Y-66079472D03*
X104680101Y-65796629D03*
X104962944Y-65513786D03*
X105245786Y-65230944D03*
X105528629Y-64948101D03*
X105811472Y-64665258D03*
X106094315Y-64382415D03*
X106377157Y-64099573D03*
X106660000Y-63816730D03*
X106942843Y-63533887D03*
X107225685Y-63251045D03*
X107508528Y-62968202D03*
D16*
X107508528Y-61783798D03*
X107225685Y-61500955D03*
X106942843Y-61218113D03*
X106660000Y-60935270D03*
X106377157Y-60652427D03*
X106094315Y-60369585D03*
X105811472Y-60086742D03*
X105528629Y-59803899D03*
X105245786Y-59521056D03*
X104962944Y-59238214D03*
X104680101Y-58955371D03*
X104397258Y-58672528D03*
X104114416Y-58389686D03*
X103831573Y-58106843D03*
D15*
X102647169Y-58106843D03*
X102364326Y-58389686D03*
X102081484Y-58672528D03*
X101798641Y-58955371D03*
X101515798Y-59238214D03*
X101232956Y-59521056D03*
X100950113Y-59803899D03*
X100667270Y-60086742D03*
X100384427Y-60369585D03*
X100101585Y-60652427D03*
X99818742Y-60935270D03*
X99535899Y-61218113D03*
X99253057Y-61500955D03*
X98970214Y-61783798D03*
D16*
X98970214Y-62968202D03*
X99253057Y-63251045D03*
X99535899Y-63533887D03*
X99818742Y-63816730D03*
X100101585Y-64099573D03*
X100384427Y-64382415D03*
X100667270Y-64665258D03*
X100950113Y-64948101D03*
X101232956Y-65230944D03*
X101515798Y-65513786D03*
X101798641Y-65796629D03*
X102081484Y-66079472D03*
X102364326Y-66362314D03*
X102647169Y-66645157D03*
%TD*%
D17*
%TO.C,D1*%
X95483214Y-54627214D03*
X92654786Y-51798786D03*
%TD*%
D13*
%TO.C,C11*%
X106493500Y-68453000D03*
X108568500Y-68453000D03*
%TD*%
D18*
%TO.C,R8*%
X89370000Y-52181000D03*
X89370000Y-50181000D03*
%TD*%
D19*
%TO.C,U3*%
X79743000Y-65518000D03*
X79743000Y-67818000D03*
X79743000Y-70118000D03*
D20*
X86043000Y-67818000D03*
%TD*%
D21*
%TO.C,D8*%
X109840819Y-64158819D03*
X109031181Y-63349181D03*
%TD*%
%TO.C,D7*%
X109840819Y-65555819D03*
X109031181Y-64746181D03*
%TD*%
D22*
%TO.C,C10*%
X95113377Y-61623377D03*
X96580623Y-63090623D03*
%TD*%
D18*
%TO.C,R19*%
X121882000Y-68564000D03*
X121882000Y-66564000D03*
%TD*%
D12*
%TO.C,C9*%
X99247623Y-67338377D03*
X97780377Y-68805623D03*
%TD*%
D23*
%TO.C,J3*%
X84798000Y-55621000D03*
X84798000Y-56421000D03*
D24*
X84798000Y-57571000D03*
X84798000Y-58571000D03*
X84798000Y-59071000D03*
X84798000Y-60071000D03*
D23*
X84798000Y-61221000D03*
X84798000Y-62021000D03*
X84798000Y-62021000D03*
X84798000Y-61221000D03*
D24*
X84798000Y-60571000D03*
X84798000Y-59571000D03*
X84798000Y-58071000D03*
X84798000Y-57071000D03*
D23*
X84798000Y-56421000D03*
X84798000Y-55621000D03*
D25*
X84223000Y-54501000D03*
D26*
X80043000Y-54501000D03*
D25*
X84223000Y-63141000D03*
D26*
X80043000Y-63141000D03*
%TD*%
D11*
%TO.C,R15*%
X108712000Y-81296000D03*
X108712000Y-83296000D03*
%TD*%
D18*
%TO.C,R20*%
X119879000Y-68564000D03*
X119879000Y-66564000D03*
%TD*%
D27*
%TO.C,R5*%
X87989000Y-57277000D03*
X89989000Y-57277000D03*
%TD*%
D28*
%TO.C,D5*%
X88175998Y-67056000D03*
X89751000Y-67056000D03*
%TD*%
D22*
%TO.C,C16*%
X95748377Y-59337377D03*
X97215623Y-60804623D03*
%TD*%
D18*
%TO.C,R3*%
X103124000Y-83169000D03*
X103124000Y-81169000D03*
%TD*%
D29*
%TO.C,R7*%
X90585107Y-62937107D03*
X89170893Y-61522893D03*
%TD*%
D27*
%TO.C,R6*%
X90656000Y-74803000D03*
X92656000Y-74803000D03*
%TD*%
D30*
%TO.C,C14*%
X98612623Y-59407623D03*
X97145377Y-57940377D03*
%TD*%
D27*
%TO.C,R11*%
X88243000Y-65278000D03*
X90243000Y-65278000D03*
%TD*%
D28*
%TO.C,F1*%
X90487500Y-79248000D03*
X92062500Y-79248000D03*
%TD*%
D12*
%TO.C,C15*%
X102422623Y-55908377D03*
X100955377Y-57375623D03*
%TD*%
D31*
%TO.C,R2*%
X104955000Y-78638000D03*
X102955000Y-78638000D03*
%TD*%
D18*
%TO.C,R4*%
X87465000Y-54213000D03*
X87465000Y-52213000D03*
%TD*%
D32*
%TO.C,R13*%
X94196000Y-66802000D03*
X95610214Y-65387786D03*
%TD*%
D10*
%TO.C,C5*%
X113236232Y-60056114D03*
X114703478Y-58588868D03*
%TD*%
D12*
%TO.C,C4*%
X112008101Y-61284245D03*
X110540855Y-62751491D03*
%TD*%
D33*
%TO.C,U2*%
X103638000Y-76581000D03*
X103638000Y-75311000D03*
X103638000Y-74041000D03*
X103638000Y-72771000D03*
X96438000Y-72771000D03*
X96438000Y-74041000D03*
X96438000Y-75311000D03*
X96438000Y-76581000D03*
%TD*%
D27*
%TO.C,R1*%
X79988000Y-52070000D03*
X81988000Y-52070000D03*
%TD*%
D18*
%TO.C,R18*%
X123816000Y-68548000D03*
X123816000Y-66548000D03*
%TD*%
D34*
%TO.C,Y1*%
X115700868Y-65592478D03*
X117751478Y-63541868D03*
X116125132Y-61915522D03*
X114074522Y-63966132D03*
%TD*%
D35*
%TO.C,C2*%
X83020000Y-72404000D03*
X83020000Y-74479000D03*
%TD*%
D36*
%TO.C,SW2*%
X126116000Y-51018000D03*
X118156000Y-51018000D03*
X126116000Y-46518000D03*
X118156000Y-46518000D03*
%TD*%
D37*
%TO.C,D2*%
X84195000Y-77343000D03*
X88195000Y-77343000D03*
%TD*%
D18*
%TO.C,R16*%
X117475000Y-44180000D03*
X117475000Y-42180000D03*
%TD*%
D10*
%TO.C,C8*%
X106797377Y-57502623D03*
X108264623Y-56035377D03*
%TD*%
D38*
%TO.C,D4*%
X88887500Y-74676000D03*
X87312500Y-74676000D03*
%TD*%
D35*
%TO.C,C3*%
X80988000Y-72404000D03*
X80988000Y-74479000D03*
%TD*%
D39*
%TO.C,C1*%
X98522700Y-78994000D03*
X96447700Y-78994000D03*
%TD*%
D31*
%TO.C,R10*%
X113738000Y-50546000D03*
X111738000Y-50546000D03*
%TD*%
D32*
%TO.C,R9*%
X110633893Y-59762107D03*
X112048107Y-58347893D03*
%TD*%
D21*
%TO.C,D6*%
X109840819Y-66929000D03*
X109031181Y-66119362D03*
%TD*%
D32*
%TO.C,R12*%
X93162786Y-65096107D03*
X94577000Y-63681893D03*
%TD*%
D27*
%TO.C,R14*%
X117364000Y-40259000D03*
X119364000Y-40259000D03*
%TD*%
D13*
%TO.C,C7*%
X88205500Y-71755000D03*
X90280500Y-71755000D03*
%TD*%
D40*
%TO.C,D3*%
X81280000Y-76200000D03*
X81280000Y-79500000D03*
%TD*%
M02*
